M48
;DRILL file {KiCad 5.0.2-bee76a0~70~ubuntu18.04.1} date Tue 08 Jan 2019 11:54:56 PM EST
;FORMAT={-:-/ absolute / inch / decimal}
FMAT,2
INCH,TZ
T1C0.0150
T2C0.0276
T3C0.0315
T4C0.0354
T5C0.0394
T6C0.0394
T7C0.0866
%
G90
G05
T1
X6.363Y-4.494
X6.629Y-4.496
X7.601Y-4.878
X7.625Y-3.804
X7.701Y-4.913
X7.801Y-4.948
X7.901Y-5.523
X7.956Y-5.013
X8.001Y-5.523
X8.051Y-5.053
X8.101Y-5.523
X8.151Y-5.093
X8.201Y-5.523
X8.215Y-3.263
X8.233Y-3.563
X8.259Y-2.908
X8.259Y-3.1733
X8.301Y-4.843
X8.301Y-5.528
X8.306Y-3.118
X8.306Y-3.618
X8.315Y-3.72
X8.347Y-3.672
X8.351Y-3.263
X8.401Y-4.878
X8.401Y-5.528
X8.501Y-4.913
X8.501Y-5.533
X8.547Y-4.09
X8.601Y-4.948
X8.601Y-5.528
X8.776Y-5.008
X8.781Y-4.368
X8.816Y-5.048
X8.821Y-4.268
X8.821Y-4.428
X8.831Y-4.323
X8.851Y-4.478
X8.851Y-5.093
X8.866Y-3.618
X8.881Y-3.118
X8.884Y-3.266
X8.906Y-3.668
X8.941Y-3.173
X8.941Y-3.468
X8.976Y-3.218
X8.976Y-3.518
X9.001Y-5.553
X9.011Y-3.713
X9.011Y-3.268
X9.031Y-4.813
X9.076Y-3.518
X9.076Y-3.968
X9.236Y-5.473
X9.256Y-3.898
X9.337Y-3.804
X9.486Y-3.973
X9.721Y-3.118
X9.721Y-3.318
X9.721Y-3.418
X9.756Y-3.218
X9.756Y-3.363
X9.796Y-3.273
X9.796Y-3.518
X9.831Y-3.468
X9.831Y-3.618
X9.871Y-3.468
X9.871Y-3.718
X9.996Y-4.268
X10.186Y-3.898
X10.427Y-3.35
X10.427Y-3.926
T2
X5.862Y-4.596
X5.9604Y-4.596
X7.086Y-3.978
X7.486Y-3.978
X7.171Y-4.618
X7.171Y-5.018
X6.586Y-4.743
X6.6844Y-4.743
X6.676Y-4.8596
X6.676Y-4.958
X5.98Y-4.259
X5.98Y-4.3574
X5.467Y-3.386
X5.5654Y-3.386
X4.528Y-5.204
X4.928Y-5.204
X10.226Y-4.548
X10.226Y-4.948
X6.1875Y-3.23
X6.1875Y-3.63
X9.426Y-2.983
X9.5244Y-2.983
X4.094Y-4.596
X4.2909Y-4.596
X4.655Y-3.7896
X4.655Y-3.888
X10.096Y-4.018
X10.096Y-4.418
X6.351Y-4.748
X6.4494Y-4.748
X5.967Y-4.7136
X5.967Y-4.812
X4.9846Y-3.958
X5.083Y-3.958
X5.4076Y-5.178
X5.506Y-5.178
X5.985Y-4.0206
X5.985Y-4.119
X4.107Y-4.0276
X4.107Y-4.126
X9.051Y-4.573
X9.051Y-4.6714
X6.124Y-5.312
X6.2224Y-5.312
X6.339Y-3.91
X6.4374Y-3.91
X6.941Y-4.723
X6.941Y-5.123
X8.666Y-2.983
X8.7644Y-2.983
X3.797Y-4.956
X3.797Y-5.356
X8.0726Y-4.028
X8.171Y-4.028
X5.205Y-4.9881
X5.205Y-5.185
X6.313Y-3.4756
X6.313Y-3.574
X5.407Y-4.952
X5.407Y-5.0504
X3.9776Y-5.246
X4.076Y-5.246
X6.816Y-4.723
X6.816Y-5.123
X6.206Y-3.018
X6.206Y-3.1164
X5.923Y-3.784
X6.323Y-3.784
X7.086Y-3.853
X7.486Y-3.853
X5.267Y-2.978
X5.267Y-3.378
X8.411Y-3.908
X8.811Y-3.908
X4.019Y-3.528
X4.419Y-3.528
X5.554Y-3.5026
X5.554Y-3.601
X7.0546Y-5.136
X7.153Y-5.136
X7.511Y-3.328
X7.511Y-3.728
X4.1076Y-4.24
X4.206Y-4.24
X6.539Y-3.94
X6.539Y-4.34
X5.597Y-5.326
X5.997Y-5.326
X7.026Y-3.478
X7.026Y-3.5764
X5.029Y-4.578
X5.429Y-4.578
X4.5576Y-3.678
X4.656Y-3.678
X4.995Y-3.742
X4.995Y-3.8404
X7.391Y-3.328
X7.391Y-3.728
X5.028Y-4.832
X5.428Y-4.832
X3.975Y-5.028
X3.975Y-5.1264
X7.899Y-3.932
X7.899Y-4.0304
X7.906Y-2.983
X8.0044Y-2.983
X3.669Y-4.436
X3.669Y-4.836
X9.063Y-4.05
X9.063Y-4.1484
X7.626Y-4.028
X7.7244Y-4.028
X4.528Y-4.7856
X4.528Y-4.884
X6.426Y-3.463
X6.826Y-3.463
X10.181Y-2.983
X10.2794Y-2.983
X7.271Y-3.328
X7.271Y-3.728
X10.226Y-4.018
X10.226Y-4.418
X4.428Y-4.664
X4.5264Y-4.664
X3.669Y-5.0131
X3.669Y-5.21
X6.426Y-3.593
X6.826Y-3.593
X3.797Y-4.436
X3.797Y-4.836
X4.818Y-3.864
X4.818Y-4.0609
X7.6526Y-3.883
X7.751Y-3.883
X4.818Y-3.352
X4.818Y-3.752
X6.125Y-4.592
X6.125Y-4.992
X8.043Y-3.884
X8.1414Y-3.884
X6.126Y-5.098
X6.126Y-5.1964
X4.527Y-5.074
X4.927Y-5.074
X4.974Y-3.206
X4.974Y-3.606
X5.029Y-4.704
X5.429Y-4.704
X7.151Y-3.328
X7.151Y-3.728
X7.17Y-4.432
X7.17Y-4.5304
X4.125Y-3.654
X4.3219Y-3.654
X8.626Y-4.043
X8.7244Y-4.043
X3.944Y-4.46
X4.344Y-4.46
T3
X9.186Y-4.068
X9.186Y-4.368
X9.286Y-4.068
X9.286Y-4.368
X9.386Y-4.068
X9.386Y-4.368
X9.486Y-4.068
X9.486Y-4.368
X9.586Y-4.068
X9.586Y-4.368
X9.686Y-4.068
X9.686Y-4.368
X9.786Y-4.068
X9.786Y-4.368
X9.886Y-4.068
X9.886Y-4.368
X7.686Y-3.118
X7.686Y-3.218
X7.686Y-3.318
X7.686Y-3.418
X7.686Y-3.518
X7.686Y-3.618
X7.686Y-3.718
X7.986Y-3.118
X7.986Y-3.218
X7.986Y-3.318
X7.986Y-3.418
X7.986Y-3.518
X7.986Y-3.618
X7.986Y-3.718
X6.117Y-4.038
X6.117Y-4.138
X6.117Y-4.238
X6.117Y-4.338
X6.417Y-4.038
X6.417Y-4.138
X6.417Y-4.238
X6.417Y-4.338
X8.4435Y-3.118
X8.4435Y-3.218
X8.4435Y-3.318
X8.4435Y-3.418
X8.4435Y-3.518
X8.4435Y-3.618
X8.4435Y-3.718
X8.7435Y-3.118
X8.7435Y-3.218
X8.7435Y-3.318
X8.7435Y-3.418
X8.7435Y-3.518
X8.7435Y-3.618
X8.7435Y-3.718
X9.1826Y-4.5928
X9.1826Y-4.8928
X9.2826Y-4.5928
X9.2826Y-4.8928
X9.3826Y-4.5928
X9.3826Y-4.8928
X9.4826Y-4.5928
X9.4826Y-4.8928
X9.5826Y-4.5928
X9.5826Y-4.8928
X9.6826Y-4.5928
X9.6826Y-4.8928
X9.7826Y-4.5928
X9.7826Y-4.8928
X9.8826Y-4.5928
X9.8826Y-4.8928
X9.9826Y-4.5928
X9.9826Y-4.8928
X10.0826Y-4.5928
X10.0826Y-4.8928
X9.2035Y-3.118
X9.2035Y-3.218
X9.2035Y-3.318
X9.2035Y-3.418
X9.2035Y-3.518
X9.2035Y-3.618
X9.2035Y-3.718
X9.5035Y-3.118
X9.5035Y-3.218
X9.5035Y-3.318
X9.5035Y-3.418
X9.5035Y-3.518
X9.5035Y-3.618
X9.5035Y-3.718
X5.119Y-3.521
X5.119Y-3.621
X5.119Y-3.721
X5.119Y-3.821
X5.419Y-3.521
X5.419Y-3.621
X5.419Y-3.721
X5.419Y-3.821
X4.231Y-3.809
X4.231Y-3.909
X4.231Y-4.009
X4.231Y-4.109
X4.531Y-3.809
X4.531Y-3.909
X4.531Y-4.009
X4.531Y-4.109
X4.098Y-4.804
X4.098Y-4.904
X4.098Y-5.004
X4.098Y-5.104
X4.398Y-4.804
X4.398Y-4.904
X4.398Y-5.004
X4.398Y-5.104
X6.662Y-4.042
X6.662Y-4.142
X6.662Y-4.242
X6.662Y-4.342
X6.962Y-4.042
X6.962Y-4.142
X6.962Y-4.242
X6.962Y-4.342
X6.251Y-4.878
X6.251Y-4.978
X6.251Y-5.078
X6.251Y-5.178
X6.551Y-4.878
X6.551Y-4.978
X6.551Y-5.078
X6.551Y-5.178
X6.727Y-4.604
X7.027Y-4.604
X7.061Y-4.723
X7.061Y-5.023
X6.311Y-4.606
X6.611Y-4.606
X7.401Y-4.173
X7.401Y-4.773
X7.501Y-4.173
X7.501Y-4.773
X7.601Y-4.173
X7.601Y-4.773
X7.701Y-4.173
X7.701Y-4.773
X7.801Y-4.173
X7.801Y-4.773
X7.901Y-4.173
X7.901Y-4.773
X8.001Y-4.173
X8.001Y-4.773
X8.101Y-4.173
X8.101Y-4.773
X8.201Y-4.173
X8.201Y-4.773
X8.301Y-4.173
X8.301Y-4.773
X8.401Y-4.173
X8.401Y-4.773
X8.501Y-4.173
X8.501Y-4.773
X8.601Y-4.173
X8.601Y-4.773
X8.701Y-4.173
X8.701Y-4.773
X7.283Y-4.328
X7.283Y-4.628
X6.338Y-3.04
X6.338Y-3.34
X6.438Y-3.04
X6.438Y-3.34
X6.538Y-3.04
X6.538Y-3.34
X6.638Y-3.04
X6.638Y-3.34
X6.738Y-3.04
X6.738Y-3.34
X6.838Y-3.04
X6.838Y-3.34
X6.938Y-3.04
X6.938Y-3.34
X5.537Y-4.732
X5.537Y-4.832
X5.537Y-4.932
X5.537Y-5.032
X5.837Y-4.732
X5.837Y-4.832
X5.837Y-4.932
X5.837Y-5.032
X9.961Y-3.118
X9.961Y-3.218
X9.961Y-3.318
X9.961Y-3.418
X9.961Y-3.518
X9.961Y-3.618
X9.961Y-3.718
X10.261Y-3.118
X10.261Y-3.218
X10.261Y-3.318
X10.261Y-3.418
X10.261Y-3.518
X10.261Y-3.618
X10.261Y-3.718
T4
X7.311Y-3.063
X7.411Y-3.063
T5
X5.66Y-4.39
X5.66Y-4.49
X5.66Y-4.59
X5.696Y-3.052
X5.696Y-3.552
X5.796Y-3.252
X9.964Y-2.97
X5.989Y-4.986
X5.989Y-5.086
X5.989Y-5.186
X7.612Y-2.956
X9.031Y-5.083
X9.63Y-5.35
X9.6304Y-5.15
X4.6Y-3.275
X3.942Y-4.589
X3.942Y-4.689
X3.942Y-4.789
X7.083Y-2.9
X10.1996Y-5.35
X10.2Y-5.15
X5.559Y-3.792
X5.559Y-3.892
X5.559Y-3.992
X5.916Y-3.052
X5.916Y-3.552
X6.016Y-3.252
X6.639Y-2.9
X7.532Y-5.136
X7.305Y-4.936
X7.305Y-5.036
X7.305Y-5.136
X5.124Y-3.176
X5.124Y-3.276
X5.124Y-3.376
X4.87Y-4.684
X4.87Y-4.784
X4.87Y-4.884
X5.847Y-4.148
X5.847Y-4.248
X5.847Y-4.348
X8.132Y-2.956
X7.786Y-2.958
X6.901Y-3.74
X9.915Y-5.35
X9.9154Y-5.15
X6.671Y-3.738
X4.665Y-4.012
X4.665Y-4.112
X4.665Y-4.212
T6
X3.901Y-3.908
X3.901Y-4.0064
T7
X3.7331Y-3.7072
X3.7331Y-4.1087
T0
M30
