M48
;DRILL file {KiCad 5.0.2-bee76a0~70~ubuntu18.04.1} date Wed 09 Jan 2019 12:27:37 AM EST
;FORMAT={-:-/ absolute / inch / decimal}
FMAT,2
INCH,TZ
T1C0.0157
T2C0.0276
T3C0.0315
T4C0.0354
T5C0.0394
T6C0.0400
T7C0.0660
T8C0.0709
T9C0.0984
%
G90
G05
T1
X6.285Y-5.135
X7.142Y-3.592
X7.145Y-4.875
X7.61Y-4.014
X7.864Y-4.036
T2
X5.708Y-3.574
X6.108Y-3.574
X5.71Y-3.835
X6.11Y-3.835
X7.245Y-4.1091
X7.245Y-4.2075
X5.71Y-4.1
X6.11Y-4.1
X5.71Y-4.37
X6.11Y-4.37
X7.374Y-3.1156
X7.374Y-3.214
X8.105Y-4.53
X8.105Y-4.93
X5.71Y-4.235
X6.11Y-4.235
X5.712Y-3.164
X6.112Y-3.164
X6.615Y-3.86
X7.015Y-3.86
X7.045Y-2.53
X7.045Y-2.6284
X5.71Y-4.505
X6.11Y-4.505
X6.615Y-4.12
X7.015Y-4.12
X7.376Y-3.6216
X7.376Y-3.72
X6.615Y-3.99
X7.015Y-3.99
X6.2196Y-3.25
X6.318Y-3.25
X6.615Y-4.25
X7.015Y-4.25
X6.615Y-4.38
X7.015Y-4.38
X6.66Y-3.4956
X6.66Y-3.594
X7.1825Y-3.03
X7.1825Y-3.43
X6.822Y-3.324
X6.822Y-3.724
X5.71Y-4.775
X6.11Y-4.775
X5.71Y-3.97
X6.11Y-3.97
X5.71Y-4.64
X6.11Y-4.64
X5.584Y-3.478
X5.584Y-3.5764
X5.71Y-2.94
X6.11Y-2.94
X5.71Y-3.306
X6.11Y-3.306
X7.374Y-2.6056
X7.374Y-2.704
X7.97Y-4.53
X7.97Y-4.93
X6.615Y-4.77
X7.015Y-4.77
X7.18Y-2.53
X7.18Y-2.93
X6.615Y-4.64
X7.015Y-4.64
X5.708Y-3.442
X6.108Y-3.442
X6.615Y-4.51
X7.015Y-4.51
X6.286Y-2.7636
X6.286Y-2.862
T3
X6.4175Y-2.76
X6.4175Y-3.06
X6.5175Y-2.76
X6.5175Y-3.06
X6.6175Y-2.76
X6.6175Y-3.06
X6.7175Y-2.76
X6.7175Y-3.06
X6.8175Y-2.76
X6.8175Y-3.06
X6.9175Y-2.76
X6.9175Y-3.06
X7.0175Y-2.76
X7.0175Y-3.06
X7.5075Y-3.6175
X7.5075Y-3.9175
X7.6075Y-3.6175
X7.6075Y-3.9175
X7.7075Y-3.6175
X7.7075Y-3.9175
X7.8075Y-3.6175
X7.8075Y-3.9175
X7.9075Y-3.6175
X7.9075Y-3.9175
X8.0075Y-3.6175
X8.0075Y-3.9175
X8.1075Y-3.6175
X8.1075Y-3.9175
X7.505Y-3.11
X7.505Y-3.41
X7.605Y-3.11
X7.605Y-3.41
X7.705Y-3.11
X7.705Y-3.41
X7.805Y-3.11
X7.805Y-3.41
X7.905Y-3.11
X7.905Y-3.41
X8.005Y-3.11
X8.005Y-3.41
X8.105Y-3.11
X8.105Y-3.41
X7.41Y-4.11
X7.41Y-4.41
X7.51Y-4.11
X7.51Y-4.41
X7.61Y-4.11
X7.61Y-4.41
X7.71Y-4.11
X7.71Y-4.41
X7.81Y-4.11
X7.81Y-4.41
X7.91Y-4.11
X7.91Y-4.41
X8.01Y-4.11
X8.01Y-4.41
X8.11Y-4.11
X8.11Y-4.41
X7.56Y-4.695
X7.56Y-4.7934
X7.505Y-2.6025
X7.505Y-2.9025
X7.605Y-2.6025
X7.605Y-2.9025
X7.705Y-2.6025
X7.705Y-2.9025
X7.805Y-2.6025
X7.805Y-2.9025
X7.905Y-2.6025
X7.905Y-2.9025
X8.005Y-2.6025
X8.005Y-2.9025
X8.105Y-2.6025
X8.105Y-2.9025
X6.2175Y-3.3925
X6.2175Y-3.4925
X6.2175Y-3.5925
X6.2175Y-3.6925
X6.5175Y-3.3925
X6.5175Y-3.4925
X6.5175Y-3.5925
X6.5175Y-3.6925
X6.215Y-3.86
X6.215Y-3.96
X6.215Y-4.06
X6.215Y-4.16
X6.215Y-4.26
X6.215Y-4.36
X6.215Y-4.46
X6.215Y-4.56
X6.215Y-4.66
X6.215Y-4.76
X6.515Y-3.86
X6.515Y-3.96
X6.515Y-4.06
X6.515Y-4.16
X6.515Y-4.26
X6.515Y-4.36
X6.515Y-4.46
X6.515Y-4.56
X6.515Y-4.66
X6.515Y-4.76
T4
X5.426Y-2.94
X5.526Y-2.94
T5
X4.555Y-4.785
X4.655Y-4.785
X4.755Y-4.785
X4.855Y-4.785
X4.955Y-4.785
X6.976Y-3.628
X5.3946Y-4.91
X5.395Y-4.71
X7.8071Y-4.84
X7.8075Y-4.64
T6
X3.8224Y-4.1976
X4.9Y-3.57
X4.9Y-3.67
X5.Y-3.57
X5.Y-3.67
X5.1Y-3.57
X5.1Y-3.67
X5.2Y-3.57
X5.2Y-3.67
T7
X3.095Y-3.5249
X4.2761Y-2.895
T8
X3.3063Y-3.9873
X4.3299Y-3.4558
X4.3299Y-4.5188
X5.3535Y-3.9873
T9
X3.095Y-2.6588
X3.095Y-3.1312
T0
M30
