G04 #@! TF.GenerationSoftware,KiCad,Pcbnew,5.0.2-bee76a0~70~ubuntu18.04.1*
G04 #@! TF.CreationDate,2019-01-09T00:27:28-05:00*
G04 #@! TF.ProjectId,hvboard,6876626f-6172-4642-9e6b-696361645f70,1*
G04 #@! TF.SameCoordinates,Original*
G04 #@! TF.FileFunction,Copper,L1,Top*
G04 #@! TF.FilePolarity,Positive*
%FSLAX46Y46*%
G04 Gerber Fmt 4.6, Leading zero omitted, Abs format (unit mm)*
G04 Created by KiCad (PCBNEW 5.0.2-bee76a0~70~ubuntu18.04.1) date Wed 09 Jan 2019 12:27:28 AM EST*
%MOMM*%
%LPD*%
G01*
G04 APERTURE LIST*
G04 #@! TA.AperFunction,ComponentPad*
%ADD10R,1.800000X1.800000*%
G04 #@! TD*
G04 #@! TA.AperFunction,ComponentPad*
%ADD11C,1.800000*%
G04 #@! TD*
G04 #@! TA.AperFunction,ComponentPad*
%ADD12C,2.000000*%
G04 #@! TD*
G04 #@! TA.AperFunction,ComponentPad*
%ADD13C,1.727200*%
G04 #@! TD*
G04 #@! TA.AperFunction,ComponentPad*
%ADD14C,1.727000*%
G04 #@! TD*
G04 #@! TA.AperFunction,ComponentPad*
%ADD15C,2.200000*%
G04 #@! TD*
G04 #@! TA.AperFunction,Conductor*
%ADD16C,0.100000*%
G04 #@! TD*
G04 #@! TA.AperFunction,ComponentPad*
%ADD17R,2.200000X3.500000*%
G04 #@! TD*
G04 #@! TA.AperFunction,ComponentPad*
%ADD18R,1.600000X1.600000*%
G04 #@! TD*
G04 #@! TA.AperFunction,ComponentPad*
%ADD19O,1.600000X1.600000*%
G04 #@! TD*
G04 #@! TA.AperFunction,ConnectorPad*
%ADD20R,1.778000X7.620000*%
G04 #@! TD*
G04 #@! TA.AperFunction,ComponentPad*
%ADD21R,1.700000X1.700000*%
G04 #@! TD*
G04 #@! TA.AperFunction,ComponentPad*
%ADD22C,3.302000*%
G04 #@! TD*
G04 #@! TA.AperFunction,ComponentPad*
%ADD23O,1.700000X1.700000*%
G04 #@! TD*
G04 #@! TA.AperFunction,ComponentPad*
%ADD24C,1.600000*%
G04 #@! TD*
G04 #@! TA.AperFunction,ViaPad*
%ADD25C,0.800000*%
G04 #@! TD*
G04 #@! TA.AperFunction,Conductor*
%ADD26C,0.250000*%
G04 #@! TD*
G04 #@! TA.AperFunction,Conductor*
%ADD27C,0.508000*%
G04 #@! TD*
G04 APERTURE END LIST*
D10*
G04 #@! TO.P,D101,1*
G04 #@! TO.N,Net-(D101-Pad1)*
X140360400Y-74676000D03*
D11*
G04 #@! TO.P,D101,2*
G04 #@! TO.N,Net-(D101-Pad2)*
X137820400Y-74676000D03*
G04 #@! TD*
D12*
G04 #@! TO.P,F101,1*
G04 #@! TO.N,+5V*
X198310500Y-117856000D03*
G04 #@! TO.P,F101,2*
G04 #@! TO.N,Net-(BUS101-Pad25)*
X198300500Y-122936000D03*
G04 #@! TD*
D13*
G04 #@! TO.P,U107,2*
G04 #@! TO.N,N/C*
X132080000Y-90678000D03*
D14*
G04 #@! TO.P,U107,4*
G04 #@! TO.N,Net-(C108-Pad2)*
X129540000Y-90678000D03*
G04 #@! TO.P,U107,6*
G04 #@! TO.N,Net-(J103-Pad4)*
X127000000Y-90678000D03*
D13*
G04 #@! TO.P,U107,8*
G04 #@! TO.N,GND*
X124460000Y-90678000D03*
D14*
G04 #@! TO.P,U107,1*
G04 #@! TO.N,Net-(D101-Pad2)*
X132080000Y-93218000D03*
G04 #@! TO.P,U107,3*
G04 #@! TO.N,Net-(J103-Pad2)*
X129540000Y-93218000D03*
G04 #@! TO.P,U107,5*
G04 #@! TO.N,Net-(J103-Pad3)*
X127000000Y-93218000D03*
G04 #@! TO.P,U107,7*
G04 #@! TO.N,+12V*
X124460000Y-93218000D03*
G04 #@! TO.P,U107,9*
G04 #@! TO.N,Net-(J102-Pad1)*
X97090000Y-106618000D03*
D15*
G04 #@! TO.P,U107,S4*
G04 #@! TO.N,GND*
X109980000Y-87778000D03*
D16*
G04 #@! TD*
G04 #@! TO.N,GND*
G04 #@! TO.C,U107*
G36*
X111730000Y-86678000D02*
X111730000Y-88878000D01*
X108230000Y-88878000D01*
X108230000Y-86678000D01*
X111730000Y-86678000D01*
X111730000Y-86678000D01*
G37*
D15*
G04 #@! TO.P,U107,S3*
G04 #@! TO.N,GND*
X109980000Y-114778000D03*
D16*
G04 #@! TD*
G04 #@! TO.N,GND*
G04 #@! TO.C,U107*
G36*
X111730000Y-113678000D02*
X111730000Y-115878000D01*
X108230000Y-115878000D01*
X108230000Y-113678000D01*
X111730000Y-113678000D01*
X111730000Y-113678000D01*
G37*
D17*
G04 #@! TO.P,U107,S2*
G04 #@! TO.N,GND*
X135980000Y-101278000D03*
G04 #@! TO.P,U107,S1*
X83980000Y-101278000D03*
G04 #@! TD*
D12*
G04 #@! TO.P,F103,1*
G04 #@! TO.N,+12V*
X137033000Y-119634000D03*
G04 #@! TO.P,F103,2*
G04 #@! TO.N,Net-(BUS101-Pad50)*
X137023000Y-124714000D03*
G04 #@! TD*
D18*
G04 #@! TO.P,U106,1*
G04 #@! TO.N,Net-(R125-Pad2)*
X157861000Y-98044000D03*
D19*
G04 #@! TO.P,U106,11*
G04 #@! TO.N,Net-(U105-Pad11)*
X165481000Y-120904000D03*
G04 #@! TO.P,U106,2*
G04 #@! TO.N,Net-(R101-Pad2)*
X157861000Y-100584000D03*
G04 #@! TO.P,U106,12*
G04 #@! TO.N,Net-(R110-Pad2)*
X165481000Y-118364000D03*
G04 #@! TO.P,U106,3*
G04 #@! TO.N,/D0*
X157861000Y-103124000D03*
G04 #@! TO.P,U106,13*
G04 #@! TO.N,/D4*
X165481000Y-115824000D03*
G04 #@! TO.P,U106,4*
G04 #@! TO.N,/D1*
X157861000Y-105664000D03*
G04 #@! TO.P,U106,14*
G04 #@! TO.N,/D5*
X165481000Y-113284000D03*
G04 #@! TO.P,U106,5*
G04 #@! TO.N,Net-(R104-Pad2)*
X157861000Y-108204000D03*
G04 #@! TO.P,U106,15*
G04 #@! TO.N,Net-(R112-Pad2)*
X165481000Y-110744000D03*
G04 #@! TO.P,U106,6*
G04 #@! TO.N,Net-(R106-Pad2)*
X157861000Y-110744000D03*
G04 #@! TO.P,U106,16*
G04 #@! TO.N,Net-(R114-Pad2)*
X165481000Y-108204000D03*
G04 #@! TO.P,U106,7*
G04 #@! TO.N,/D2*
X157861000Y-113284000D03*
G04 #@! TO.P,U106,17*
G04 #@! TO.N,/D6*
X165481000Y-105664000D03*
G04 #@! TO.P,U106,8*
G04 #@! TO.N,/D3*
X157861000Y-115824000D03*
G04 #@! TO.P,U106,18*
G04 #@! TO.N,/D7*
X165481000Y-103124000D03*
G04 #@! TO.P,U106,9*
G04 #@! TO.N,Net-(R108-Pad2)*
X157861000Y-118364000D03*
G04 #@! TO.P,U106,19*
G04 #@! TO.N,Net-(R117-Pad2)*
X165481000Y-100584000D03*
G04 #@! TO.P,U106,10*
G04 #@! TO.N,GND*
X157861000Y-120904000D03*
G04 #@! TO.P,U106,20*
G04 #@! TO.N,Net-(C104-Pad2)*
X165481000Y-98044000D03*
G04 #@! TD*
D18*
G04 #@! TO.P,U108,1*
G04 #@! TO.N,Net-(BUS101-Pad2)*
X188214000Y-112014000D03*
D19*
G04 #@! TO.P,U108,9*
G04 #@! TO.N,N/C*
X205994000Y-104394000D03*
G04 #@! TO.P,U108,2*
G04 #@! TO.N,Net-(BUS101-Pad3)*
X190754000Y-112014000D03*
G04 #@! TO.P,U108,10*
G04 #@! TO.N,N/C*
X203454000Y-104394000D03*
G04 #@! TO.P,U108,3*
G04 #@! TO.N,Net-(BUS101-Pad4)*
X193294000Y-112014000D03*
G04 #@! TO.P,U108,11*
G04 #@! TO.N,N/C*
X200914000Y-104394000D03*
G04 #@! TO.P,U108,4*
G04 #@! TO.N,Net-(BUS101-Pad41)*
X195834000Y-112014000D03*
G04 #@! TO.P,U108,12*
G04 #@! TO.N,N/C*
X198374000Y-104394000D03*
G04 #@! TO.P,U108,5*
G04 #@! TO.N,Net-(R121-Pad1)*
X198374000Y-112014000D03*
G04 #@! TO.P,U108,13*
G04 #@! TO.N,Net-(U105-Pad9)*
X195834000Y-104394000D03*
G04 #@! TO.P,U108,6*
G04 #@! TO.N,Net-(R120-Pad1)*
X200914000Y-112014000D03*
G04 #@! TO.P,U108,14*
G04 #@! TO.N,Net-(U103-Pad4)*
X193294000Y-104394000D03*
G04 #@! TO.P,U108,7*
G04 #@! TO.N,N/C*
X203454000Y-112014000D03*
G04 #@! TO.P,U108,15*
G04 #@! TO.N,Net-(U105-Pad1)*
X190754000Y-104394000D03*
G04 #@! TO.P,U108,8*
G04 #@! TO.N,GND*
X205994000Y-112014000D03*
G04 #@! TO.P,U108,16*
G04 #@! TO.N,+5V*
X188214000Y-104394000D03*
G04 #@! TD*
D20*
G04 #@! TO.P,BUS101,2*
G04 #@! TO.N,Net-(BUS101-Pad2)*
X139268200Y-135839200D03*
G04 #@! TO.P,BUS101,3*
G04 #@! TO.N,Net-(BUS101-Pad3)*
X141808200Y-135839200D03*
G04 #@! TO.P,BUS101,4*
G04 #@! TO.N,Net-(BUS101-Pad4)*
X144348200Y-135839200D03*
G04 #@! TO.P,BUS101,18*
G04 #@! TO.N,Net-(BUS101-Pad18)*
X179908200Y-135839200D03*
G04 #@! TO.P,BUS101,25*
G04 #@! TO.N,Net-(BUS101-Pad25)*
X197688200Y-135839200D03*
G04 #@! TD*
D21*
G04 #@! TO.P,J101,1*
G04 #@! TO.N,Net-(J101-Pad1)*
X177190400Y-92151200D03*
G04 #@! TD*
D22*
G04 #@! TO.P,J102,1*
G04 #@! TO.N,Net-(J102-Pad1)*
X108613000Y-73533000D03*
G04 #@! TO.P,J102,2*
G04 #@! TO.N,GND*
X78613000Y-89533000D03*
G04 #@! TD*
D21*
G04 #@! TO.P,J103,1*
G04 #@! TO.N,Net-(C108-Pad2)*
X125857000Y-121539000D03*
D23*
G04 #@! TO.P,J103,2*
G04 #@! TO.N,Net-(J103-Pad2)*
X123317000Y-121539000D03*
G04 #@! TO.P,J103,3*
G04 #@! TO.N,Net-(J103-Pad3)*
X120777000Y-121539000D03*
G04 #@! TO.P,J103,4*
G04 #@! TO.N,Net-(J103-Pad4)*
X118237000Y-121539000D03*
G04 #@! TO.P,J103,5*
G04 #@! TO.N,GND*
X115697000Y-121539000D03*
G04 #@! TD*
D18*
G04 #@! TO.P,C102,1*
G04 #@! TO.N,+5V*
X192024000Y-119253000D03*
D24*
G04 #@! TO.P,C102,2*
G04 #@! TO.N,GND*
X192024000Y-121753000D03*
G04 #@! TD*
G04 #@! TO.P,C101,2*
G04 #@! TO.N,Net-(C101-Pad2)*
X169164000Y-88787600D03*
G04 #@! TO.P,C101,1*
G04 #@! TO.N,Net-(C101-Pad1)*
X169164000Y-91287600D03*
G04 #@! TD*
G04 #@! TO.P,C103,1*
G04 #@! TO.N,GND*
X187299600Y-68681600D03*
G04 #@! TO.P,C103,2*
G04 #@! TO.N,+5V*
X187299600Y-66181600D03*
G04 #@! TD*
G04 #@! TO.P,C104,1*
G04 #@! TO.N,GND*
X160477200Y-82550000D03*
G04 #@! TO.P,C104,2*
G04 #@! TO.N,Net-(C104-Pad2)*
X157977200Y-82550000D03*
G04 #@! TD*
G04 #@! TO.P,C105,2*
G04 #@! TO.N,+5V*
X159664400Y-70194800D03*
G04 #@! TO.P,C105,1*
G04 #@! TO.N,GND*
X159664400Y-72694800D03*
G04 #@! TD*
G04 #@! TO.P,C106,1*
G04 #@! TO.N,GND*
X187350400Y-94488000D03*
G04 #@! TO.P,C106,2*
G04 #@! TO.N,+5V*
X187350400Y-91988000D03*
G04 #@! TD*
G04 #@! TO.P,C107,1*
G04 #@! TO.N,GND*
X187299600Y-81635600D03*
G04 #@! TO.P,C107,2*
G04 #@! TO.N,+5V*
X187299600Y-79135600D03*
G04 #@! TD*
G04 #@! TO.P,C108,2*
G04 #@! TO.N,Net-(C108-Pad2)*
X141833600Y-90841200D03*
G04 #@! TO.P,C108,1*
G04 #@! TO.N,GND*
X141833600Y-88341200D03*
G04 #@! TD*
G04 #@! TO.P,C109,1*
G04 #@! TO.N,GND*
X184023000Y-106870500D03*
G04 #@! TO.P,C109,2*
G04 #@! TO.N,+5V*
X184023000Y-104370500D03*
G04 #@! TD*
G04 #@! TO.P,C110,2*
G04 #@! TO.N,GND*
X178943000Y-66762000D03*
G04 #@! TO.P,C110,1*
G04 #@! TO.N,Net-(C110-Pad1)*
X178943000Y-64262000D03*
G04 #@! TD*
D19*
G04 #@! TO.P,R101,2*
G04 #@! TO.N,Net-(R101-Pad2)*
X155194000Y-100838000D03*
D24*
G04 #@! TO.P,R101,1*
G04 #@! TO.N,Net-(R101-Pad1)*
X145034000Y-100838000D03*
G04 #@! TD*
G04 #@! TO.P,R102,1*
G04 #@! TO.N,GND*
X145034000Y-97409000D03*
D19*
G04 #@! TO.P,R102,2*
G04 #@! TO.N,Net-(R101-Pad1)*
X155194000Y-97409000D03*
G04 #@! TD*
G04 #@! TO.P,R103,2*
G04 #@! TO.N,Net-(R103-Pad2)*
X155194000Y-104140000D03*
D24*
G04 #@! TO.P,R103,1*
G04 #@! TO.N,Net-(R101-Pad1)*
X145034000Y-104140000D03*
G04 #@! TD*
D19*
G04 #@! TO.P,R104,2*
G04 #@! TO.N,Net-(R104-Pad2)*
X155194000Y-107569000D03*
D24*
G04 #@! TO.P,R104,1*
G04 #@! TO.N,Net-(R103-Pad2)*
X145034000Y-107569000D03*
G04 #@! TD*
G04 #@! TO.P,R105,1*
G04 #@! TO.N,Net-(R103-Pad2)*
X145034000Y-110998000D03*
D19*
G04 #@! TO.P,R105,2*
G04 #@! TO.N,Net-(R105-Pad2)*
X155194000Y-110998000D03*
G04 #@! TD*
D24*
G04 #@! TO.P,R106,1*
G04 #@! TO.N,Net-(R105-Pad2)*
X145034000Y-114427000D03*
D19*
G04 #@! TO.P,R106,2*
G04 #@! TO.N,Net-(R106-Pad2)*
X155194000Y-114427000D03*
G04 #@! TD*
D24*
G04 #@! TO.P,R107,1*
G04 #@! TO.N,Net-(R105-Pad2)*
X145034000Y-117856000D03*
D19*
G04 #@! TO.P,R107,2*
G04 #@! TO.N,Net-(R107-Pad2)*
X155194000Y-117856000D03*
G04 #@! TD*
G04 #@! TO.P,R108,2*
G04 #@! TO.N,Net-(R108-Pad2)*
X155194000Y-121285000D03*
D24*
G04 #@! TO.P,R108,1*
G04 #@! TO.N,Net-(R107-Pad2)*
X145034000Y-121285000D03*
G04 #@! TD*
G04 #@! TO.P,R109,1*
G04 #@! TO.N,Net-(R107-Pad2)*
X168021000Y-121158000D03*
D19*
G04 #@! TO.P,R109,2*
G04 #@! TO.N,Net-(R109-Pad2)*
X178181000Y-121158000D03*
G04 #@! TD*
D24*
G04 #@! TO.P,R110,1*
G04 #@! TO.N,Net-(R109-Pad2)*
X178181000Y-117856000D03*
D19*
G04 #@! TO.P,R110,2*
G04 #@! TO.N,Net-(R110-Pad2)*
X168021000Y-117856000D03*
G04 #@! TD*
G04 #@! TO.P,R111,2*
G04 #@! TO.N,Net-(R111-Pad2)*
X178181000Y-114554000D03*
D24*
G04 #@! TO.P,R111,1*
G04 #@! TO.N,Net-(R109-Pad2)*
X168021000Y-114554000D03*
G04 #@! TD*
D19*
G04 #@! TO.P,R112,2*
G04 #@! TO.N,Net-(R112-Pad2)*
X168021000Y-111252000D03*
D24*
G04 #@! TO.P,R112,1*
G04 #@! TO.N,Net-(R111-Pad2)*
X178181000Y-111252000D03*
G04 #@! TD*
G04 #@! TO.P,R113,1*
G04 #@! TO.N,Net-(R111-Pad2)*
X168021000Y-107950000D03*
D19*
G04 #@! TO.P,R113,2*
G04 #@! TO.N,Net-(R113-Pad2)*
X178181000Y-107950000D03*
G04 #@! TD*
D24*
G04 #@! TO.P,R114,1*
G04 #@! TO.N,Net-(R113-Pad2)*
X178181000Y-104648000D03*
D19*
G04 #@! TO.P,R114,2*
G04 #@! TO.N,Net-(R114-Pad2)*
X168021000Y-104648000D03*
G04 #@! TD*
G04 #@! TO.P,R115,2*
G04 #@! TO.N,Net-(J101-Pad1)*
X178181000Y-101346000D03*
D24*
G04 #@! TO.P,R115,1*
G04 #@! TO.N,Net-(R113-Pad2)*
X168021000Y-101346000D03*
G04 #@! TD*
G04 #@! TO.P,R116,1*
G04 #@! TO.N,+5V*
X155244800Y-80365600D03*
D19*
G04 #@! TO.P,R116,2*
G04 #@! TO.N,Net-(J103-Pad3)*
X145084800Y-80365600D03*
G04 #@! TD*
G04 #@! TO.P,R117,2*
G04 #@! TO.N,Net-(R117-Pad2)*
X168021000Y-98044000D03*
D24*
G04 #@! TO.P,R117,1*
G04 #@! TO.N,Net-(J101-Pad1)*
X178181000Y-98044000D03*
G04 #@! TD*
D19*
G04 #@! TO.P,R118,2*
G04 #@! TO.N,GND*
X155194000Y-83972400D03*
D24*
G04 #@! TO.P,R118,1*
G04 #@! TO.N,Net-(J103-Pad3)*
X145034000Y-83972400D03*
G04 #@! TD*
D19*
G04 #@! TO.P,R119,2*
G04 #@! TO.N,Net-(D101-Pad1)*
X145034000Y-74676000D03*
D24*
G04 #@! TO.P,R119,1*
G04 #@! TO.N,GND*
X155194000Y-74676000D03*
G04 #@! TD*
D19*
G04 #@! TO.P,R120,2*
G04 #@! TO.N,+5V*
X205867000Y-125222000D03*
D24*
G04 #@! TO.P,R120,1*
G04 #@! TO.N,Net-(R120-Pad1)*
X205867000Y-115062000D03*
G04 #@! TD*
G04 #@! TO.P,R121,1*
G04 #@! TO.N,Net-(R121-Pad1)*
X202438000Y-115062000D03*
D19*
G04 #@! TO.P,R121,2*
G04 #@! TO.N,GND*
X202438000Y-125222000D03*
G04 #@! TD*
G04 #@! TO.P,R122,2*
G04 #@! TO.N,Net-(C108-Pad2)*
X144983200Y-90779600D03*
D24*
G04 #@! TO.P,R122,1*
G04 #@! TO.N,Net-(J101-Pad1)*
X155143200Y-90779600D03*
G04 #@! TD*
G04 #@! TO.P,R123,1*
G04 #@! TO.N,Net-(C110-Pad1)*
X182372000Y-64262000D03*
D19*
G04 #@! TO.P,R123,2*
G04 #@! TO.N,+5V*
X182372000Y-74422000D03*
G04 #@! TD*
D24*
G04 #@! TO.P,R124,1*
G04 #@! TO.N,Net-(C108-Pad2)*
X144983200Y-87426800D03*
D19*
G04 #@! TO.P,R124,2*
G04 #@! TO.N,GND*
X155143200Y-87426800D03*
G04 #@! TD*
D24*
G04 #@! TO.P,R125,1*
G04 #@! TO.N,GND*
X173278800Y-84429600D03*
D19*
G04 #@! TO.P,R125,2*
G04 #@! TO.N,Net-(R125-Pad2)*
X173278800Y-94589600D03*
G04 #@! TD*
G04 #@! TO.P,R128,2*
G04 #@! TO.N,Net-(R128-Pad2)*
X182435500Y-87122000D03*
D24*
G04 #@! TO.P,R128,1*
G04 #@! TO.N,Net-(R128-Pad1)*
X182435500Y-76962000D03*
G04 #@! TD*
D18*
G04 #@! TO.P,U101,1*
G04 #@! TO.N,Net-(C104-Pad2)*
X157924500Y-86169500D03*
D19*
G04 #@! TO.P,U101,5*
G04 #@! TO.N,N/C*
X165544500Y-93789500D03*
G04 #@! TO.P,U101,2*
G04 #@! TO.N,Net-(C104-Pad2)*
X157924500Y-88709500D03*
G04 #@! TO.P,U101,6*
G04 #@! TO.N,Net-(C101-Pad1)*
X165544500Y-91249500D03*
G04 #@! TO.P,U101,3*
G04 #@! TO.N,N/C*
X157924500Y-91249500D03*
G04 #@! TO.P,U101,7*
G04 #@! TO.N,Net-(C101-Pad2)*
X165544500Y-88709500D03*
G04 #@! TO.P,U101,4*
G04 #@! TO.N,GND*
X157924500Y-93789500D03*
G04 #@! TO.P,U101,8*
G04 #@! TO.N,+12V*
X165544500Y-86169500D03*
G04 #@! TD*
D18*
G04 #@! TO.P,U102,1*
G04 #@! TO.N,Net-(C110-Pad1)*
X190627000Y-73723500D03*
D19*
G04 #@! TO.P,U102,8*
G04 #@! TO.N,N/C*
X205867000Y-66103500D03*
G04 #@! TO.P,U102,2*
G04 #@! TO.N,Net-(U102-Pad2)*
X193167000Y-73723500D03*
G04 #@! TO.P,U102,9*
G04 #@! TO.N,N/C*
X203327000Y-66103500D03*
G04 #@! TO.P,U102,3*
G04 #@! TO.N,Net-(U102-Pad2)*
X195707000Y-73723500D03*
G04 #@! TO.P,U102,10*
G04 #@! TO.N,N/C*
X200787000Y-66103500D03*
G04 #@! TO.P,U102,4*
G04 #@! TO.N,Net-(U102-Pad4)*
X198247000Y-73723500D03*
G04 #@! TO.P,U102,11*
G04 #@! TO.N,N/C*
X198247000Y-66103500D03*
G04 #@! TO.P,U102,5*
G04 #@! TO.N,Net-(U102-Pad5)*
X200787000Y-73723500D03*
G04 #@! TO.P,U102,12*
G04 #@! TO.N,N/C*
X195707000Y-66103500D03*
G04 #@! TO.P,U102,6*
G04 #@! TO.N,Net-(U102-Pad6)*
X203327000Y-73723500D03*
G04 #@! TO.P,U102,13*
G04 #@! TO.N,N/C*
X193167000Y-66103500D03*
G04 #@! TO.P,U102,7*
G04 #@! TO.N,GND*
X205867000Y-73723500D03*
G04 #@! TO.P,U102,14*
G04 #@! TO.N,+5V*
X190627000Y-66103500D03*
G04 #@! TD*
G04 #@! TO.P,U103,14*
G04 #@! TO.N,+5V*
X163004500Y-70104000D03*
G04 #@! TO.P,U103,7*
G04 #@! TO.N,GND*
X178244500Y-77724000D03*
G04 #@! TO.P,U103,13*
G04 #@! TO.N,N/C*
X165544500Y-70104000D03*
G04 #@! TO.P,U103,6*
X175704500Y-77724000D03*
G04 #@! TO.P,U103,12*
X168084500Y-70104000D03*
G04 #@! TO.P,U103,5*
G04 #@! TO.N,Net-(D101-Pad2)*
X173164500Y-77724000D03*
G04 #@! TO.P,U103,11*
G04 #@! TO.N,N/C*
X170624500Y-70104000D03*
G04 #@! TO.P,U103,4*
G04 #@! TO.N,Net-(U103-Pad4)*
X170624500Y-77724000D03*
G04 #@! TO.P,U103,10*
G04 #@! TO.N,N/C*
X173164500Y-70104000D03*
G04 #@! TO.P,U103,3*
G04 #@! TO.N,GND*
X168084500Y-77724000D03*
G04 #@! TO.P,U103,9*
G04 #@! TO.N,N/C*
X175704500Y-70104000D03*
G04 #@! TO.P,U103,2*
G04 #@! TO.N,GND*
X165544500Y-77724000D03*
G04 #@! TO.P,U103,8*
G04 #@! TO.N,N/C*
X178244500Y-70104000D03*
D18*
G04 #@! TO.P,U103,1*
G04 #@! TO.N,Net-(U102-Pad6)*
X163004500Y-77724000D03*
G04 #@! TD*
G04 #@! TO.P,U104,1*
G04 #@! TO.N,Net-(BUS101-Pad18)*
X190690500Y-99504500D03*
D19*
G04 #@! TO.P,U104,8*
G04 #@! TO.N,Net-(U104-Pad12)*
X205930500Y-91884500D03*
G04 #@! TO.P,U104,2*
G04 #@! TO.N,Net-(BUS101-Pad18)*
X193230500Y-99504500D03*
G04 #@! TO.P,U104,9*
G04 #@! TO.N,Net-(U104-Pad6)*
X203390500Y-91884500D03*
G04 #@! TO.P,U104,3*
G04 #@! TO.N,Net-(U104-Pad10)*
X195770500Y-99504500D03*
G04 #@! TO.P,U104,10*
X200850500Y-91884500D03*
G04 #@! TO.P,U104,4*
G04 #@! TO.N,Net-(BUS101-Pad38)*
X198310500Y-99504500D03*
G04 #@! TO.P,U104,11*
G04 #@! TO.N,Net-(U104-Pad11)*
X198310500Y-91884500D03*
G04 #@! TO.P,U104,5*
G04 #@! TO.N,Net-(BUS101-Pad38)*
X200850500Y-99504500D03*
G04 #@! TO.P,U104,12*
G04 #@! TO.N,Net-(U104-Pad12)*
X195770500Y-91884500D03*
G04 #@! TO.P,U104,6*
G04 #@! TO.N,Net-(U104-Pad6)*
X203390500Y-99504500D03*
G04 #@! TO.P,U104,13*
G04 #@! TO.N,Net-(U104-Pad12)*
X193230500Y-91884500D03*
G04 #@! TO.P,U104,7*
G04 #@! TO.N,GND*
X205930500Y-99504500D03*
G04 #@! TO.P,U104,14*
G04 #@! TO.N,+5V*
X190690500Y-91884500D03*
G04 #@! TD*
G04 #@! TO.P,U105,14*
G04 #@! TO.N,+5V*
X190627000Y-78994000D03*
G04 #@! TO.P,U105,7*
G04 #@! TO.N,GND*
X205867000Y-86614000D03*
G04 #@! TO.P,U105,13*
G04 #@! TO.N,Net-(R128-Pad1)*
X193167000Y-78994000D03*
G04 #@! TO.P,U105,6*
G04 #@! TO.N,N/C*
X203327000Y-86614000D03*
G04 #@! TO.P,U105,12*
G04 #@! TO.N,Net-(U104-Pad11)*
X195707000Y-78994000D03*
G04 #@! TO.P,U105,5*
G04 #@! TO.N,N/C*
X200787000Y-86614000D03*
G04 #@! TO.P,U105,11*
G04 #@! TO.N,Net-(U105-Pad11)*
X198247000Y-78994000D03*
G04 #@! TO.P,U105,4*
G04 #@! TO.N,N/C*
X198247000Y-86614000D03*
G04 #@! TO.P,U105,10*
G04 #@! TO.N,Net-(U102-Pad4)*
X200787000Y-78994000D03*
G04 #@! TO.P,U105,3*
G04 #@! TO.N,Net-(R128-Pad2)*
X195707000Y-86614000D03*
G04 #@! TO.P,U105,9*
G04 #@! TO.N,Net-(U105-Pad9)*
X203327000Y-78994000D03*
G04 #@! TO.P,U105,2*
G04 #@! TO.N,Net-(U105-Pad1)*
X193167000Y-86614000D03*
G04 #@! TO.P,U105,8*
G04 #@! TO.N,Net-(U102-Pad5)*
X205867000Y-78994000D03*
D18*
G04 #@! TO.P,U105,1*
G04 #@! TO.N,Net-(U105-Pad1)*
X190627000Y-86614000D03*
G04 #@! TD*
D25*
G04 #@! TO.N,Net-(BUS101-Pad18)*
X193294000Y-101955600D03*
X199745600Y-102514400D03*
G04 #@! TO.N,Net-(BUS101-Pad41)*
X159639000Y-130429000D03*
G04 #@! TO.N,Net-(BUS101-Pad38)*
X181483000Y-123825000D03*
G04 #@! TO.N,Net-(U103-Pad4)*
X181406800Y-91236800D03*
G04 #@! TD*
D26*
G04 #@! TO.N,Net-(BUS101-Pad2)*
X182372000Y-126619000D02*
X182372000Y-121412000D01*
X182372000Y-126619000D02*
X141859000Y-126619000D01*
X141859000Y-126619000D02*
X139268200Y-129209800D01*
X139268200Y-135839200D02*
X139268200Y-129209800D01*
X183261000Y-116967000D02*
X188214000Y-112014000D01*
X183261000Y-120523000D02*
X183261000Y-116967000D01*
X182372000Y-121412000D02*
X183261000Y-120523000D01*
G04 #@! TO.N,Net-(BUS101-Pad3)*
X182753000Y-127508000D02*
X182943500Y-127508000D01*
X182753000Y-127508000D02*
X143637000Y-127508000D01*
X143637000Y-127508000D02*
X141808200Y-129336800D01*
X141808200Y-135839200D02*
X141808200Y-129336800D01*
X189293500Y-113474500D02*
X190754000Y-112014000D01*
X187706000Y-113474500D02*
X189293500Y-113474500D01*
X183832500Y-117348000D02*
X187706000Y-113474500D01*
X183832500Y-121031000D02*
X183832500Y-117348000D01*
X183007000Y-121856500D02*
X183832500Y-121031000D01*
X183007000Y-127444500D02*
X183007000Y-121856500D01*
X182943500Y-127508000D02*
X183007000Y-127444500D01*
G04 #@! TO.N,Net-(BUS101-Pad4)*
X183134000Y-128397000D02*
X183515000Y-128397000D01*
X183134000Y-128397000D02*
X145923000Y-128397000D01*
X145923000Y-128397000D02*
X144348200Y-129971800D01*
X144348200Y-135839200D02*
X144348200Y-129971800D01*
X191262000Y-114046000D02*
X193294000Y-112014000D01*
X188023500Y-114046000D02*
X191262000Y-114046000D01*
X184467500Y-117602000D02*
X188023500Y-114046000D01*
X184467500Y-121221500D02*
X184467500Y-117602000D01*
X183705500Y-121983500D02*
X184467500Y-121221500D01*
X183705500Y-128206500D02*
X183705500Y-121983500D01*
X183515000Y-128397000D02*
X183705500Y-128206500D01*
G04 #@! TO.N,Net-(BUS101-Pad18)*
X197154800Y-113944400D02*
X194919600Y-113944400D01*
X193230500Y-101892100D02*
X193294000Y-101955600D01*
X199745600Y-102514400D02*
X199593200Y-102666800D01*
X199593200Y-102666800D02*
X199593200Y-108051600D01*
X199593200Y-108051600D02*
X197154800Y-110490000D01*
X197154800Y-110490000D02*
X197154800Y-113944400D01*
X193230500Y-99504500D02*
X193230500Y-101892100D01*
X179908200Y-131241800D02*
X179908200Y-135839200D01*
X180187600Y-130962400D02*
X179908200Y-131241800D01*
X183540400Y-130962400D02*
X180187600Y-130962400D01*
X185013600Y-129489200D02*
X183540400Y-130962400D01*
X185013600Y-122682000D02*
X185013600Y-129489200D01*
X185826400Y-121869200D02*
X185013600Y-122682000D01*
X185826400Y-118364000D02*
X185826400Y-121869200D01*
X188620400Y-115570000D02*
X185826400Y-118364000D01*
X193294000Y-115570000D02*
X188620400Y-115570000D01*
X194919600Y-113944400D02*
X193294000Y-115570000D01*
X190690500Y-99504500D02*
X193230500Y-99504500D01*
D27*
G04 #@! TO.N,Net-(BUS101-Pad25)*
X198300500Y-122936000D02*
X198300500Y-135226900D01*
X198300500Y-135226900D02*
X197688200Y-135839200D01*
X197602000Y-135753000D02*
X197688200Y-135839200D01*
D26*
G04 #@! TO.N,/D0*
X157861000Y-103124000D02*
X157861000Y-103378000D01*
G04 #@! TO.N,/D1*
X157861000Y-105664000D02*
X157861000Y-105537000D01*
G04 #@! TO.N,Net-(BUS101-Pad41)*
X183515000Y-129286000D02*
X184213500Y-129286000D01*
X175387000Y-129286000D02*
X183515000Y-129286000D01*
X193103500Y-114744500D02*
X195834000Y-112014000D01*
X188341000Y-114744500D02*
X193103500Y-114744500D01*
X185102500Y-117983000D02*
X188341000Y-114744500D01*
X185102500Y-121539000D02*
X185102500Y-117983000D01*
X184340500Y-122301000D02*
X185102500Y-121539000D01*
X184340500Y-129159000D02*
X184340500Y-122301000D01*
X184213500Y-129286000D02*
X184340500Y-129159000D01*
X175387000Y-129286000D02*
X160782000Y-129286000D01*
X160782000Y-129286000D02*
X159639000Y-130429000D01*
X175387000Y-129286000D02*
X175260000Y-129286000D01*
G04 #@! TO.N,Net-(BUS101-Pad38)*
X196655992Y-101342843D02*
X196192757Y-101342843D01*
X190296800Y-109778800D02*
X181483000Y-109778800D01*
X194564000Y-105511600D02*
X190296800Y-109778800D01*
X194564000Y-102971600D02*
X194564000Y-105511600D01*
X196192757Y-101342843D02*
X194564000Y-102971600D01*
X181483000Y-123825000D02*
X181483000Y-109778800D01*
X196655992Y-101342843D02*
X198310500Y-99504500D01*
X198310500Y-99504500D02*
X200850500Y-99504500D01*
X181483000Y-123825000D02*
X181356000Y-123698000D01*
G04 #@! TO.N,Net-(D101-Pad1)*
X140360400Y-74676000D02*
X145034000Y-74676000D01*
G04 #@! TO.N,Net-(D101-Pad2)*
X137820400Y-74676000D02*
X137820400Y-76250800D01*
X137820400Y-76250800D02*
X139242800Y-77673200D01*
X173164500Y-77724000D02*
X173164500Y-78803500D01*
X157226000Y-77673200D02*
X139242800Y-77673200D01*
X159258000Y-79705200D02*
X157226000Y-77673200D01*
X172262800Y-79705200D02*
X159258000Y-79705200D01*
X173164500Y-78803500D02*
X172262800Y-79705200D01*
G04 #@! TO.N,Net-(J101-Pad1)*
X177190400Y-93726000D02*
X175514000Y-93726000D01*
X155143200Y-94691200D02*
X155143200Y-90779600D01*
X155651200Y-95504000D02*
X155143200Y-94691200D01*
X168960800Y-95504000D02*
X155651200Y-95504000D01*
X171551600Y-92608400D02*
X168960800Y-95504000D01*
X174396400Y-92608400D02*
X171551600Y-92608400D01*
X175514000Y-93726000D02*
X174396400Y-92608400D01*
X177190400Y-92151200D02*
X177190400Y-93726000D01*
X177190400Y-93726000D02*
X177190400Y-97053400D01*
X177190400Y-97053400D02*
X178181000Y-98044000D01*
X178181000Y-98044000D02*
X178181000Y-97764600D01*
X178181000Y-101346000D02*
X178181000Y-98044000D01*
G04 #@! TO.N,Net-(R101-Pad1)*
X155194000Y-97409000D02*
X148463000Y-97409000D01*
X148463000Y-97409000D02*
X145034000Y-100838000D01*
X145034000Y-100838000D02*
X145034000Y-104140000D01*
G04 #@! TO.N,Net-(R101-Pad2)*
X157861000Y-100584000D02*
X155448000Y-100584000D01*
X155448000Y-100584000D02*
X155194000Y-100838000D01*
G04 #@! TO.N,Net-(R103-Pad2)*
X148463000Y-104140000D02*
X145034000Y-107569000D01*
X145034000Y-107569000D02*
X145034000Y-110998000D01*
X155194000Y-104140000D02*
X148463000Y-104140000D01*
G04 #@! TO.N,Net-(R104-Pad2)*
X157861000Y-108204000D02*
X155829000Y-108204000D01*
X155829000Y-108204000D02*
X155194000Y-107569000D01*
G04 #@! TO.N,Net-(R105-Pad2)*
X155194000Y-110998000D02*
X148463000Y-110998000D01*
X148463000Y-110998000D02*
X145034000Y-114427000D01*
X145034000Y-114427000D02*
X145034000Y-117856000D01*
G04 #@! TO.N,Net-(R106-Pad2)*
X155194000Y-114427000D02*
X155194000Y-113487200D01*
X155194000Y-113487200D02*
X157861000Y-110820200D01*
X157861000Y-110820200D02*
X157861000Y-110744000D01*
G04 #@! TO.N,Net-(R107-Pad2)*
X145034000Y-121285000D02*
X145034000Y-121615200D01*
X145034000Y-121615200D02*
X147218400Y-123799600D01*
X165379400Y-123799600D02*
X168021000Y-121158000D01*
X147218400Y-123799600D02*
X165379400Y-123799600D01*
X155194000Y-117856000D02*
X148463000Y-117856000D01*
X148463000Y-117856000D02*
X145034000Y-121285000D01*
G04 #@! TO.N,Net-(R108-Pad2)*
X157861000Y-118364000D02*
X157861000Y-118618000D01*
X157861000Y-118618000D02*
X155194000Y-121285000D01*
G04 #@! TO.N,Net-(R109-Pad2)*
X168021000Y-114554000D02*
X174879000Y-114554000D01*
X174879000Y-114554000D02*
X178181000Y-117856000D01*
G04 #@! TO.N,Net-(R110-Pad2)*
X165481000Y-118364000D02*
X167513000Y-118364000D01*
X167513000Y-118364000D02*
X168021000Y-117856000D01*
G04 #@! TO.N,Net-(R111-Pad2)*
X168021000Y-107950000D02*
X174879000Y-107950000D01*
X174879000Y-107950000D02*
X178181000Y-111252000D01*
X178181000Y-111252000D02*
X178181000Y-114554000D01*
G04 #@! TO.N,Net-(R112-Pad2)*
X168021000Y-111252000D02*
X165989000Y-111252000D01*
X165989000Y-111252000D02*
X165481000Y-110744000D01*
G04 #@! TO.N,Net-(R113-Pad2)*
X168021000Y-101346000D02*
X174879000Y-101346000D01*
X174879000Y-101346000D02*
X178181000Y-104648000D01*
X178181000Y-104648000D02*
X178181000Y-107950000D01*
G04 #@! TO.N,Net-(R114-Pad2)*
X165481000Y-108204000D02*
X165481000Y-107886500D01*
X165481000Y-107886500D02*
X168021000Y-105346500D01*
X168021000Y-105346500D02*
X168021000Y-104648000D01*
G04 #@! TO.N,Net-(R117-Pad2)*
X165481000Y-100584000D02*
X168021000Y-98044000D01*
G04 #@! TO.N,Net-(R120-Pad1)*
X200914000Y-112014000D02*
X200914000Y-112395000D01*
X200914000Y-112395000D02*
X202057000Y-113538000D01*
X202057000Y-113538000D02*
X204343000Y-113538000D01*
X204343000Y-113538000D02*
X205867000Y-115062000D01*
G04 #@! TO.N,Net-(R121-Pad1)*
X198374000Y-112014000D02*
X198374000Y-112903000D01*
X200533000Y-115062000D02*
X202438000Y-115062000D01*
X198374000Y-112903000D02*
X200533000Y-115062000D01*
G04 #@! TO.N,Net-(U104-Pad12)*
X195770500Y-91884500D02*
X195770500Y-92519500D01*
X195770500Y-92519500D02*
X196596000Y-93345000D01*
X205930500Y-90551000D02*
X205930500Y-91884500D01*
X205486000Y-90106500D02*
X205930500Y-90551000D01*
X200279000Y-90106500D02*
X205486000Y-90106500D01*
X199580500Y-90805000D02*
X200279000Y-90106500D01*
X199580500Y-92964000D02*
X199580500Y-90805000D01*
X199199500Y-93345000D02*
X199580500Y-92964000D01*
X196596000Y-93345000D02*
X199199500Y-93345000D01*
X193230500Y-91884500D02*
X195770500Y-91884500D01*
G04 #@! TO.N,Net-(U104-Pad10)*
X195770500Y-99504500D02*
X195770500Y-98996500D01*
X195770500Y-98996500D02*
X200850500Y-93916500D01*
X200850500Y-93916500D02*
X200850500Y-91884500D01*
G04 #@! TO.N,Net-(U104-Pad11)*
X198310500Y-91884500D02*
X198310500Y-90551000D01*
X195707000Y-77914500D02*
X195707000Y-78994000D01*
X196405500Y-77216000D02*
X195707000Y-77914500D01*
X199390000Y-77216000D02*
X196405500Y-77216000D01*
X199517000Y-77343000D02*
X199390000Y-77216000D01*
X199517000Y-89344500D02*
X199517000Y-77343000D01*
X198310500Y-90551000D02*
X199517000Y-89344500D01*
G04 #@! TO.N,Net-(U105-Pad1)*
X190627000Y-86614000D02*
X193167000Y-86614000D01*
X190754000Y-104394000D02*
X190754000Y-102920800D01*
X188772800Y-88468200D02*
X190627000Y-86614000D01*
X188772800Y-100939600D02*
X188772800Y-88468200D01*
X190754000Y-102920800D02*
X188772800Y-100939600D01*
G04 #@! TO.N,Net-(U104-Pad6)*
X203390500Y-99504500D02*
X203390500Y-91884500D01*
G04 #@! TO.N,Net-(U105-Pad11)*
X179832000Y-93091000D02*
X179832000Y-84709000D01*
X179514500Y-119507000D02*
X179832000Y-119189500D01*
X179832000Y-119189500D02*
X179832000Y-93091000D01*
X165608000Y-120904000D02*
X167005000Y-119507000D01*
X167005000Y-119507000D02*
X176720500Y-119507000D01*
X176720500Y-119507000D02*
X179514500Y-119507000D01*
X189293500Y-83756500D02*
X190373000Y-82677000D01*
X180784500Y-83756500D02*
X189293500Y-83756500D01*
X179832000Y-84709000D02*
X180784500Y-83756500D01*
X190373000Y-82677000D02*
X194564000Y-82677000D01*
X198247000Y-78994000D02*
X194564000Y-82677000D01*
X165481000Y-120904000D02*
X165608000Y-120904000D01*
G04 #@! TO.N,Net-(C101-Pad1)*
X169125900Y-91249500D02*
X169164000Y-91287600D01*
X165544500Y-91249500D02*
X169125900Y-91249500D01*
G04 #@! TO.N,Net-(C101-Pad2)*
X169085900Y-88709500D02*
X169164000Y-88787600D01*
X165544500Y-88709500D02*
X169085900Y-88709500D01*
G04 #@! TO.N,Net-(R128-Pad1)*
X193167000Y-78994000D02*
X193167000Y-77724000D01*
X192405000Y-76962000D02*
X182435500Y-76962000D01*
X193167000Y-77724000D02*
X192405000Y-76962000D01*
G04 #@! TO.N,Net-(R128-Pad2)*
X195707000Y-85598000D02*
X195707000Y-86614000D01*
X195072000Y-84963000D02*
X195707000Y-85598000D01*
X183197500Y-84963000D02*
X195072000Y-84963000D01*
X182435500Y-87122000D02*
X182435500Y-85725000D01*
X182435500Y-85725000D02*
X183197500Y-84963000D01*
G04 #@! TO.N,Net-(J103-Pad2)*
X129540000Y-93218000D02*
X129540000Y-98933000D01*
X123444000Y-105029000D02*
X123444000Y-121285000D01*
X129540000Y-98933000D02*
X123444000Y-105029000D01*
G04 #@! TO.N,Net-(J103-Pad3)*
X127000000Y-93218000D02*
X127000000Y-98552000D01*
X127000000Y-98552000D02*
X120904000Y-104648000D01*
X120904000Y-104648000D02*
X120904000Y-121285000D01*
G04 #@! TO.N,Net-(J103-Pad4)*
X127000000Y-90678000D02*
X127000000Y-90170000D01*
X127000000Y-90170000D02*
X125984000Y-89154000D01*
X125984000Y-89154000D02*
X123063000Y-89154000D01*
X123063000Y-89154000D02*
X118364000Y-93853000D01*
X118364000Y-93853000D02*
X118364000Y-121285000D01*
G04 #@! TO.N,Net-(C110-Pad1)*
X182372000Y-64262000D02*
X182372000Y-68135500D01*
X187960000Y-73723500D02*
X190627000Y-73723500D01*
X182372000Y-68135500D02*
X187960000Y-73723500D01*
X178943000Y-64262000D02*
X182372000Y-64262000D01*
G04 #@! TO.N,Net-(U102-Pad2)*
X195707000Y-73723500D02*
X193167000Y-73723500D01*
G04 #@! TO.N,Net-(U102-Pad4)*
X198247000Y-73723500D02*
X198247000Y-73939400D01*
X198247000Y-73939400D02*
X200787000Y-76479400D01*
X200787000Y-76479400D02*
X200787000Y-78994000D01*
X198247000Y-73723500D02*
X198247000Y-74041000D01*
G04 #@! TO.N,Net-(U102-Pad5)*
X200787000Y-73723500D02*
X200787000Y-74142600D01*
X200787000Y-74142600D02*
X203657200Y-77012800D01*
X203657200Y-77012800D02*
X205282800Y-77012800D01*
X205282800Y-77012800D02*
X205867000Y-77597000D01*
X205867000Y-77597000D02*
X205867000Y-78994000D01*
G04 #@! TO.N,Net-(U102-Pad6)*
X203327000Y-73723500D02*
X203327000Y-73406000D01*
X203327000Y-73406000D02*
X202120500Y-72199500D01*
X202120500Y-72199500D02*
X197548500Y-72199500D01*
X197548500Y-72199500D02*
X196977000Y-72771000D01*
X196977000Y-72771000D02*
X196977000Y-74739500D01*
X196977000Y-74739500D02*
X196088000Y-75628500D01*
X196088000Y-75628500D02*
X186626500Y-75628500D01*
X186626500Y-75628500D02*
X183261000Y-72263000D01*
X183261000Y-72263000D02*
X181102000Y-72263000D01*
X181102000Y-72263000D02*
X177863500Y-75501500D01*
X177863500Y-75501500D02*
X165227000Y-75501500D01*
X165227000Y-75501500D02*
X163004500Y-77724000D01*
G04 #@! TO.N,Net-(U103-Pad4)*
X181457600Y-103784400D02*
X181457600Y-91287600D01*
X181457600Y-103784400D02*
X181457600Y-108204000D01*
X181457600Y-108204000D02*
X181965600Y-108712000D01*
X181965600Y-108712000D02*
X188976000Y-108712000D01*
X193294000Y-104394000D02*
X188976000Y-108712000D01*
X181457600Y-91287600D02*
X181406800Y-91236800D01*
X193294000Y-104394000D02*
X193294000Y-104203500D01*
G04 #@! TO.N,Net-(U105-Pad9)*
X195834000Y-104394000D02*
X195834000Y-104203500D01*
X195834000Y-104203500D02*
X198374000Y-101663500D01*
X198374000Y-101663500D02*
X206946500Y-101663500D01*
X206946500Y-101663500D02*
X207772000Y-100838000D01*
X207772000Y-100838000D02*
X207772000Y-83439000D01*
X207772000Y-83439000D02*
X203327000Y-78994000D01*
G04 #@! TO.N,Net-(R125-Pad2)*
X157861000Y-98044000D02*
X162560000Y-98044000D01*
X171399200Y-96469200D02*
X173278800Y-94589600D01*
X164134800Y-96469200D02*
X171399200Y-96469200D01*
X162560000Y-98044000D02*
X164134800Y-96469200D01*
G04 #@! TO.N,Net-(C108-Pad2)*
X141579600Y-90728800D02*
X134112000Y-90728800D01*
X134112000Y-97028000D02*
X125857000Y-105283000D01*
X134112000Y-90728800D02*
X134112000Y-97028000D01*
X144983200Y-87426800D02*
X144983200Y-90779600D01*
X141895200Y-90779600D02*
X141833600Y-90841200D01*
X144983200Y-90779600D02*
X141895200Y-90779600D01*
X125857000Y-121539000D02*
X125857000Y-105283000D01*
X133451600Y-89281000D02*
X134112000Y-89941400D01*
X130937000Y-89281000D02*
X133451600Y-89281000D01*
X129540000Y-90678000D02*
X130937000Y-89281000D01*
X134112000Y-89941400D02*
X134112000Y-90728800D01*
G04 #@! TD*
M02*
