G04 #@! TF.GenerationSoftware,KiCad,Pcbnew,5.0.2-bee76a0~70~ubuntu18.04.1*
G04 #@! TF.CreationDate,2019-01-09T00:27:28-05:00*
G04 #@! TF.ProjectId,hvboard,6876626f-6172-4642-9e6b-696361645f70,1*
G04 #@! TF.SameCoordinates,Original*
G04 #@! TF.FileFunction,Legend,Top*
G04 #@! TF.FilePolarity,Positive*
%FSLAX46Y46*%
G04 Gerber Fmt 4.6, Leading zero omitted, Abs format (unit mm)*
G04 Created by KiCad (PCBNEW 5.0.2-bee76a0~70~ubuntu18.04.1) date Wed 09 Jan 2019 12:27:28 AM EST*
%MOMM*%
%LPD*%
G01*
G04 APERTURE LIST*
%ADD10C,0.300000*%
%ADD11C,0.120000*%
%ADD12C,0.150000*%
%ADD13C,0.127000*%
%ADD14C,0.152400*%
G04 APERTURE END LIST*
D10*
X84627285Y-121323571D02*
X84627285Y-119823571D01*
X85841571Y-120537857D02*
X86055857Y-120609285D01*
X86127285Y-120680714D01*
X86198714Y-120823571D01*
X86198714Y-121037857D01*
X86127285Y-121180714D01*
X86055857Y-121252142D01*
X85913000Y-121323571D01*
X85341571Y-121323571D01*
X85341571Y-119823571D01*
X85841571Y-119823571D01*
X85984428Y-119895000D01*
X86055857Y-119966428D01*
X86127285Y-120109285D01*
X86127285Y-120252142D01*
X86055857Y-120395000D01*
X85984428Y-120466428D01*
X85841571Y-120537857D01*
X85341571Y-120537857D01*
X86698714Y-119823571D02*
X87698714Y-121323571D01*
X87698714Y-119823571D02*
X86698714Y-121323571D01*
X89270142Y-121823571D02*
X89627285Y-121823571D01*
X89627285Y-119680714D01*
X89270142Y-119680714D01*
X90841571Y-121823571D02*
X90484428Y-121823571D01*
X90484428Y-119680714D01*
X90841571Y-119680714D01*
X92555857Y-121323571D02*
X92555857Y-119823571D01*
X92555857Y-120537857D02*
X93413000Y-120537857D01*
X93413000Y-121323571D02*
X93413000Y-119823571D01*
X93913000Y-119823571D02*
X94413000Y-121323571D01*
X94913000Y-119823571D01*
X97055857Y-120537857D02*
X97270142Y-120609285D01*
X97341571Y-120680714D01*
X97413000Y-120823571D01*
X97413000Y-121037857D01*
X97341571Y-121180714D01*
X97270142Y-121252142D01*
X97127285Y-121323571D01*
X96555857Y-121323571D01*
X96555857Y-119823571D01*
X97055857Y-119823571D01*
X97198714Y-119895000D01*
X97270142Y-119966428D01*
X97341571Y-120109285D01*
X97341571Y-120252142D01*
X97270142Y-120395000D01*
X97198714Y-120466428D01*
X97055857Y-120537857D01*
X96555857Y-120537857D01*
X98270142Y-121323571D02*
X98127285Y-121252142D01*
X98055857Y-121180714D01*
X97984428Y-121037857D01*
X97984428Y-120609285D01*
X98055857Y-120466428D01*
X98127285Y-120395000D01*
X98270142Y-120323571D01*
X98484428Y-120323571D01*
X98627285Y-120395000D01*
X98698714Y-120466428D01*
X98770142Y-120609285D01*
X98770142Y-121037857D01*
X98698714Y-121180714D01*
X98627285Y-121252142D01*
X98484428Y-121323571D01*
X98270142Y-121323571D01*
X100055857Y-121323571D02*
X100055857Y-120537857D01*
X99984428Y-120395000D01*
X99841571Y-120323571D01*
X99555857Y-120323571D01*
X99413000Y-120395000D01*
X100055857Y-121252142D02*
X99913000Y-121323571D01*
X99555857Y-121323571D01*
X99413000Y-121252142D01*
X99341571Y-121109285D01*
X99341571Y-120966428D01*
X99413000Y-120823571D01*
X99555857Y-120752142D01*
X99913000Y-120752142D01*
X100055857Y-120680714D01*
X100770142Y-121323571D02*
X100770142Y-120323571D01*
X100770142Y-120609285D02*
X100841571Y-120466428D01*
X100913000Y-120395000D01*
X101055857Y-120323571D01*
X101198714Y-120323571D01*
X102341571Y-121323571D02*
X102341571Y-119823571D01*
X102341571Y-121252142D02*
X102198714Y-121323571D01*
X101913000Y-121323571D01*
X101770142Y-121252142D01*
X101698714Y-121180714D01*
X101627285Y-121037857D01*
X101627285Y-120609285D01*
X101698714Y-120466428D01*
X101770142Y-120395000D01*
X101913000Y-120323571D01*
X102198714Y-120323571D01*
X102341571Y-120395000D01*
X105055857Y-121323571D02*
X104555857Y-120609285D01*
X104198714Y-121323571D02*
X104198714Y-119823571D01*
X104770142Y-119823571D01*
X104913000Y-119895000D01*
X104984428Y-119966428D01*
X105055857Y-120109285D01*
X105055857Y-120323571D01*
X104984428Y-120466428D01*
X104913000Y-120537857D01*
X104770142Y-120609285D01*
X104198714Y-120609285D01*
X106270142Y-121252142D02*
X106127285Y-121323571D01*
X105841571Y-121323571D01*
X105698714Y-121252142D01*
X105627285Y-121109285D01*
X105627285Y-120537857D01*
X105698714Y-120395000D01*
X105841571Y-120323571D01*
X106127285Y-120323571D01*
X106270142Y-120395000D01*
X106341571Y-120537857D01*
X106341571Y-120680714D01*
X105627285Y-120823571D01*
X106841571Y-120323571D02*
X107198714Y-121323571D01*
X107555857Y-120323571D01*
X108127285Y-121180714D02*
X108198714Y-121252142D01*
X108127285Y-121323571D01*
X108055857Y-121252142D01*
X108127285Y-121180714D01*
X108127285Y-121323571D01*
X109913000Y-119966428D02*
X109984428Y-119895000D01*
X110127285Y-119823571D01*
X110484428Y-119823571D01*
X110627285Y-119895000D01*
X110698714Y-119966428D01*
X110770142Y-120109285D01*
X110770142Y-120252142D01*
X110698714Y-120466428D01*
X109841571Y-121323571D01*
X110770142Y-121323571D01*
X88341571Y-123873571D02*
X88341571Y-122373571D01*
X88841571Y-123445000D01*
X89341571Y-122373571D01*
X89341571Y-123873571D01*
X90698714Y-123873571D02*
X90698714Y-123087857D01*
X90627285Y-122945000D01*
X90484428Y-122873571D01*
X90198714Y-122873571D01*
X90055857Y-122945000D01*
X90698714Y-123802142D02*
X90555857Y-123873571D01*
X90198714Y-123873571D01*
X90055857Y-123802142D01*
X89984428Y-123659285D01*
X89984428Y-123516428D01*
X90055857Y-123373571D01*
X90198714Y-123302142D01*
X90555857Y-123302142D01*
X90698714Y-123230714D01*
X92055857Y-123873571D02*
X92055857Y-122373571D01*
X92055857Y-123802142D02*
X91913000Y-123873571D01*
X91627285Y-123873571D01*
X91484428Y-123802142D01*
X91413000Y-123730714D01*
X91341571Y-123587857D01*
X91341571Y-123159285D01*
X91413000Y-123016428D01*
X91484428Y-122945000D01*
X91627285Y-122873571D01*
X91913000Y-122873571D01*
X92055857Y-122945000D01*
X93341571Y-123802142D02*
X93198714Y-123873571D01*
X92913000Y-123873571D01*
X92770142Y-123802142D01*
X92698714Y-123659285D01*
X92698714Y-123087857D01*
X92770142Y-122945000D01*
X92913000Y-122873571D01*
X93198714Y-122873571D01*
X93341571Y-122945000D01*
X93413000Y-123087857D01*
X93413000Y-123230714D01*
X92698714Y-123373571D01*
X95841571Y-122873571D02*
X95841571Y-123873571D01*
X95198714Y-122873571D02*
X95198714Y-123659285D01*
X95270142Y-123802142D01*
X95413000Y-123873571D01*
X95627285Y-123873571D01*
X95770142Y-123802142D01*
X95841571Y-123730714D01*
X96555857Y-122873571D02*
X96555857Y-124373571D01*
X96555857Y-122945000D02*
X96698714Y-122873571D01*
X96984428Y-122873571D01*
X97127285Y-122945000D01*
X97198714Y-123016428D01*
X97270142Y-123159285D01*
X97270142Y-123587857D01*
X97198714Y-123730714D01*
X97127285Y-123802142D01*
X96984428Y-123873571D01*
X96698714Y-123873571D01*
X96555857Y-123802142D01*
X99055857Y-123873571D02*
X99055857Y-122873571D01*
X99055857Y-122373571D02*
X98984428Y-122445000D01*
X99055857Y-122516428D01*
X99127285Y-122445000D01*
X99055857Y-122373571D01*
X99055857Y-122516428D01*
X99770142Y-122873571D02*
X99770142Y-123873571D01*
X99770142Y-123016428D02*
X99841571Y-122945000D01*
X99984428Y-122873571D01*
X100198714Y-122873571D01*
X100341571Y-122945000D01*
X100413000Y-123087857D01*
X100413000Y-123873571D01*
X102698714Y-122373571D02*
X102698714Y-123445000D01*
X102627285Y-123659285D01*
X102484428Y-123802142D01*
X102270142Y-123873571D01*
X102127285Y-123873571D01*
X103341571Y-122516428D02*
X103412999Y-122445000D01*
X103555857Y-122373571D01*
X103912999Y-122373571D01*
X104055857Y-122445000D01*
X104127285Y-122516428D01*
X104198714Y-122659285D01*
X104198714Y-122802142D01*
X104127285Y-123016428D01*
X103270142Y-123873571D01*
X104198714Y-123873571D01*
X105127285Y-122373571D02*
X105270142Y-122373571D01*
X105413000Y-122445000D01*
X105484428Y-122516428D01*
X105555857Y-122659285D01*
X105627285Y-122945000D01*
X105627285Y-123302142D01*
X105555857Y-123587857D01*
X105484428Y-123730714D01*
X105413000Y-123802142D01*
X105270142Y-123873571D01*
X105127285Y-123873571D01*
X104984428Y-123802142D01*
X104913000Y-123730714D01*
X104841571Y-123587857D01*
X104770142Y-123302142D01*
X104770142Y-122945000D01*
X104841571Y-122659285D01*
X104913000Y-122516428D01*
X104984428Y-122445000D01*
X105127285Y-122373571D01*
X106127285Y-122373571D02*
X107127285Y-122373571D01*
X106484428Y-123873571D01*
D11*
G04 #@! TO.C,D101*
X136100400Y-74675538D02*
G75*
G03X141650400Y-76220830I2990000J-462D01*
G01*
X136100400Y-74676462D02*
G75*
G02X141650400Y-73131170I2990000J462D01*
G01*
X141590400Y-74676000D02*
G75*
G03X141590400Y-74676000I-2500000J0D01*
G01*
X141650400Y-76221000D02*
X141650400Y-73131000D01*
G04 #@! TO.C,F101*
X200430500Y-116026000D02*
X200430500Y-124766000D01*
X200430500Y-116026000D02*
X196190500Y-116026000D01*
X196190500Y-124766000D02*
X200430500Y-124766000D01*
X196190500Y-124766000D02*
X196190500Y-116026000D01*
D12*
G04 #@! TO.C,U107*
X83480000Y-115278000D02*
X136480000Y-115278000D01*
X136480000Y-87278000D02*
X83480000Y-87278000D01*
X83480000Y-87278000D02*
X83480000Y-115278000D01*
X136480000Y-115278000D02*
X136480000Y-87278000D01*
D11*
G04 #@! TO.C,F103*
X139153000Y-117804000D02*
X139153000Y-126544000D01*
X139153000Y-117804000D02*
X134913000Y-117804000D01*
X134913000Y-126544000D02*
X139153000Y-126544000D01*
X134913000Y-126544000D02*
X134913000Y-117804000D01*
G04 #@! TO.C,U106*
X162671000Y-96714000D02*
G75*
G02X160671000Y-96714000I-1000000J0D01*
G01*
X160671000Y-96714000D02*
X159021000Y-96714000D01*
X159021000Y-96714000D02*
X159021000Y-122234000D01*
X159021000Y-122234000D02*
X164321000Y-122234000D01*
X164321000Y-122234000D02*
X164321000Y-96714000D01*
X164321000Y-96714000D02*
X162671000Y-96714000D01*
G04 #@! TO.C,U108*
X186884000Y-107204000D02*
G75*
G02X186884000Y-109204000I0J-1000000D01*
G01*
X186884000Y-109204000D02*
X186884000Y-110854000D01*
X186884000Y-110854000D02*
X207324000Y-110854000D01*
X207324000Y-110854000D02*
X207324000Y-105554000D01*
X207324000Y-105554000D02*
X186884000Y-105554000D01*
X186884000Y-105554000D02*
X186884000Y-107204000D01*
D12*
G04 #@! TO.C,BUS101*
X200228200Y-139649200D02*
X198958200Y-140919200D01*
X198958200Y-140919200D02*
X135458200Y-140919200D01*
X135458200Y-140919200D02*
X134188200Y-139649200D01*
X134188200Y-139649200D02*
X134188200Y-130759200D01*
X200228200Y-130759200D02*
X200228200Y-139649200D01*
D11*
G04 #@! TO.C,J101*
X175920400Y-90821200D02*
X175860400Y-90821200D01*
X175860400Y-90821200D02*
X175860400Y-93481200D01*
X175860400Y-93481200D02*
X175920400Y-93481200D01*
X175920400Y-93481200D02*
X175920400Y-90821200D01*
X177190400Y-90821200D02*
X178520400Y-90821200D01*
X178520400Y-90821200D02*
X178520400Y-92151200D01*
D12*
G04 #@! TO.C,J102*
X108613000Y-61533000D02*
X90613000Y-61533000D01*
X90613000Y-61533000D02*
X90613000Y-85533000D01*
X90613000Y-85533000D02*
X108613000Y-85533000D01*
X108613000Y-85533000D02*
G75*
G03X108613000Y-61533000I0J12000000D01*
G01*
X71613000Y-78533000D02*
X66613000Y-78533000D01*
X66613000Y-68533000D02*
X71613000Y-68533000D01*
X71613000Y-61533000D02*
X66613000Y-61533000D01*
X66613000Y-61533000D02*
X66613000Y-85533000D01*
X66613000Y-85533000D02*
X71613000Y-85533000D01*
X88613000Y-84533000D02*
X87613000Y-85533000D01*
X87613000Y-85533000D02*
X71613000Y-85533000D01*
X71613000Y-85533000D02*
X71613000Y-61533000D01*
X71613000Y-61533000D02*
X78613000Y-61533000D01*
X78613000Y-61533000D02*
X87613000Y-61533000D01*
X87613000Y-61533000D02*
X88613000Y-62533000D01*
X88613000Y-62533000D02*
X88613000Y-84533000D01*
D11*
G04 #@! TO.C,J103*
X114367000Y-120209000D02*
X114367000Y-122869000D01*
X124587000Y-120209000D02*
X114367000Y-120209000D01*
X124587000Y-122869000D02*
X114367000Y-122869000D01*
X124587000Y-120209000D02*
X124587000Y-122869000D01*
X125857000Y-120209000D02*
X127187000Y-120209000D01*
X127187000Y-120209000D02*
X127187000Y-121539000D01*
G04 #@! TO.C,C102*
X193203136Y-123520820D02*
G75*
G03X193204000Y-117485518I-1179136J3017820D01*
G01*
X190844864Y-123520820D02*
G75*
G02X190844000Y-117485518I1179136J3017820D01*
G01*
X190844864Y-123520820D02*
G75*
G03X193204000Y-123520482I1179136J3017820D01*
G01*
X195224000Y-120503000D02*
X188824000Y-120503000D01*
X195224000Y-120543000D02*
X188824000Y-120543000D01*
X195224000Y-120583000D02*
X188824000Y-120583000D01*
X195222000Y-120623000D02*
X188826000Y-120623000D01*
X195221000Y-120663000D02*
X188827000Y-120663000D01*
X195218000Y-120703000D02*
X188830000Y-120703000D01*
X195216000Y-120743000D02*
X188832000Y-120743000D01*
X195212000Y-120783000D02*
X193004000Y-120783000D01*
X191044000Y-120783000D02*
X188836000Y-120783000D01*
X195209000Y-120823000D02*
X193004000Y-120823000D01*
X191044000Y-120823000D02*
X188839000Y-120823000D01*
X195204000Y-120863000D02*
X193004000Y-120863000D01*
X191044000Y-120863000D02*
X188844000Y-120863000D01*
X195200000Y-120903000D02*
X193004000Y-120903000D01*
X191044000Y-120903000D02*
X188848000Y-120903000D01*
X195194000Y-120943000D02*
X193004000Y-120943000D01*
X191044000Y-120943000D02*
X188854000Y-120943000D01*
X195189000Y-120983000D02*
X193004000Y-120983000D01*
X191044000Y-120983000D02*
X188859000Y-120983000D01*
X195182000Y-121023000D02*
X193004000Y-121023000D01*
X191044000Y-121023000D02*
X188866000Y-121023000D01*
X195176000Y-121063000D02*
X193004000Y-121063000D01*
X191044000Y-121063000D02*
X188872000Y-121063000D01*
X195168000Y-121103000D02*
X193004000Y-121103000D01*
X191044000Y-121103000D02*
X188880000Y-121103000D01*
X195161000Y-121143000D02*
X193004000Y-121143000D01*
X191044000Y-121143000D02*
X188887000Y-121143000D01*
X195152000Y-121183000D02*
X193004000Y-121183000D01*
X191044000Y-121183000D02*
X188896000Y-121183000D01*
X195143000Y-121224000D02*
X193004000Y-121224000D01*
X191044000Y-121224000D02*
X188905000Y-121224000D01*
X195134000Y-121264000D02*
X193004000Y-121264000D01*
X191044000Y-121264000D02*
X188914000Y-121264000D01*
X195124000Y-121304000D02*
X193004000Y-121304000D01*
X191044000Y-121304000D02*
X188924000Y-121304000D01*
X195114000Y-121344000D02*
X193004000Y-121344000D01*
X191044000Y-121344000D02*
X188934000Y-121344000D01*
X195103000Y-121384000D02*
X193004000Y-121384000D01*
X191044000Y-121384000D02*
X188945000Y-121384000D01*
X195091000Y-121424000D02*
X193004000Y-121424000D01*
X191044000Y-121424000D02*
X188957000Y-121424000D01*
X195079000Y-121464000D02*
X193004000Y-121464000D01*
X191044000Y-121464000D02*
X188969000Y-121464000D01*
X195066000Y-121504000D02*
X193004000Y-121504000D01*
X191044000Y-121504000D02*
X188982000Y-121504000D01*
X195053000Y-121544000D02*
X193004000Y-121544000D01*
X191044000Y-121544000D02*
X188995000Y-121544000D01*
X195039000Y-121584000D02*
X193004000Y-121584000D01*
X191044000Y-121584000D02*
X189009000Y-121584000D01*
X195025000Y-121624000D02*
X193004000Y-121624000D01*
X191044000Y-121624000D02*
X189023000Y-121624000D01*
X195010000Y-121664000D02*
X193004000Y-121664000D01*
X191044000Y-121664000D02*
X189038000Y-121664000D01*
X194994000Y-121704000D02*
X193004000Y-121704000D01*
X191044000Y-121704000D02*
X189054000Y-121704000D01*
X194978000Y-121744000D02*
X193004000Y-121744000D01*
X191044000Y-121744000D02*
X189070000Y-121744000D01*
X194961000Y-121784000D02*
X193004000Y-121784000D01*
X191044000Y-121784000D02*
X189087000Y-121784000D01*
X194943000Y-121824000D02*
X193004000Y-121824000D01*
X191044000Y-121824000D02*
X189105000Y-121824000D01*
X194925000Y-121864000D02*
X193004000Y-121864000D01*
X191044000Y-121864000D02*
X189123000Y-121864000D01*
X194906000Y-121904000D02*
X193004000Y-121904000D01*
X191044000Y-121904000D02*
X189142000Y-121904000D01*
X194887000Y-121944000D02*
X193004000Y-121944000D01*
X191044000Y-121944000D02*
X189161000Y-121944000D01*
X194867000Y-121984000D02*
X193004000Y-121984000D01*
X191044000Y-121984000D02*
X189181000Y-121984000D01*
X194846000Y-122024000D02*
X193004000Y-122024000D01*
X191044000Y-122024000D02*
X189202000Y-122024000D01*
X194824000Y-122064000D02*
X193004000Y-122064000D01*
X191044000Y-122064000D02*
X189224000Y-122064000D01*
X194802000Y-122104000D02*
X193004000Y-122104000D01*
X191044000Y-122104000D02*
X189246000Y-122104000D01*
X194779000Y-122144000D02*
X193004000Y-122144000D01*
X191044000Y-122144000D02*
X189269000Y-122144000D01*
X194755000Y-122184000D02*
X193004000Y-122184000D01*
X191044000Y-122184000D02*
X189293000Y-122184000D01*
X194730000Y-122224000D02*
X193004000Y-122224000D01*
X191044000Y-122224000D02*
X189318000Y-122224000D01*
X194705000Y-122264000D02*
X193004000Y-122264000D01*
X191044000Y-122264000D02*
X189343000Y-122264000D01*
X194678000Y-122304000D02*
X193004000Y-122304000D01*
X191044000Y-122304000D02*
X189370000Y-122304000D01*
X194651000Y-122344000D02*
X193004000Y-122344000D01*
X191044000Y-122344000D02*
X189397000Y-122344000D01*
X194623000Y-122384000D02*
X193004000Y-122384000D01*
X191044000Y-122384000D02*
X189425000Y-122384000D01*
X194594000Y-122424000D02*
X193004000Y-122424000D01*
X191044000Y-122424000D02*
X189454000Y-122424000D01*
X194564000Y-122464000D02*
X193004000Y-122464000D01*
X191044000Y-122464000D02*
X189484000Y-122464000D01*
X194534000Y-122504000D02*
X193004000Y-122504000D01*
X191044000Y-122504000D02*
X189514000Y-122504000D01*
X194502000Y-122544000D02*
X193004000Y-122544000D01*
X191044000Y-122544000D02*
X189546000Y-122544000D01*
X194469000Y-122584000D02*
X193004000Y-122584000D01*
X191044000Y-122584000D02*
X189579000Y-122584000D01*
X194435000Y-122624000D02*
X193004000Y-122624000D01*
X191044000Y-122624000D02*
X189613000Y-122624000D01*
X194399000Y-122664000D02*
X193004000Y-122664000D01*
X191044000Y-122664000D02*
X189649000Y-122664000D01*
X194363000Y-122704000D02*
X193004000Y-122704000D01*
X191044000Y-122704000D02*
X189685000Y-122704000D01*
X194325000Y-122744000D02*
X189723000Y-122744000D01*
X194286000Y-122784000D02*
X189762000Y-122784000D01*
X194246000Y-122824000D02*
X189802000Y-122824000D01*
X194204000Y-122864000D02*
X189844000Y-122864000D01*
X194161000Y-122904000D02*
X189887000Y-122904000D01*
X194116000Y-122944000D02*
X189932000Y-122944000D01*
X194069000Y-122984000D02*
X189979000Y-122984000D01*
X194021000Y-123024000D02*
X190027000Y-123024000D01*
X193970000Y-123064000D02*
X190078000Y-123064000D01*
X193918000Y-123104000D02*
X190130000Y-123104000D01*
X193863000Y-123144000D02*
X190185000Y-123144000D01*
X193805000Y-123184000D02*
X190243000Y-123184000D01*
X193745000Y-123224000D02*
X190303000Y-123224000D01*
X193682000Y-123264000D02*
X190366000Y-123264000D01*
X193615000Y-123304000D02*
X190433000Y-123304000D01*
X193544000Y-123344000D02*
X190504000Y-123344000D01*
X193469000Y-123384000D02*
X190579000Y-123384000D01*
X193388000Y-123424000D02*
X190660000Y-123424000D01*
X193302000Y-123464000D02*
X190746000Y-123464000D01*
X193208000Y-123504000D02*
X190840000Y-123504000D01*
X193105000Y-123544000D02*
X190943000Y-123544000D01*
X192990000Y-123584000D02*
X191058000Y-123584000D01*
X192858000Y-123624000D02*
X191190000Y-123624000D01*
X192700000Y-123664000D02*
X191348000Y-123664000D01*
X192492000Y-123704000D02*
X191556000Y-123704000D01*
X192024000Y-117053000D02*
X192024000Y-118253000D01*
X192674000Y-117653000D02*
X191374000Y-117653000D01*
D12*
G04 #@! TO.C,C101*
X169164000Y-89787600D02*
X169164000Y-89587600D01*
X169714000Y-89887600D02*
X169164000Y-89887600D01*
X169164000Y-89887600D02*
X168614000Y-89887600D01*
X169714000Y-90187600D02*
X169164000Y-90187600D01*
X169164000Y-90187600D02*
X168614000Y-90187600D01*
X169164000Y-90487600D02*
X169164000Y-90287600D01*
X170509979Y-88892683D02*
G75*
G03X169914000Y-88437601I-1345980J-1144917D01*
G01*
X170499938Y-91194220D02*
G75*
G02X169914000Y-91637600I-1335938J1156620D01*
G01*
X170499938Y-91194220D02*
X170499938Y-88894220D01*
X167828062Y-91194220D02*
G75*
G03X168414000Y-91637600I1335938J1156620D01*
G01*
X167818839Y-88891722D02*
G75*
G02X168414001Y-88437601I1345161J-1145878D01*
G01*
X167814000Y-91187600D02*
X167814000Y-88887600D01*
G04 #@! TO.C,C103*
X185949600Y-68581600D02*
X185949600Y-66281600D01*
X185954439Y-66285722D02*
G75*
G02X186549601Y-65831601I1345161J-1145878D01*
G01*
X185963662Y-68588220D02*
G75*
G03X186549600Y-69031600I1335938J1156620D01*
G01*
X188635538Y-68588220D02*
X188635538Y-66288220D01*
X188635538Y-68588220D02*
G75*
G02X188049600Y-69031600I-1335938J1156620D01*
G01*
X188645579Y-66286683D02*
G75*
G03X188049600Y-65831601I-1345980J-1144917D01*
G01*
X187299600Y-67881600D02*
X187299600Y-67681600D01*
X187299600Y-67581600D02*
X186749600Y-67581600D01*
X187849600Y-67581600D02*
X187299600Y-67581600D01*
X187299600Y-67281600D02*
X186749600Y-67281600D01*
X187849600Y-67281600D02*
X187299600Y-67281600D01*
X187299600Y-67181600D02*
X187299600Y-66981600D01*
G04 #@! TO.C,C104*
X160187200Y-84170000D02*
X158267200Y-84170000D01*
X160187200Y-80930000D02*
X158267200Y-80930000D01*
X158251936Y-84159770D02*
G75*
G02X157427200Y-83100000I975264J1609770D01*
G01*
X160202464Y-84159770D02*
G75*
G03X161027200Y-83100000I-975264J1609770D01*
G01*
X160202464Y-80940230D02*
G75*
G02X161027200Y-82000000I-975264J-1609770D01*
G01*
X158251937Y-80940230D02*
G75*
G03X157427200Y-82000000I975263J-1609771D01*
G01*
X159677200Y-82550000D02*
X159477200Y-82550000D01*
X159377200Y-82550000D02*
X159377200Y-83100000D01*
X159377200Y-82000000D02*
X159377200Y-82550000D01*
X159077200Y-82550000D02*
X159077200Y-83100000D01*
X159077200Y-82000000D02*
X159077200Y-82550000D01*
X158977200Y-82550000D02*
X158777200Y-82550000D01*
G04 #@! TO.C,C105*
X159664400Y-71194800D02*
X159664400Y-70994800D01*
X160214400Y-71294800D02*
X159664400Y-71294800D01*
X159664400Y-71294800D02*
X159114400Y-71294800D01*
X160214400Y-71594800D02*
X159664400Y-71594800D01*
X159664400Y-71594800D02*
X159114400Y-71594800D01*
X159664400Y-71894800D02*
X159664400Y-71694800D01*
X161010379Y-70299883D02*
G75*
G03X160414400Y-69844801I-1345980J-1144917D01*
G01*
X161000338Y-72601420D02*
G75*
G02X160414400Y-73044800I-1335938J1156620D01*
G01*
X161000338Y-72601420D02*
X161000338Y-70301420D01*
X158328462Y-72601420D02*
G75*
G03X158914400Y-73044800I1335938J1156620D01*
G01*
X158319239Y-70298922D02*
G75*
G02X158914401Y-69844801I1345161J-1145878D01*
G01*
X158314400Y-72594800D02*
X158314400Y-70294800D01*
G04 #@! TO.C,C106*
X186000400Y-94388000D02*
X186000400Y-92088000D01*
X186005239Y-92092122D02*
G75*
G02X186600401Y-91638001I1345161J-1145878D01*
G01*
X186014462Y-94394620D02*
G75*
G03X186600400Y-94838000I1335938J1156620D01*
G01*
X188686338Y-94394620D02*
X188686338Y-92094620D01*
X188686338Y-94394620D02*
G75*
G02X188100400Y-94838000I-1335938J1156620D01*
G01*
X188696379Y-92093083D02*
G75*
G03X188100400Y-91638001I-1345980J-1144917D01*
G01*
X187350400Y-93688000D02*
X187350400Y-93488000D01*
X187350400Y-93388000D02*
X186800400Y-93388000D01*
X187900400Y-93388000D02*
X187350400Y-93388000D01*
X187350400Y-93088000D02*
X186800400Y-93088000D01*
X187900400Y-93088000D02*
X187350400Y-93088000D01*
X187350400Y-92988000D02*
X187350400Y-92788000D01*
G04 #@! TO.C,C107*
X185949600Y-81535600D02*
X185949600Y-79235600D01*
X185954439Y-79239722D02*
G75*
G02X186549601Y-78785601I1345161J-1145878D01*
G01*
X185963662Y-81542220D02*
G75*
G03X186549600Y-81985600I1335938J1156620D01*
G01*
X188635538Y-81542220D02*
X188635538Y-79242220D01*
X188635538Y-81542220D02*
G75*
G02X188049600Y-81985600I-1335938J1156620D01*
G01*
X188645579Y-79240683D02*
G75*
G03X188049600Y-78785601I-1345980J-1144917D01*
G01*
X187299600Y-80835600D02*
X187299600Y-80635600D01*
X187299600Y-80535600D02*
X186749600Y-80535600D01*
X187849600Y-80535600D02*
X187299600Y-80535600D01*
X187299600Y-80235600D02*
X186749600Y-80235600D01*
X187849600Y-80235600D02*
X187299600Y-80235600D01*
X187299600Y-80135600D02*
X187299600Y-79935600D01*
G04 #@! TO.C,C108*
X141833600Y-89841200D02*
X141833600Y-90041200D01*
X141283600Y-89741200D02*
X141833600Y-89741200D01*
X141833600Y-89741200D02*
X142383600Y-89741200D01*
X141283600Y-89441200D02*
X141833600Y-89441200D01*
X141833600Y-89441200D02*
X142383600Y-89441200D01*
X141833600Y-89141200D02*
X141833600Y-89341200D01*
X140223830Y-90566463D02*
G75*
G03X141283600Y-91391200I1609771J975263D01*
G01*
X140223830Y-88615936D02*
G75*
G02X141283600Y-87791200I1609770J-975264D01*
G01*
X143443370Y-88615936D02*
G75*
G03X142383600Y-87791200I-1609770J-975264D01*
G01*
X143443370Y-90566464D02*
G75*
G02X142383600Y-91391200I-1609770J975264D01*
G01*
X140213600Y-88631200D02*
X140213600Y-90551200D01*
X143453600Y-88631200D02*
X143453600Y-90551200D01*
G04 #@! TO.C,C109*
X182673000Y-106770500D02*
X182673000Y-104470500D01*
X182677839Y-104474622D02*
G75*
G02X183273001Y-104020501I1345161J-1145878D01*
G01*
X182687062Y-106777120D02*
G75*
G03X183273000Y-107220500I1335938J1156620D01*
G01*
X185358938Y-106777120D02*
X185358938Y-104477120D01*
X185358938Y-106777120D02*
G75*
G02X184773000Y-107220500I-1335938J1156620D01*
G01*
X185368979Y-104475583D02*
G75*
G03X184773000Y-104020501I-1345980J-1144917D01*
G01*
X184023000Y-106070500D02*
X184023000Y-105870500D01*
X184023000Y-105770500D02*
X183473000Y-105770500D01*
X184573000Y-105770500D02*
X184023000Y-105770500D01*
X184023000Y-105470500D02*
X183473000Y-105470500D01*
X184573000Y-105470500D02*
X184023000Y-105470500D01*
X184023000Y-105370500D02*
X184023000Y-105170500D01*
G04 #@! TO.C,C110*
X178943000Y-65762000D02*
X178943000Y-65962000D01*
X178393000Y-65662000D02*
X178943000Y-65662000D01*
X178943000Y-65662000D02*
X179493000Y-65662000D01*
X178393000Y-65362000D02*
X178943000Y-65362000D01*
X178943000Y-65362000D02*
X179493000Y-65362000D01*
X178943000Y-65062000D02*
X178943000Y-65262000D01*
X177597021Y-66656917D02*
G75*
G03X178193000Y-67111999I1345980J1144917D01*
G01*
X177607062Y-64355380D02*
G75*
G02X178193000Y-63912000I1335938J-1156620D01*
G01*
X177607062Y-64355380D02*
X177607062Y-66655380D01*
X180278938Y-64355380D02*
G75*
G03X179693000Y-63912000I-1335938J-1156620D01*
G01*
X180288161Y-66657878D02*
G75*
G02X179692999Y-67111999I-1345161J1145878D01*
G01*
X180293000Y-64362000D02*
X180293000Y-66662000D01*
D13*
G04 #@! TO.C,R101*
X146844000Y-99468000D02*
X153384000Y-99468000D01*
X154154000Y-100838000D02*
X153384000Y-100838000D01*
X146074000Y-100838000D02*
X146844000Y-100838000D01*
X153384000Y-102208000D02*
X153384000Y-99468000D01*
X146844000Y-102208000D02*
X153384000Y-102208000D01*
X146844000Y-99468000D02*
X146844000Y-102208000D01*
G04 #@! TO.C,R102*
X146844000Y-96039000D02*
X146844000Y-98779000D01*
X146844000Y-98779000D02*
X153384000Y-98779000D01*
X153384000Y-98779000D02*
X153384000Y-96039000D01*
X146074000Y-97409000D02*
X146844000Y-97409000D01*
X154154000Y-97409000D02*
X153384000Y-97409000D01*
X146844000Y-96039000D02*
X153384000Y-96039000D01*
G04 #@! TO.C,R103*
X146844000Y-102770000D02*
X153384000Y-102770000D01*
X154154000Y-104140000D02*
X153384000Y-104140000D01*
X146074000Y-104140000D02*
X146844000Y-104140000D01*
X153384000Y-105510000D02*
X153384000Y-102770000D01*
X146844000Y-105510000D02*
X153384000Y-105510000D01*
X146844000Y-102770000D02*
X146844000Y-105510000D01*
G04 #@! TO.C,R104*
X146844000Y-106199000D02*
X153384000Y-106199000D01*
X154154000Y-107569000D02*
X153384000Y-107569000D01*
X146074000Y-107569000D02*
X146844000Y-107569000D01*
X153384000Y-108939000D02*
X153384000Y-106199000D01*
X146844000Y-108939000D02*
X153384000Y-108939000D01*
X146844000Y-106199000D02*
X146844000Y-108939000D01*
G04 #@! TO.C,R105*
X146844000Y-109628000D02*
X146844000Y-112368000D01*
X146844000Y-112368000D02*
X153384000Y-112368000D01*
X153384000Y-112368000D02*
X153384000Y-109628000D01*
X146074000Y-110998000D02*
X146844000Y-110998000D01*
X154154000Y-110998000D02*
X153384000Y-110998000D01*
X146844000Y-109628000D02*
X153384000Y-109628000D01*
G04 #@! TO.C,R106*
X146844000Y-113057000D02*
X146844000Y-115797000D01*
X146844000Y-115797000D02*
X153384000Y-115797000D01*
X153384000Y-115797000D02*
X153384000Y-113057000D01*
X146074000Y-114427000D02*
X146844000Y-114427000D01*
X154154000Y-114427000D02*
X153384000Y-114427000D01*
X146844000Y-113057000D02*
X153384000Y-113057000D01*
G04 #@! TO.C,R107*
X146844000Y-116486000D02*
X146844000Y-119226000D01*
X146844000Y-119226000D02*
X153384000Y-119226000D01*
X153384000Y-119226000D02*
X153384000Y-116486000D01*
X146074000Y-117856000D02*
X146844000Y-117856000D01*
X154154000Y-117856000D02*
X153384000Y-117856000D01*
X146844000Y-116486000D02*
X153384000Y-116486000D01*
G04 #@! TO.C,R108*
X146844000Y-119915000D02*
X153384000Y-119915000D01*
X154154000Y-121285000D02*
X153384000Y-121285000D01*
X146074000Y-121285000D02*
X146844000Y-121285000D01*
X153384000Y-122655000D02*
X153384000Y-119915000D01*
X146844000Y-122655000D02*
X153384000Y-122655000D01*
X146844000Y-119915000D02*
X146844000Y-122655000D01*
G04 #@! TO.C,R109*
X169831000Y-119788000D02*
X169831000Y-122528000D01*
X169831000Y-122528000D02*
X176371000Y-122528000D01*
X176371000Y-122528000D02*
X176371000Y-119788000D01*
X169061000Y-121158000D02*
X169831000Y-121158000D01*
X177141000Y-121158000D02*
X176371000Y-121158000D01*
X169831000Y-119788000D02*
X176371000Y-119788000D01*
G04 #@! TO.C,R110*
X176371000Y-119226000D02*
X176371000Y-116486000D01*
X176371000Y-116486000D02*
X169831000Y-116486000D01*
X169831000Y-116486000D02*
X169831000Y-119226000D01*
X177141000Y-117856000D02*
X176371000Y-117856000D01*
X169061000Y-117856000D02*
X169831000Y-117856000D01*
X176371000Y-119226000D02*
X169831000Y-119226000D01*
G04 #@! TO.C,R111*
X169831000Y-113184000D02*
X176371000Y-113184000D01*
X177141000Y-114554000D02*
X176371000Y-114554000D01*
X169061000Y-114554000D02*
X169831000Y-114554000D01*
X176371000Y-115924000D02*
X176371000Y-113184000D01*
X169831000Y-115924000D02*
X176371000Y-115924000D01*
X169831000Y-113184000D02*
X169831000Y-115924000D01*
G04 #@! TO.C,R112*
X176371000Y-112622000D02*
X169831000Y-112622000D01*
X169061000Y-111252000D02*
X169831000Y-111252000D01*
X177141000Y-111252000D02*
X176371000Y-111252000D01*
X169831000Y-109882000D02*
X169831000Y-112622000D01*
X176371000Y-109882000D02*
X169831000Y-109882000D01*
X176371000Y-112622000D02*
X176371000Y-109882000D01*
G04 #@! TO.C,R113*
X169831000Y-106580000D02*
X169831000Y-109320000D01*
X169831000Y-109320000D02*
X176371000Y-109320000D01*
X176371000Y-109320000D02*
X176371000Y-106580000D01*
X169061000Y-107950000D02*
X169831000Y-107950000D01*
X177141000Y-107950000D02*
X176371000Y-107950000D01*
X169831000Y-106580000D02*
X176371000Y-106580000D01*
G04 #@! TO.C,R114*
X176371000Y-106018000D02*
X176371000Y-103278000D01*
X176371000Y-103278000D02*
X169831000Y-103278000D01*
X169831000Y-103278000D02*
X169831000Y-106018000D01*
X177141000Y-104648000D02*
X176371000Y-104648000D01*
X169061000Y-104648000D02*
X169831000Y-104648000D01*
X176371000Y-106018000D02*
X169831000Y-106018000D01*
G04 #@! TO.C,R115*
X169831000Y-99976000D02*
X176371000Y-99976000D01*
X177141000Y-101346000D02*
X176371000Y-101346000D01*
X169061000Y-101346000D02*
X169831000Y-101346000D01*
X176371000Y-102716000D02*
X176371000Y-99976000D01*
X169831000Y-102716000D02*
X176371000Y-102716000D01*
X169831000Y-99976000D02*
X169831000Y-102716000D01*
G04 #@! TO.C,R116*
X153434800Y-81735600D02*
X153434800Y-78995600D01*
X153434800Y-78995600D02*
X146894800Y-78995600D01*
X146894800Y-78995600D02*
X146894800Y-81735600D01*
X154204800Y-80365600D02*
X153434800Y-80365600D01*
X146124800Y-80365600D02*
X146894800Y-80365600D01*
X153434800Y-81735600D02*
X146894800Y-81735600D01*
G04 #@! TO.C,R117*
X176371000Y-99414000D02*
X169831000Y-99414000D01*
X169061000Y-98044000D02*
X169831000Y-98044000D01*
X177141000Y-98044000D02*
X176371000Y-98044000D01*
X169831000Y-96674000D02*
X169831000Y-99414000D01*
X176371000Y-96674000D02*
X169831000Y-96674000D01*
X176371000Y-99414000D02*
X176371000Y-96674000D01*
G04 #@! TO.C,R118*
X146844000Y-82602400D02*
X153384000Y-82602400D01*
X154154000Y-83972400D02*
X153384000Y-83972400D01*
X146074000Y-83972400D02*
X146844000Y-83972400D01*
X153384000Y-85342400D02*
X153384000Y-82602400D01*
X146844000Y-85342400D02*
X153384000Y-85342400D01*
X146844000Y-82602400D02*
X146844000Y-85342400D01*
G04 #@! TO.C,R119*
X153384000Y-76046000D02*
X146844000Y-76046000D01*
X146074000Y-74676000D02*
X146844000Y-74676000D01*
X154154000Y-74676000D02*
X153384000Y-74676000D01*
X146844000Y-73306000D02*
X146844000Y-76046000D01*
X153384000Y-73306000D02*
X146844000Y-73306000D01*
X153384000Y-76046000D02*
X153384000Y-73306000D01*
G04 #@! TO.C,R120*
X207237000Y-116872000D02*
X207237000Y-123412000D01*
X205867000Y-124182000D02*
X205867000Y-123412000D01*
X205867000Y-116102000D02*
X205867000Y-116872000D01*
X204497000Y-123412000D02*
X207237000Y-123412000D01*
X204497000Y-116872000D02*
X204497000Y-123412000D01*
X207237000Y-116872000D02*
X204497000Y-116872000D01*
G04 #@! TO.C,R121*
X203808000Y-116872000D02*
X201068000Y-116872000D01*
X201068000Y-116872000D02*
X201068000Y-123412000D01*
X201068000Y-123412000D02*
X203808000Y-123412000D01*
X202438000Y-116102000D02*
X202438000Y-116872000D01*
X202438000Y-124182000D02*
X202438000Y-123412000D01*
X203808000Y-116872000D02*
X203808000Y-123412000D01*
G04 #@! TO.C,R122*
X153333200Y-92149600D02*
X146793200Y-92149600D01*
X146023200Y-90779600D02*
X146793200Y-90779600D01*
X154103200Y-90779600D02*
X153333200Y-90779600D01*
X146793200Y-89409600D02*
X146793200Y-92149600D01*
X153333200Y-89409600D02*
X146793200Y-89409600D01*
X153333200Y-92149600D02*
X153333200Y-89409600D01*
G04 #@! TO.C,R123*
X183742000Y-66072000D02*
X181002000Y-66072000D01*
X181002000Y-66072000D02*
X181002000Y-72612000D01*
X181002000Y-72612000D02*
X183742000Y-72612000D01*
X182372000Y-65302000D02*
X182372000Y-66072000D01*
X182372000Y-73382000D02*
X182372000Y-72612000D01*
X183742000Y-66072000D02*
X183742000Y-72612000D01*
G04 #@! TO.C,R124*
X146793200Y-86056800D02*
X146793200Y-88796800D01*
X146793200Y-88796800D02*
X153333200Y-88796800D01*
X153333200Y-88796800D02*
X153333200Y-86056800D01*
X146023200Y-87426800D02*
X146793200Y-87426800D01*
X154103200Y-87426800D02*
X153333200Y-87426800D01*
X146793200Y-86056800D02*
X153333200Y-86056800D01*
G04 #@! TO.C,R125*
X174648800Y-86239600D02*
X171908800Y-86239600D01*
X171908800Y-86239600D02*
X171908800Y-92779600D01*
X171908800Y-92779600D02*
X174648800Y-92779600D01*
X173278800Y-85469600D02*
X173278800Y-86239600D01*
X173278800Y-93549600D02*
X173278800Y-92779600D01*
X174648800Y-86239600D02*
X174648800Y-92779600D01*
G04 #@! TO.C,R128*
X183805500Y-78772000D02*
X183805500Y-85312000D01*
X182435500Y-86082000D02*
X182435500Y-85312000D01*
X182435500Y-78002000D02*
X182435500Y-78772000D01*
X181065500Y-85312000D02*
X183805500Y-85312000D01*
X181065500Y-78772000D02*
X181065500Y-85312000D01*
X183805500Y-78772000D02*
X181065500Y-78772000D01*
D11*
G04 #@! TO.C,U101*
X162734500Y-84839500D02*
G75*
G02X160734500Y-84839500I-1000000J0D01*
G01*
X160734500Y-84839500D02*
X159084500Y-84839500D01*
X159084500Y-84839500D02*
X159084500Y-95119500D01*
X159084500Y-95119500D02*
X164384500Y-95119500D01*
X164384500Y-95119500D02*
X164384500Y-84839500D01*
X164384500Y-84839500D02*
X162734500Y-84839500D01*
X156594500Y-84779500D02*
X156594500Y-95179500D01*
X156594500Y-95179500D02*
X166874500Y-95179500D01*
X166874500Y-95179500D02*
X166874500Y-84779500D01*
X166874500Y-84779500D02*
X156594500Y-84779500D01*
G04 #@! TO.C,U102*
X189297000Y-68913500D02*
G75*
G02X189297000Y-70913500I0J-1000000D01*
G01*
X189297000Y-70913500D02*
X189297000Y-72563500D01*
X189297000Y-72563500D02*
X207197000Y-72563500D01*
X207197000Y-72563500D02*
X207197000Y-67263500D01*
X207197000Y-67263500D02*
X189297000Y-67263500D01*
X189297000Y-67263500D02*
X189297000Y-68913500D01*
X189237000Y-75053500D02*
X207257000Y-75053500D01*
X207257000Y-75053500D02*
X207257000Y-64773500D01*
X207257000Y-64773500D02*
X189237000Y-64773500D01*
X189237000Y-64773500D02*
X189237000Y-75053500D01*
G04 #@! TO.C,U103*
X161614500Y-68774000D02*
X161614500Y-79054000D01*
X179634500Y-68774000D02*
X161614500Y-68774000D01*
X179634500Y-79054000D02*
X179634500Y-68774000D01*
X161614500Y-79054000D02*
X179634500Y-79054000D01*
X161674500Y-71264000D02*
X161674500Y-72914000D01*
X179574500Y-71264000D02*
X161674500Y-71264000D01*
X179574500Y-76564000D02*
X179574500Y-71264000D01*
X161674500Y-76564000D02*
X179574500Y-76564000D01*
X161674500Y-74914000D02*
X161674500Y-76564000D01*
X161674500Y-72914000D02*
G75*
G02X161674500Y-74914000I0J-1000000D01*
G01*
G04 #@! TO.C,U104*
X189360500Y-94694500D02*
G75*
G02X189360500Y-96694500I0J-1000000D01*
G01*
X189360500Y-96694500D02*
X189360500Y-98344500D01*
X189360500Y-98344500D02*
X207260500Y-98344500D01*
X207260500Y-98344500D02*
X207260500Y-93044500D01*
X207260500Y-93044500D02*
X189360500Y-93044500D01*
X189360500Y-93044500D02*
X189360500Y-94694500D01*
X189300500Y-100834500D02*
X207320500Y-100834500D01*
X207320500Y-100834500D02*
X207320500Y-90554500D01*
X207320500Y-90554500D02*
X189300500Y-90554500D01*
X189300500Y-90554500D02*
X189300500Y-100834500D01*
G04 #@! TO.C,U105*
X189237000Y-77664000D02*
X189237000Y-87944000D01*
X207257000Y-77664000D02*
X189237000Y-77664000D01*
X207257000Y-87944000D02*
X207257000Y-77664000D01*
X189237000Y-87944000D02*
X207257000Y-87944000D01*
X189297000Y-80154000D02*
X189297000Y-81804000D01*
X207197000Y-80154000D02*
X189297000Y-80154000D01*
X207197000Y-85454000D02*
X207197000Y-80154000D01*
X189297000Y-85454000D02*
X207197000Y-85454000D01*
X189297000Y-83804000D02*
X189297000Y-85454000D01*
X189297000Y-81804000D02*
G75*
G02X189297000Y-83804000I0J-1000000D01*
G01*
G04 #@! TO.C,D101*
D12*
X137399923Y-79088380D02*
X137399923Y-78088380D01*
X137638019Y-78088380D01*
X137780876Y-78136000D01*
X137876114Y-78231238D01*
X137923733Y-78326476D01*
X137971352Y-78516952D01*
X137971352Y-78659809D01*
X137923733Y-78850285D01*
X137876114Y-78945523D01*
X137780876Y-79040761D01*
X137638019Y-79088380D01*
X137399923Y-79088380D01*
X138923733Y-79088380D02*
X138352304Y-79088380D01*
X138638019Y-79088380D02*
X138638019Y-78088380D01*
X138542780Y-78231238D01*
X138447542Y-78326476D01*
X138352304Y-78374095D01*
X139542780Y-78088380D02*
X139638019Y-78088380D01*
X139733257Y-78136000D01*
X139780876Y-78183619D01*
X139828495Y-78278857D01*
X139876114Y-78469333D01*
X139876114Y-78707428D01*
X139828495Y-78897904D01*
X139780876Y-78993142D01*
X139733257Y-79040761D01*
X139638019Y-79088380D01*
X139542780Y-79088380D01*
X139447542Y-79040761D01*
X139399923Y-78993142D01*
X139352304Y-78897904D01*
X139304685Y-78707428D01*
X139304685Y-78469333D01*
X139352304Y-78278857D01*
X139399923Y-78183619D01*
X139447542Y-78136000D01*
X139542780Y-78088380D01*
X140828495Y-79088380D02*
X140257066Y-79088380D01*
X140542780Y-79088380D02*
X140542780Y-78088380D01*
X140447542Y-78231238D01*
X140352304Y-78326476D01*
X140257066Y-78374095D01*
G04 #@! TO.C,F101*
X197291485Y-125861771D02*
X196958152Y-125861771D01*
X196958152Y-126385580D02*
X196958152Y-125385580D01*
X197434342Y-125385580D01*
X198339104Y-126385580D02*
X197767676Y-126385580D01*
X198053390Y-126385580D02*
X198053390Y-125385580D01*
X197958152Y-125528438D01*
X197862914Y-125623676D01*
X197767676Y-125671295D01*
X198958152Y-125385580D02*
X199053390Y-125385580D01*
X199148628Y-125433200D01*
X199196247Y-125480819D01*
X199243866Y-125576057D01*
X199291485Y-125766533D01*
X199291485Y-126004628D01*
X199243866Y-126195104D01*
X199196247Y-126290342D01*
X199148628Y-126337961D01*
X199053390Y-126385580D01*
X198958152Y-126385580D01*
X198862914Y-126337961D01*
X198815295Y-126290342D01*
X198767676Y-126195104D01*
X198720057Y-126004628D01*
X198720057Y-125766533D01*
X198767676Y-125576057D01*
X198815295Y-125480819D01*
X198862914Y-125433200D01*
X198958152Y-125385580D01*
X200243866Y-126385580D02*
X199672438Y-126385580D01*
X199958152Y-126385580D02*
X199958152Y-125385580D01*
X199862914Y-125528438D01*
X199767676Y-125623676D01*
X199672438Y-125671295D01*
G04 #@! TO.C,U107*
X89052828Y-88947761D02*
X89052828Y-90566809D01*
X89148066Y-90757285D01*
X89243304Y-90852523D01*
X89433780Y-90947761D01*
X89814733Y-90947761D01*
X90005209Y-90852523D01*
X90100447Y-90757285D01*
X90195685Y-90566809D01*
X90195685Y-88947761D01*
X92195685Y-90947761D02*
X91052828Y-90947761D01*
X91624257Y-90947761D02*
X91624257Y-88947761D01*
X91433780Y-89233476D01*
X91243304Y-89423952D01*
X91052828Y-89519190D01*
X93433780Y-88947761D02*
X93624257Y-88947761D01*
X93814733Y-89043000D01*
X93909971Y-89138238D01*
X94005209Y-89328714D01*
X94100447Y-89709666D01*
X94100447Y-90185857D01*
X94005209Y-90566809D01*
X93909971Y-90757285D01*
X93814733Y-90852523D01*
X93624257Y-90947761D01*
X93433780Y-90947761D01*
X93243304Y-90852523D01*
X93148066Y-90757285D01*
X93052828Y-90566809D01*
X92957590Y-90185857D01*
X92957590Y-89709666D01*
X93052828Y-89328714D01*
X93148066Y-89138238D01*
X93243304Y-89043000D01*
X93433780Y-88947761D01*
X94767114Y-88947761D02*
X96100447Y-88947761D01*
X95243304Y-90947761D01*
X94716885Y-109443780D02*
X94716885Y-108443780D01*
X94716885Y-108919971D02*
X95288314Y-108919971D01*
X95288314Y-109443780D02*
X95288314Y-108443780D01*
X95621647Y-108443780D02*
X95954980Y-109443780D01*
X96288314Y-108443780D01*
X97383552Y-109443780D02*
X97383552Y-108443780D01*
X97764504Y-108443780D01*
X97859742Y-108491400D01*
X97907361Y-108539019D01*
X97954980Y-108634257D01*
X97954980Y-108777114D01*
X97907361Y-108872352D01*
X97859742Y-108919971D01*
X97764504Y-108967590D01*
X97383552Y-108967590D01*
X98383552Y-109443780D02*
X98383552Y-108777114D01*
X98383552Y-108443780D02*
X98335933Y-108491400D01*
X98383552Y-108539019D01*
X98431171Y-108491400D01*
X98383552Y-108443780D01*
X98383552Y-108539019D01*
X98859742Y-108777114D02*
X98859742Y-109443780D01*
X98859742Y-108872352D02*
X98907361Y-108824733D01*
X99002600Y-108777114D01*
X99145457Y-108777114D01*
X99240695Y-108824733D01*
X99288314Y-108919971D01*
X99288314Y-109443780D01*
G04 #@! TO.C,F103*
X139911571Y-123569714D02*
X139911571Y-123903047D01*
X140435380Y-123903047D02*
X139435380Y-123903047D01*
X139435380Y-123426857D01*
X140435380Y-122522095D02*
X140435380Y-123093523D01*
X140435380Y-122807809D02*
X139435380Y-122807809D01*
X139578238Y-122903047D01*
X139673476Y-122998285D01*
X139721095Y-123093523D01*
X139435380Y-121903047D02*
X139435380Y-121807809D01*
X139483000Y-121712571D01*
X139530619Y-121664952D01*
X139625857Y-121617333D01*
X139816333Y-121569714D01*
X140054428Y-121569714D01*
X140244904Y-121617333D01*
X140340142Y-121664952D01*
X140387761Y-121712571D01*
X140435380Y-121807809D01*
X140435380Y-121903047D01*
X140387761Y-121998285D01*
X140340142Y-122045904D01*
X140244904Y-122093523D01*
X140054428Y-122141142D01*
X139816333Y-122141142D01*
X139625857Y-122093523D01*
X139530619Y-122045904D01*
X139483000Y-121998285D01*
X139435380Y-121903047D01*
X139435380Y-121236380D02*
X139435380Y-120617333D01*
X139816333Y-120950666D01*
X139816333Y-120807809D01*
X139863952Y-120712571D01*
X139911571Y-120664952D01*
X140006809Y-120617333D01*
X140244904Y-120617333D01*
X140340142Y-120664952D01*
X140387761Y-120712571D01*
X140435380Y-120807809D01*
X140435380Y-121093523D01*
X140387761Y-121188761D01*
X140340142Y-121236380D01*
G04 #@! TO.C,U106*
X159778914Y-122769380D02*
X159778914Y-123578904D01*
X159826533Y-123674142D01*
X159874152Y-123721761D01*
X159969390Y-123769380D01*
X160159866Y-123769380D01*
X160255104Y-123721761D01*
X160302723Y-123674142D01*
X160350342Y-123578904D01*
X160350342Y-122769380D01*
X161350342Y-123769380D02*
X160778914Y-123769380D01*
X161064628Y-123769380D02*
X161064628Y-122769380D01*
X160969390Y-122912238D01*
X160874152Y-123007476D01*
X160778914Y-123055095D01*
X161969390Y-122769380D02*
X162064628Y-122769380D01*
X162159866Y-122817000D01*
X162207485Y-122864619D01*
X162255104Y-122959857D01*
X162302723Y-123150333D01*
X162302723Y-123388428D01*
X162255104Y-123578904D01*
X162207485Y-123674142D01*
X162159866Y-123721761D01*
X162064628Y-123769380D01*
X161969390Y-123769380D01*
X161874152Y-123721761D01*
X161826533Y-123674142D01*
X161778914Y-123578904D01*
X161731295Y-123388428D01*
X161731295Y-123150333D01*
X161778914Y-122959857D01*
X161826533Y-122864619D01*
X161874152Y-122817000D01*
X161969390Y-122769380D01*
X163159866Y-122769380D02*
X162969390Y-122769380D01*
X162874152Y-122817000D01*
X162826533Y-122864619D01*
X162731295Y-123007476D01*
X162683676Y-123197952D01*
X162683676Y-123578904D01*
X162731295Y-123674142D01*
X162778914Y-123721761D01*
X162874152Y-123769380D01*
X163064628Y-123769380D01*
X163159866Y-123721761D01*
X163207485Y-123674142D01*
X163255104Y-123578904D01*
X163255104Y-123340809D01*
X163207485Y-123245571D01*
X163159866Y-123197952D01*
X163064628Y-123150333D01*
X162874152Y-123150333D01*
X162778914Y-123197952D01*
X162731295Y-123245571D01*
X162683676Y-123340809D01*
X161097980Y-112770847D02*
X161097980Y-112104180D01*
X162097980Y-112532752D01*
X161431314Y-111294657D02*
X162097980Y-111294657D01*
X161050361Y-111532752D02*
X161764647Y-111770847D01*
X161764647Y-111151800D01*
X162097980Y-110294657D02*
X162097980Y-110770847D01*
X161097980Y-110770847D01*
X162050361Y-110008942D02*
X162097980Y-109866085D01*
X162097980Y-109627990D01*
X162050361Y-109532752D01*
X162002742Y-109485133D01*
X161907504Y-109437514D01*
X161812266Y-109437514D01*
X161717028Y-109485133D01*
X161669409Y-109532752D01*
X161621790Y-109627990D01*
X161574171Y-109818466D01*
X161526552Y-109913704D01*
X161478933Y-109961323D01*
X161383695Y-110008942D01*
X161288457Y-110008942D01*
X161193219Y-109961323D01*
X161145600Y-109913704D01*
X161097980Y-109818466D01*
X161097980Y-109580371D01*
X161145600Y-109437514D01*
X161097980Y-109104180D02*
X161097980Y-108485133D01*
X161478933Y-108818466D01*
X161478933Y-108675609D01*
X161526552Y-108580371D01*
X161574171Y-108532752D01*
X161669409Y-108485133D01*
X161907504Y-108485133D01*
X162002742Y-108532752D01*
X162050361Y-108580371D01*
X162097980Y-108675609D01*
X162097980Y-108961323D01*
X162050361Y-109056561D01*
X162002742Y-109104180D01*
X161097980Y-108151800D02*
X161097980Y-107485133D01*
X162097980Y-107913704D01*
X161431314Y-106675609D02*
X162097980Y-106675609D01*
X161050361Y-106913704D02*
X161764647Y-107151800D01*
X161764647Y-106532752D01*
G04 #@! TO.C,U108*
X207833980Y-109867485D02*
X208643504Y-109867485D01*
X208738742Y-109819866D01*
X208786361Y-109772247D01*
X208833980Y-109677009D01*
X208833980Y-109486533D01*
X208786361Y-109391295D01*
X208738742Y-109343676D01*
X208643504Y-109296057D01*
X207833980Y-109296057D01*
X208833980Y-108296057D02*
X208833980Y-108867485D01*
X208833980Y-108581771D02*
X207833980Y-108581771D01*
X207976838Y-108677009D01*
X208072076Y-108772247D01*
X208119695Y-108867485D01*
X207833980Y-107677009D02*
X207833980Y-107581771D01*
X207881600Y-107486533D01*
X207929219Y-107438914D01*
X208024457Y-107391295D01*
X208214933Y-107343676D01*
X208453028Y-107343676D01*
X208643504Y-107391295D01*
X208738742Y-107438914D01*
X208786361Y-107486533D01*
X208833980Y-107581771D01*
X208833980Y-107677009D01*
X208786361Y-107772247D01*
X208738742Y-107819866D01*
X208643504Y-107867485D01*
X208453028Y-107915104D01*
X208214933Y-107915104D01*
X208024457Y-107867485D01*
X207929219Y-107819866D01*
X207881600Y-107772247D01*
X207833980Y-107677009D01*
X208262552Y-106772247D02*
X208214933Y-106867485D01*
X208167314Y-106915104D01*
X208072076Y-106962723D01*
X208024457Y-106962723D01*
X207929219Y-106915104D01*
X207881600Y-106867485D01*
X207833980Y-106772247D01*
X207833980Y-106581771D01*
X207881600Y-106486533D01*
X207929219Y-106438914D01*
X208024457Y-106391295D01*
X208072076Y-106391295D01*
X208167314Y-106438914D01*
X208214933Y-106486533D01*
X208262552Y-106581771D01*
X208262552Y-106772247D01*
X208310171Y-106867485D01*
X208357790Y-106915104D01*
X208453028Y-106962723D01*
X208643504Y-106962723D01*
X208738742Y-106915104D01*
X208786361Y-106867485D01*
X208833980Y-106772247D01*
X208833980Y-106581771D01*
X208786361Y-106486533D01*
X208738742Y-106438914D01*
X208643504Y-106391295D01*
X208453028Y-106391295D01*
X208357790Y-106438914D01*
X208310171Y-106486533D01*
X208262552Y-106581771D01*
X193664342Y-107808780D02*
X194331009Y-107808780D01*
X193902438Y-108808780D01*
X195140533Y-108142114D02*
X195140533Y-108808780D01*
X194902438Y-107761161D02*
X194664342Y-108475447D01*
X195283390Y-108475447D01*
X195664342Y-108808780D02*
X195664342Y-107808780D01*
X195664342Y-108284971D02*
X196235771Y-108284971D01*
X196235771Y-108808780D02*
X196235771Y-107808780D01*
X197283390Y-108713542D02*
X197235771Y-108761161D01*
X197092914Y-108808780D01*
X196997676Y-108808780D01*
X196854819Y-108761161D01*
X196759580Y-108665923D01*
X196711961Y-108570685D01*
X196664342Y-108380209D01*
X196664342Y-108237352D01*
X196711961Y-108046876D01*
X196759580Y-107951638D01*
X196854819Y-107856400D01*
X196997676Y-107808780D01*
X197092914Y-107808780D01*
X197235771Y-107856400D01*
X197283390Y-107904019D01*
X197569104Y-107808780D02*
X198140533Y-107808780D01*
X197854819Y-108808780D02*
X197854819Y-107808780D01*
X198997676Y-108808780D02*
X198426247Y-108808780D01*
X198711961Y-108808780D02*
X198711961Y-107808780D01*
X198616723Y-107951638D01*
X198521485Y-108046876D01*
X198426247Y-108094495D01*
X199331009Y-107808780D02*
X199950057Y-107808780D01*
X199616723Y-108189733D01*
X199759580Y-108189733D01*
X199854819Y-108237352D01*
X199902438Y-108284971D01*
X199950057Y-108380209D01*
X199950057Y-108618304D01*
X199902438Y-108713542D01*
X199854819Y-108761161D01*
X199759580Y-108808780D01*
X199473866Y-108808780D01*
X199378628Y-108761161D01*
X199331009Y-108713542D01*
X200521485Y-108237352D02*
X200426247Y-108189733D01*
X200378628Y-108142114D01*
X200331009Y-108046876D01*
X200331009Y-107999257D01*
X200378628Y-107904019D01*
X200426247Y-107856400D01*
X200521485Y-107808780D01*
X200711961Y-107808780D01*
X200807200Y-107856400D01*
X200854819Y-107904019D01*
X200902438Y-107999257D01*
X200902438Y-108046876D01*
X200854819Y-108142114D01*
X200807200Y-108189733D01*
X200711961Y-108237352D01*
X200521485Y-108237352D01*
X200426247Y-108284971D01*
X200378628Y-108332590D01*
X200331009Y-108427828D01*
X200331009Y-108618304D01*
X200378628Y-108713542D01*
X200426247Y-108761161D01*
X200521485Y-108808780D01*
X200711961Y-108808780D01*
X200807200Y-108761161D01*
X200854819Y-108713542D01*
X200902438Y-108618304D01*
X200902438Y-108427828D01*
X200854819Y-108332590D01*
X200807200Y-108284971D01*
X200711961Y-108237352D01*
G04 #@! TO.C,J101*
X180182780Y-95421057D02*
X179182780Y-95421057D01*
X179182780Y-95182961D01*
X179230400Y-95040104D01*
X179325638Y-94944866D01*
X179420876Y-94897247D01*
X179611352Y-94849628D01*
X179754209Y-94849628D01*
X179944685Y-94897247D01*
X180039923Y-94944866D01*
X180135161Y-95040104D01*
X180182780Y-95182961D01*
X180182780Y-95421057D01*
X180135161Y-94040104D02*
X180182780Y-94135342D01*
X180182780Y-94325819D01*
X180135161Y-94421057D01*
X180039923Y-94468676D01*
X179658971Y-94468676D01*
X179563733Y-94421057D01*
X179516114Y-94325819D01*
X179516114Y-94135342D01*
X179563733Y-94040104D01*
X179658971Y-93992485D01*
X179754209Y-93992485D01*
X179849447Y-94468676D01*
X180182780Y-93563914D02*
X179182780Y-93563914D01*
X179563733Y-93563914D02*
X179516114Y-93468676D01*
X179516114Y-93278200D01*
X179563733Y-93182961D01*
X179611352Y-93135342D01*
X179706590Y-93087723D01*
X179992304Y-93087723D01*
X180087542Y-93135342D01*
X180135161Y-93182961D01*
X180182780Y-93278200D01*
X180182780Y-93468676D01*
X180135161Y-93563914D01*
X179516114Y-92230580D02*
X180182780Y-92230580D01*
X179516114Y-92659152D02*
X180039923Y-92659152D01*
X180135161Y-92611533D01*
X180182780Y-92516295D01*
X180182780Y-92373438D01*
X180135161Y-92278200D01*
X180087542Y-92230580D01*
X179516114Y-91325819D02*
X180325638Y-91325819D01*
X180420876Y-91373438D01*
X180468495Y-91421057D01*
X180516114Y-91516295D01*
X180516114Y-91659152D01*
X180468495Y-91754390D01*
X180135161Y-91325819D02*
X180182780Y-91421057D01*
X180182780Y-91611533D01*
X180135161Y-91706771D01*
X180087542Y-91754390D01*
X179992304Y-91802009D01*
X179706590Y-91802009D01*
X179611352Y-91754390D01*
X179563733Y-91706771D01*
X179516114Y-91611533D01*
X179516114Y-91421057D01*
X179563733Y-91325819D01*
X179801828Y-90849628D02*
X179801828Y-90087723D01*
X180182780Y-89087723D02*
X180182780Y-89659152D01*
X180182780Y-89373438D02*
X179182780Y-89373438D01*
X179325638Y-89468676D01*
X179420876Y-89563914D01*
X179468495Y-89659152D01*
G04 #@! TO.C,J102*
X83327285Y-78985380D02*
X83327285Y-79699666D01*
X83279666Y-79842523D01*
X83184428Y-79937761D01*
X83041571Y-79985380D01*
X82946333Y-79985380D01*
X84327285Y-79985380D02*
X83755857Y-79985380D01*
X84041571Y-79985380D02*
X84041571Y-78985380D01*
X83946333Y-79128238D01*
X83851095Y-79223476D01*
X83755857Y-79271095D01*
X84946333Y-78985380D02*
X85041571Y-78985380D01*
X85136809Y-79033000D01*
X85184428Y-79080619D01*
X85232047Y-79175857D01*
X85279666Y-79366333D01*
X85279666Y-79604428D01*
X85232047Y-79794904D01*
X85184428Y-79890142D01*
X85136809Y-79937761D01*
X85041571Y-79985380D01*
X84946333Y-79985380D01*
X84851095Y-79937761D01*
X84803476Y-79890142D01*
X84755857Y-79794904D01*
X84708238Y-79604428D01*
X84708238Y-79366333D01*
X84755857Y-79175857D01*
X84803476Y-79080619D01*
X84851095Y-79033000D01*
X84946333Y-78985380D01*
X85660619Y-79080619D02*
X85708238Y-79033000D01*
X85803476Y-78985380D01*
X86041571Y-78985380D01*
X86136809Y-79033000D01*
X86184428Y-79080619D01*
X86232047Y-79175857D01*
X86232047Y-79271095D01*
X86184428Y-79413952D01*
X85613000Y-79985380D01*
X86232047Y-79985380D01*
X75993952Y-93289380D02*
X75993952Y-92289380D01*
X75993952Y-92765571D02*
X76565380Y-92765571D01*
X76565380Y-93289380D02*
X76565380Y-92289380D01*
X76898714Y-92289380D02*
X77232047Y-93289380D01*
X77565380Y-92289380D01*
X79184428Y-92337000D02*
X79089190Y-92289380D01*
X78946333Y-92289380D01*
X78803476Y-92337000D01*
X78708238Y-92432238D01*
X78660619Y-92527476D01*
X78613000Y-92717952D01*
X78613000Y-92860809D01*
X78660619Y-93051285D01*
X78708238Y-93146523D01*
X78803476Y-93241761D01*
X78946333Y-93289380D01*
X79041571Y-93289380D01*
X79184428Y-93241761D01*
X79232047Y-93194142D01*
X79232047Y-92860809D01*
X79041571Y-92860809D01*
X79660619Y-93289380D02*
X79660619Y-92289380D01*
X80232047Y-93289380D01*
X80232047Y-92289380D01*
X80708238Y-93289380D02*
X80708238Y-92289380D01*
X80946333Y-92289380D01*
X81089190Y-92337000D01*
X81184428Y-92432238D01*
X81232047Y-92527476D01*
X81279666Y-92717952D01*
X81279666Y-92860809D01*
X81232047Y-93051285D01*
X81184428Y-93146523D01*
X81089190Y-93241761D01*
X80946333Y-93289380D01*
X80708238Y-93289380D01*
G04 #@! TO.C,J103*
X127639380Y-122824714D02*
X128353666Y-122824714D01*
X128496523Y-122872333D01*
X128591761Y-122967571D01*
X128639380Y-123110428D01*
X128639380Y-123205666D01*
X128639380Y-121824714D02*
X128639380Y-122396142D01*
X128639380Y-122110428D02*
X127639380Y-122110428D01*
X127782238Y-122205666D01*
X127877476Y-122300904D01*
X127925095Y-122396142D01*
X127639380Y-121205666D02*
X127639380Y-121110428D01*
X127687000Y-121015190D01*
X127734619Y-120967571D01*
X127829857Y-120919952D01*
X128020333Y-120872333D01*
X128258428Y-120872333D01*
X128448904Y-120919952D01*
X128544142Y-120967571D01*
X128591761Y-121015190D01*
X128639380Y-121110428D01*
X128639380Y-121205666D01*
X128591761Y-121300904D01*
X128544142Y-121348523D01*
X128448904Y-121396142D01*
X128258428Y-121443761D01*
X128020333Y-121443761D01*
X127829857Y-121396142D01*
X127734619Y-121348523D01*
X127687000Y-121300904D01*
X127639380Y-121205666D01*
X127639380Y-120539000D02*
X127639380Y-119919952D01*
X128020333Y-120253285D01*
X128020333Y-120110428D01*
X128067952Y-120015190D01*
X128115571Y-119967571D01*
X128210809Y-119919952D01*
X128448904Y-119919952D01*
X128544142Y-119967571D01*
X128591761Y-120015190D01*
X128639380Y-120110428D01*
X128639380Y-120396142D01*
X128591761Y-120491380D01*
X128544142Y-120539000D01*
X118116742Y-124810780D02*
X118116742Y-123810780D01*
X118354838Y-123810780D01*
X118497695Y-123858400D01*
X118592933Y-123953638D01*
X118640552Y-124048876D01*
X118688171Y-124239352D01*
X118688171Y-124382209D01*
X118640552Y-124572685D01*
X118592933Y-124667923D01*
X118497695Y-124763161D01*
X118354838Y-124810780D01*
X118116742Y-124810780D01*
X119497695Y-124763161D02*
X119402457Y-124810780D01*
X119211980Y-124810780D01*
X119116742Y-124763161D01*
X119069123Y-124667923D01*
X119069123Y-124286971D01*
X119116742Y-124191733D01*
X119211980Y-124144114D01*
X119402457Y-124144114D01*
X119497695Y-124191733D01*
X119545314Y-124286971D01*
X119545314Y-124382209D01*
X119069123Y-124477447D01*
X119973885Y-124810780D02*
X119973885Y-123810780D01*
X119973885Y-124191733D02*
X120069123Y-124144114D01*
X120259600Y-124144114D01*
X120354838Y-124191733D01*
X120402457Y-124239352D01*
X120450076Y-124334590D01*
X120450076Y-124620304D01*
X120402457Y-124715542D01*
X120354838Y-124763161D01*
X120259600Y-124810780D01*
X120069123Y-124810780D01*
X119973885Y-124763161D01*
X121307219Y-124144114D02*
X121307219Y-124810780D01*
X120878647Y-124144114D02*
X120878647Y-124667923D01*
X120926266Y-124763161D01*
X121021504Y-124810780D01*
X121164361Y-124810780D01*
X121259599Y-124763161D01*
X121307219Y-124715542D01*
X122211980Y-124144114D02*
X122211980Y-124953638D01*
X122164361Y-125048876D01*
X122116742Y-125096495D01*
X122021504Y-125144114D01*
X121878647Y-125144114D01*
X121783409Y-125096495D01*
X122211980Y-124763161D02*
X122116742Y-124810780D01*
X121926266Y-124810780D01*
X121831028Y-124763161D01*
X121783409Y-124715542D01*
X121735790Y-124620304D01*
X121735790Y-124334590D01*
X121783409Y-124239352D01*
X121831028Y-124191733D01*
X121926266Y-124144114D01*
X122116742Y-124144114D01*
X122211980Y-124191733D01*
X122688171Y-124429828D02*
X123450076Y-124429828D01*
X123878647Y-123906019D02*
X123926266Y-123858400D01*
X124021504Y-123810780D01*
X124259600Y-123810780D01*
X124354838Y-123858400D01*
X124402457Y-123906019D01*
X124450076Y-124001257D01*
X124450076Y-124096495D01*
X124402457Y-124239352D01*
X123831028Y-124810780D01*
X124450076Y-124810780D01*
G04 #@! TO.C,C102*
X190701752Y-116181142D02*
X190654133Y-116228761D01*
X190511276Y-116276380D01*
X190416038Y-116276380D01*
X190273180Y-116228761D01*
X190177942Y-116133523D01*
X190130323Y-116038285D01*
X190082704Y-115847809D01*
X190082704Y-115704952D01*
X190130323Y-115514476D01*
X190177942Y-115419238D01*
X190273180Y-115324000D01*
X190416038Y-115276380D01*
X190511276Y-115276380D01*
X190654133Y-115324000D01*
X190701752Y-115371619D01*
X191654133Y-116276380D02*
X191082704Y-116276380D01*
X191368419Y-116276380D02*
X191368419Y-115276380D01*
X191273180Y-115419238D01*
X191177942Y-115514476D01*
X191082704Y-115562095D01*
X192273180Y-115276380D02*
X192368419Y-115276380D01*
X192463657Y-115324000D01*
X192511276Y-115371619D01*
X192558895Y-115466857D01*
X192606514Y-115657333D01*
X192606514Y-115895428D01*
X192558895Y-116085904D01*
X192511276Y-116181142D01*
X192463657Y-116228761D01*
X192368419Y-116276380D01*
X192273180Y-116276380D01*
X192177942Y-116228761D01*
X192130323Y-116181142D01*
X192082704Y-116085904D01*
X192035085Y-115895428D01*
X192035085Y-115657333D01*
X192082704Y-115466857D01*
X192130323Y-115371619D01*
X192177942Y-115324000D01*
X192273180Y-115276380D01*
X192987466Y-115371619D02*
X193035085Y-115324000D01*
X193130323Y-115276380D01*
X193368419Y-115276380D01*
X193463657Y-115324000D01*
X193511276Y-115371619D01*
X193558895Y-115466857D01*
X193558895Y-115562095D01*
X193511276Y-115704952D01*
X192939847Y-116276380D01*
X193558895Y-116276380D01*
X187349714Y-121741095D02*
X188016380Y-121741095D01*
X186968761Y-121979190D02*
X187683047Y-122217285D01*
X187683047Y-121598238D01*
X187016380Y-121312523D02*
X187016380Y-120645857D01*
X188016380Y-121074428D01*
X187349714Y-120264904D02*
X188349714Y-120264904D01*
X187873523Y-119788714D02*
X187968761Y-119741095D01*
X188016380Y-119645857D01*
X187873523Y-120264904D02*
X187968761Y-120217285D01*
X188016380Y-120122047D01*
X188016380Y-119931571D01*
X187968761Y-119836333D01*
X187873523Y-119788714D01*
X187349714Y-119788714D01*
X187492571Y-118883952D02*
X187492571Y-119217285D01*
X188016380Y-119217285D02*
X187016380Y-119217285D01*
X187016380Y-118741095D01*
G04 #@! TO.C,C101*
D14*
X168169166Y-93505100D02*
X168126833Y-93547433D01*
X167999833Y-93589766D01*
X167915166Y-93589766D01*
X167788166Y-93547433D01*
X167703500Y-93462766D01*
X167661166Y-93378100D01*
X167618833Y-93208766D01*
X167618833Y-93081766D01*
X167661166Y-92912433D01*
X167703500Y-92827766D01*
X167788166Y-92743100D01*
X167915166Y-92700766D01*
X167999833Y-92700766D01*
X168126833Y-92743100D01*
X168169166Y-92785433D01*
X169015833Y-93589766D02*
X168507833Y-93589766D01*
X168761833Y-93589766D02*
X168761833Y-92700766D01*
X168677166Y-92827766D01*
X168592500Y-92912433D01*
X168507833Y-92954766D01*
X169566166Y-92700766D02*
X169650833Y-92700766D01*
X169735500Y-92743100D01*
X169777833Y-92785433D01*
X169820166Y-92870100D01*
X169862500Y-93039433D01*
X169862500Y-93251100D01*
X169820166Y-93420433D01*
X169777833Y-93505100D01*
X169735500Y-93547433D01*
X169650833Y-93589766D01*
X169566166Y-93589766D01*
X169481500Y-93547433D01*
X169439166Y-93505100D01*
X169396833Y-93420433D01*
X169354500Y-93251100D01*
X169354500Y-93039433D01*
X169396833Y-92870100D01*
X169439166Y-92785433D01*
X169481500Y-92743100D01*
X169566166Y-92700766D01*
X170709166Y-93589766D02*
X170201166Y-93589766D01*
X170455166Y-93589766D02*
X170455166Y-92700766D01*
X170370500Y-92827766D01*
X170285833Y-92912433D01*
X170201166Y-92954766D01*
X167589200Y-86406566D02*
X167673866Y-86406566D01*
X167758533Y-86448900D01*
X167800866Y-86491233D01*
X167843200Y-86575900D01*
X167885533Y-86745233D01*
X167885533Y-86956900D01*
X167843200Y-87126233D01*
X167800866Y-87210900D01*
X167758533Y-87253233D01*
X167673866Y-87295566D01*
X167589200Y-87295566D01*
X167504533Y-87253233D01*
X167462200Y-87210900D01*
X167419866Y-87126233D01*
X167377533Y-86956900D01*
X167377533Y-86745233D01*
X167419866Y-86575900D01*
X167462200Y-86491233D01*
X167504533Y-86448900D01*
X167589200Y-86406566D01*
X168266533Y-87210900D02*
X168308866Y-87253233D01*
X168266533Y-87295566D01*
X168224200Y-87253233D01*
X168266533Y-87210900D01*
X168266533Y-87295566D01*
X169155533Y-87295566D02*
X168647533Y-87295566D01*
X168901533Y-87295566D02*
X168901533Y-86406566D01*
X168816866Y-86533566D01*
X168732200Y-86618233D01*
X168647533Y-86660566D01*
X169536533Y-86702900D02*
X169536533Y-87591900D01*
X169959866Y-87168566D02*
X170002200Y-87253233D01*
X170086866Y-87295566D01*
X169536533Y-87168566D02*
X169578866Y-87253233D01*
X169663533Y-87295566D01*
X169832866Y-87295566D01*
X169917533Y-87253233D01*
X169959866Y-87168566D01*
X169959866Y-86702900D01*
X170764200Y-86829900D02*
X170467866Y-86829900D01*
X170467866Y-87295566D02*
X170467866Y-86406566D01*
X170891200Y-86406566D01*
G04 #@! TO.C,C103*
X186304766Y-70899100D02*
X186262433Y-70941433D01*
X186135433Y-70983766D01*
X186050766Y-70983766D01*
X185923766Y-70941433D01*
X185839100Y-70856766D01*
X185796766Y-70772100D01*
X185754433Y-70602766D01*
X185754433Y-70475766D01*
X185796766Y-70306433D01*
X185839100Y-70221766D01*
X185923766Y-70137100D01*
X186050766Y-70094766D01*
X186135433Y-70094766D01*
X186262433Y-70137100D01*
X186304766Y-70179433D01*
X187151433Y-70983766D02*
X186643433Y-70983766D01*
X186897433Y-70983766D02*
X186897433Y-70094766D01*
X186812766Y-70221766D01*
X186728100Y-70306433D01*
X186643433Y-70348766D01*
X187701766Y-70094766D02*
X187786433Y-70094766D01*
X187871100Y-70137100D01*
X187913433Y-70179433D01*
X187955766Y-70264100D01*
X187998100Y-70433433D01*
X187998100Y-70645100D01*
X187955766Y-70814433D01*
X187913433Y-70899100D01*
X187871100Y-70941433D01*
X187786433Y-70983766D01*
X187701766Y-70983766D01*
X187617100Y-70941433D01*
X187574766Y-70899100D01*
X187532433Y-70814433D01*
X187490100Y-70645100D01*
X187490100Y-70433433D01*
X187532433Y-70264100D01*
X187574766Y-70179433D01*
X187617100Y-70137100D01*
X187701766Y-70094766D01*
X188294433Y-70094766D02*
X188844766Y-70094766D01*
X188548433Y-70433433D01*
X188675433Y-70433433D01*
X188760100Y-70475766D01*
X188802433Y-70518100D01*
X188844766Y-70602766D01*
X188844766Y-70814433D01*
X188802433Y-70899100D01*
X188760100Y-70941433D01*
X188675433Y-70983766D01*
X188421433Y-70983766D01*
X188336766Y-70941433D01*
X188294433Y-70899100D01*
X184501366Y-68935600D02*
X184501366Y-68850933D01*
X184543700Y-68766266D01*
X184586033Y-68723933D01*
X184670700Y-68681600D01*
X184840033Y-68639266D01*
X185051700Y-68639266D01*
X185221033Y-68681600D01*
X185305700Y-68723933D01*
X185348033Y-68766266D01*
X185390366Y-68850933D01*
X185390366Y-68935600D01*
X185348033Y-69020266D01*
X185305700Y-69062600D01*
X185221033Y-69104933D01*
X185051700Y-69147266D01*
X184840033Y-69147266D01*
X184670700Y-69104933D01*
X184586033Y-69062600D01*
X184543700Y-69020266D01*
X184501366Y-68935600D01*
X185305700Y-68258266D02*
X185348033Y-68215933D01*
X185390366Y-68258266D01*
X185348033Y-68300600D01*
X185305700Y-68258266D01*
X185390366Y-68258266D01*
X185390366Y-67369266D02*
X185390366Y-67877266D01*
X185390366Y-67623266D02*
X184501366Y-67623266D01*
X184628366Y-67707933D01*
X184713033Y-67792600D01*
X184755366Y-67877266D01*
X184797700Y-66988266D02*
X185686700Y-66988266D01*
X185263366Y-66564933D02*
X185348033Y-66522600D01*
X185390366Y-66437933D01*
X185263366Y-66988266D02*
X185348033Y-66945933D01*
X185390366Y-66861266D01*
X185390366Y-66691933D01*
X185348033Y-66607266D01*
X185263366Y-66564933D01*
X184797700Y-66564933D01*
X184924700Y-65760600D02*
X184924700Y-66056933D01*
X185390366Y-66056933D02*
X184501366Y-66056933D01*
X184501366Y-65633600D01*
G04 #@! TO.C,C104*
X162544700Y-83594833D02*
X162587033Y-83637166D01*
X162629366Y-83764166D01*
X162629366Y-83848833D01*
X162587033Y-83975833D01*
X162502366Y-84060500D01*
X162417700Y-84102833D01*
X162248366Y-84145166D01*
X162121366Y-84145166D01*
X161952033Y-84102833D01*
X161867366Y-84060500D01*
X161782700Y-83975833D01*
X161740366Y-83848833D01*
X161740366Y-83764166D01*
X161782700Y-83637166D01*
X161825033Y-83594833D01*
X162629366Y-82748166D02*
X162629366Y-83256166D01*
X162629366Y-83002166D02*
X161740366Y-83002166D01*
X161867366Y-83086833D01*
X161952033Y-83171500D01*
X161994366Y-83256166D01*
X161740366Y-82197833D02*
X161740366Y-82113166D01*
X161782700Y-82028500D01*
X161825033Y-81986166D01*
X161909700Y-81943833D01*
X162079033Y-81901500D01*
X162290700Y-81901500D01*
X162460033Y-81943833D01*
X162544700Y-81986166D01*
X162587033Y-82028500D01*
X162629366Y-82113166D01*
X162629366Y-82197833D01*
X162587033Y-82282500D01*
X162544700Y-82324833D01*
X162460033Y-82367166D01*
X162290700Y-82409500D01*
X162079033Y-82409500D01*
X161909700Y-82367166D01*
X161825033Y-82324833D01*
X161782700Y-82282500D01*
X161740366Y-82197833D01*
X162036700Y-81139500D02*
X162629366Y-81139500D01*
X161698033Y-81351166D02*
X162333033Y-81562833D01*
X162333033Y-81012500D01*
X157801733Y-79582433D02*
X157844066Y-79540100D01*
X157928733Y-79497766D01*
X158140400Y-79497766D01*
X158225066Y-79540100D01*
X158267400Y-79582433D01*
X158309733Y-79667100D01*
X158309733Y-79751766D01*
X158267400Y-79878766D01*
X157759400Y-80386766D01*
X158309733Y-80386766D01*
X158690733Y-80302100D02*
X158733066Y-80344433D01*
X158690733Y-80386766D01*
X158648400Y-80344433D01*
X158690733Y-80302100D01*
X158690733Y-80386766D01*
X159071733Y-79582433D02*
X159114066Y-79540100D01*
X159198733Y-79497766D01*
X159410400Y-79497766D01*
X159495066Y-79540100D01*
X159537400Y-79582433D01*
X159579733Y-79667100D01*
X159579733Y-79751766D01*
X159537400Y-79878766D01*
X159029400Y-80386766D01*
X159579733Y-80386766D01*
X159960733Y-79794100D02*
X159960733Y-80683100D01*
X160384066Y-80259766D02*
X160426400Y-80344433D01*
X160511066Y-80386766D01*
X159960733Y-80259766D02*
X160003066Y-80344433D01*
X160087733Y-80386766D01*
X160257066Y-80386766D01*
X160341733Y-80344433D01*
X160384066Y-80259766D01*
X160384066Y-79794100D01*
X161188400Y-79921100D02*
X160892066Y-79921100D01*
X160892066Y-80386766D02*
X160892066Y-79497766D01*
X161315400Y-79497766D01*
G04 #@! TO.C,C105*
X158669566Y-74912300D02*
X158627233Y-74954633D01*
X158500233Y-74996966D01*
X158415566Y-74996966D01*
X158288566Y-74954633D01*
X158203900Y-74869966D01*
X158161566Y-74785300D01*
X158119233Y-74615966D01*
X158119233Y-74488966D01*
X158161566Y-74319633D01*
X158203900Y-74234966D01*
X158288566Y-74150300D01*
X158415566Y-74107966D01*
X158500233Y-74107966D01*
X158627233Y-74150300D01*
X158669566Y-74192633D01*
X159516233Y-74996966D02*
X159008233Y-74996966D01*
X159262233Y-74996966D02*
X159262233Y-74107966D01*
X159177566Y-74234966D01*
X159092900Y-74319633D01*
X159008233Y-74361966D01*
X160066566Y-74107966D02*
X160151233Y-74107966D01*
X160235900Y-74150300D01*
X160278233Y-74192633D01*
X160320566Y-74277300D01*
X160362900Y-74446633D01*
X160362900Y-74658300D01*
X160320566Y-74827633D01*
X160278233Y-74912300D01*
X160235900Y-74954633D01*
X160151233Y-74996966D01*
X160066566Y-74996966D01*
X159981900Y-74954633D01*
X159939566Y-74912300D01*
X159897233Y-74827633D01*
X159854900Y-74658300D01*
X159854900Y-74446633D01*
X159897233Y-74277300D01*
X159939566Y-74192633D01*
X159981900Y-74150300D01*
X160066566Y-74107966D01*
X161167233Y-74107966D02*
X160743900Y-74107966D01*
X160701566Y-74531300D01*
X160743900Y-74488966D01*
X160828566Y-74446633D01*
X161040233Y-74446633D01*
X161124900Y-74488966D01*
X161167233Y-74531300D01*
X161209566Y-74615966D01*
X161209566Y-74827633D01*
X161167233Y-74912300D01*
X161124900Y-74954633D01*
X161040233Y-74996966D01*
X160828566Y-74996966D01*
X160743900Y-74954633D01*
X160701566Y-74912300D01*
X156840766Y-72948800D02*
X156840766Y-72864133D01*
X156883100Y-72779466D01*
X156925433Y-72737133D01*
X157010100Y-72694800D01*
X157179433Y-72652466D01*
X157391100Y-72652466D01*
X157560433Y-72694800D01*
X157645100Y-72737133D01*
X157687433Y-72779466D01*
X157729766Y-72864133D01*
X157729766Y-72948800D01*
X157687433Y-73033466D01*
X157645100Y-73075800D01*
X157560433Y-73118133D01*
X157391100Y-73160466D01*
X157179433Y-73160466D01*
X157010100Y-73118133D01*
X156925433Y-73075800D01*
X156883100Y-73033466D01*
X156840766Y-72948800D01*
X157645100Y-72271466D02*
X157687433Y-72229133D01*
X157729766Y-72271466D01*
X157687433Y-72313800D01*
X157645100Y-72271466D01*
X157729766Y-72271466D01*
X157729766Y-71382466D02*
X157729766Y-71890466D01*
X157729766Y-71636466D02*
X156840766Y-71636466D01*
X156967766Y-71721133D01*
X157052433Y-71805800D01*
X157094766Y-71890466D01*
X157137100Y-71001466D02*
X158026100Y-71001466D01*
X157602766Y-70578133D02*
X157687433Y-70535800D01*
X157729766Y-70451133D01*
X157602766Y-71001466D02*
X157687433Y-70959133D01*
X157729766Y-70874466D01*
X157729766Y-70705133D01*
X157687433Y-70620466D01*
X157602766Y-70578133D01*
X157137100Y-70578133D01*
X157264100Y-69773800D02*
X157264100Y-70070133D01*
X157729766Y-70070133D02*
X156840766Y-70070133D01*
X156840766Y-69646800D01*
G04 #@! TO.C,C106*
X186355566Y-96705500D02*
X186313233Y-96747833D01*
X186186233Y-96790166D01*
X186101566Y-96790166D01*
X185974566Y-96747833D01*
X185889900Y-96663166D01*
X185847566Y-96578500D01*
X185805233Y-96409166D01*
X185805233Y-96282166D01*
X185847566Y-96112833D01*
X185889900Y-96028166D01*
X185974566Y-95943500D01*
X186101566Y-95901166D01*
X186186233Y-95901166D01*
X186313233Y-95943500D01*
X186355566Y-95985833D01*
X187202233Y-96790166D02*
X186694233Y-96790166D01*
X186948233Y-96790166D02*
X186948233Y-95901166D01*
X186863566Y-96028166D01*
X186778900Y-96112833D01*
X186694233Y-96155166D01*
X187752566Y-95901166D02*
X187837233Y-95901166D01*
X187921900Y-95943500D01*
X187964233Y-95985833D01*
X188006566Y-96070500D01*
X188048900Y-96239833D01*
X188048900Y-96451500D01*
X188006566Y-96620833D01*
X187964233Y-96705500D01*
X187921900Y-96747833D01*
X187837233Y-96790166D01*
X187752566Y-96790166D01*
X187667900Y-96747833D01*
X187625566Y-96705500D01*
X187583233Y-96620833D01*
X187540900Y-96451500D01*
X187540900Y-96239833D01*
X187583233Y-96070500D01*
X187625566Y-95985833D01*
X187667900Y-95943500D01*
X187752566Y-95901166D01*
X188810900Y-95901166D02*
X188641566Y-95901166D01*
X188556900Y-95943500D01*
X188514566Y-95985833D01*
X188429900Y-96112833D01*
X188387566Y-96282166D01*
X188387566Y-96620833D01*
X188429900Y-96705500D01*
X188472233Y-96747833D01*
X188556900Y-96790166D01*
X188726233Y-96790166D01*
X188810900Y-96747833D01*
X188853233Y-96705500D01*
X188895566Y-96620833D01*
X188895566Y-96409166D01*
X188853233Y-96324500D01*
X188810900Y-96282166D01*
X188726233Y-96239833D01*
X188556900Y-96239833D01*
X188472233Y-96282166D01*
X188429900Y-96324500D01*
X188387566Y-96409166D01*
X184501366Y-94742000D02*
X184501366Y-94657333D01*
X184543700Y-94572666D01*
X184586033Y-94530333D01*
X184670700Y-94488000D01*
X184840033Y-94445666D01*
X185051700Y-94445666D01*
X185221033Y-94488000D01*
X185305700Y-94530333D01*
X185348033Y-94572666D01*
X185390366Y-94657333D01*
X185390366Y-94742000D01*
X185348033Y-94826666D01*
X185305700Y-94869000D01*
X185221033Y-94911333D01*
X185051700Y-94953666D01*
X184840033Y-94953666D01*
X184670700Y-94911333D01*
X184586033Y-94869000D01*
X184543700Y-94826666D01*
X184501366Y-94742000D01*
X185305700Y-94064666D02*
X185348033Y-94022333D01*
X185390366Y-94064666D01*
X185348033Y-94107000D01*
X185305700Y-94064666D01*
X185390366Y-94064666D01*
X185390366Y-93175666D02*
X185390366Y-93683666D01*
X185390366Y-93429666D02*
X184501366Y-93429666D01*
X184628366Y-93514333D01*
X184713033Y-93599000D01*
X184755366Y-93683666D01*
X184797700Y-92794666D02*
X185686700Y-92794666D01*
X185263366Y-92371333D02*
X185348033Y-92329000D01*
X185390366Y-92244333D01*
X185263366Y-92794666D02*
X185348033Y-92752333D01*
X185390366Y-92667666D01*
X185390366Y-92498333D01*
X185348033Y-92413666D01*
X185263366Y-92371333D01*
X184797700Y-92371333D01*
X184924700Y-91567000D02*
X184924700Y-91863333D01*
X185390366Y-91863333D02*
X184501366Y-91863333D01*
X184501366Y-91440000D01*
G04 #@! TO.C,C107*
X186304766Y-83853100D02*
X186262433Y-83895433D01*
X186135433Y-83937766D01*
X186050766Y-83937766D01*
X185923766Y-83895433D01*
X185839100Y-83810766D01*
X185796766Y-83726100D01*
X185754433Y-83556766D01*
X185754433Y-83429766D01*
X185796766Y-83260433D01*
X185839100Y-83175766D01*
X185923766Y-83091100D01*
X186050766Y-83048766D01*
X186135433Y-83048766D01*
X186262433Y-83091100D01*
X186304766Y-83133433D01*
X187151433Y-83937766D02*
X186643433Y-83937766D01*
X186897433Y-83937766D02*
X186897433Y-83048766D01*
X186812766Y-83175766D01*
X186728100Y-83260433D01*
X186643433Y-83302766D01*
X187701766Y-83048766D02*
X187786433Y-83048766D01*
X187871100Y-83091100D01*
X187913433Y-83133433D01*
X187955766Y-83218100D01*
X187998100Y-83387433D01*
X187998100Y-83599100D01*
X187955766Y-83768433D01*
X187913433Y-83853100D01*
X187871100Y-83895433D01*
X187786433Y-83937766D01*
X187701766Y-83937766D01*
X187617100Y-83895433D01*
X187574766Y-83853100D01*
X187532433Y-83768433D01*
X187490100Y-83599100D01*
X187490100Y-83387433D01*
X187532433Y-83218100D01*
X187574766Y-83133433D01*
X187617100Y-83091100D01*
X187701766Y-83048766D01*
X188294433Y-83048766D02*
X188887100Y-83048766D01*
X188506100Y-83937766D01*
X184526766Y-81889600D02*
X184526766Y-81804933D01*
X184569100Y-81720266D01*
X184611433Y-81677933D01*
X184696100Y-81635600D01*
X184865433Y-81593266D01*
X185077100Y-81593266D01*
X185246433Y-81635600D01*
X185331100Y-81677933D01*
X185373433Y-81720266D01*
X185415766Y-81804933D01*
X185415766Y-81889600D01*
X185373433Y-81974266D01*
X185331100Y-82016600D01*
X185246433Y-82058933D01*
X185077100Y-82101266D01*
X184865433Y-82101266D01*
X184696100Y-82058933D01*
X184611433Y-82016600D01*
X184569100Y-81974266D01*
X184526766Y-81889600D01*
X185331100Y-81212266D02*
X185373433Y-81169933D01*
X185415766Y-81212266D01*
X185373433Y-81254600D01*
X185331100Y-81212266D01*
X185415766Y-81212266D01*
X185415766Y-80323266D02*
X185415766Y-80831266D01*
X185415766Y-80577266D02*
X184526766Y-80577266D01*
X184653766Y-80661933D01*
X184738433Y-80746600D01*
X184780766Y-80831266D01*
X184823100Y-79942266D02*
X185712100Y-79942266D01*
X185288766Y-79518933D02*
X185373433Y-79476600D01*
X185415766Y-79391933D01*
X185288766Y-79942266D02*
X185373433Y-79899933D01*
X185415766Y-79815266D01*
X185415766Y-79645933D01*
X185373433Y-79561266D01*
X185288766Y-79518933D01*
X184823100Y-79518933D01*
X184950100Y-78714600D02*
X184950100Y-79010933D01*
X185415766Y-79010933D02*
X184526766Y-79010933D01*
X184526766Y-78587600D01*
G04 #@! TO.C,C108*
X140888766Y-86908700D02*
X140846433Y-86951033D01*
X140719433Y-86993366D01*
X140634766Y-86993366D01*
X140507766Y-86951033D01*
X140423100Y-86866366D01*
X140380766Y-86781700D01*
X140338433Y-86612366D01*
X140338433Y-86485366D01*
X140380766Y-86316033D01*
X140423100Y-86231366D01*
X140507766Y-86146700D01*
X140634766Y-86104366D01*
X140719433Y-86104366D01*
X140846433Y-86146700D01*
X140888766Y-86189033D01*
X141735433Y-86993366D02*
X141227433Y-86993366D01*
X141481433Y-86993366D02*
X141481433Y-86104366D01*
X141396766Y-86231366D01*
X141312100Y-86316033D01*
X141227433Y-86358366D01*
X142285766Y-86104366D02*
X142370433Y-86104366D01*
X142455100Y-86146700D01*
X142497433Y-86189033D01*
X142539766Y-86273700D01*
X142582100Y-86443033D01*
X142582100Y-86654700D01*
X142539766Y-86824033D01*
X142497433Y-86908700D01*
X142455100Y-86951033D01*
X142370433Y-86993366D01*
X142285766Y-86993366D01*
X142201100Y-86951033D01*
X142158766Y-86908700D01*
X142116433Y-86824033D01*
X142074100Y-86654700D01*
X142074100Y-86443033D01*
X142116433Y-86273700D01*
X142158766Y-86189033D01*
X142201100Y-86146700D01*
X142285766Y-86104366D01*
X143090100Y-86485366D02*
X143005433Y-86443033D01*
X142963100Y-86400700D01*
X142920766Y-86316033D01*
X142920766Y-86273700D01*
X142963100Y-86189033D01*
X143005433Y-86146700D01*
X143090100Y-86104366D01*
X143259433Y-86104366D01*
X143344100Y-86146700D01*
X143386433Y-86189033D01*
X143428766Y-86273700D01*
X143428766Y-86316033D01*
X143386433Y-86400700D01*
X143344100Y-86443033D01*
X143259433Y-86485366D01*
X143090100Y-86485366D01*
X143005433Y-86527700D01*
X142963100Y-86570033D01*
X142920766Y-86654700D01*
X142920766Y-86824033D01*
X142963100Y-86908700D01*
X143005433Y-86951033D01*
X143090100Y-86993366D01*
X143259433Y-86993366D01*
X143344100Y-86951033D01*
X143386433Y-86908700D01*
X143428766Y-86824033D01*
X143428766Y-86654700D01*
X143386433Y-86570033D01*
X143344100Y-86527700D01*
X143259433Y-86485366D01*
X138637433Y-91296066D02*
X138595100Y-91253733D01*
X138552766Y-91169066D01*
X138552766Y-90957400D01*
X138595100Y-90872733D01*
X138637433Y-90830400D01*
X138722100Y-90788066D01*
X138806766Y-90788066D01*
X138933766Y-90830400D01*
X139441766Y-91338400D01*
X139441766Y-90788066D01*
X139357100Y-90407066D02*
X139399433Y-90364733D01*
X139441766Y-90407066D01*
X139399433Y-90449400D01*
X139357100Y-90407066D01*
X139441766Y-90407066D01*
X138637433Y-90026066D02*
X138595100Y-89983733D01*
X138552766Y-89899066D01*
X138552766Y-89687400D01*
X138595100Y-89602733D01*
X138637433Y-89560400D01*
X138722100Y-89518066D01*
X138806766Y-89518066D01*
X138933766Y-89560400D01*
X139441766Y-90068400D01*
X139441766Y-89518066D01*
X138849100Y-89137066D02*
X139738100Y-89137066D01*
X139314766Y-88713733D02*
X139399433Y-88671400D01*
X139441766Y-88586733D01*
X139314766Y-89137066D02*
X139399433Y-89094733D01*
X139441766Y-89010066D01*
X139441766Y-88840733D01*
X139399433Y-88756066D01*
X139314766Y-88713733D01*
X138849100Y-88713733D01*
X138976100Y-87909400D02*
X138976100Y-88205733D01*
X139441766Y-88205733D02*
X138552766Y-88205733D01*
X138552766Y-87782400D01*
G04 #@! TO.C,C109*
X183028166Y-109088000D02*
X182985833Y-109130333D01*
X182858833Y-109172666D01*
X182774166Y-109172666D01*
X182647166Y-109130333D01*
X182562500Y-109045666D01*
X182520166Y-108961000D01*
X182477833Y-108791666D01*
X182477833Y-108664666D01*
X182520166Y-108495333D01*
X182562500Y-108410666D01*
X182647166Y-108326000D01*
X182774166Y-108283666D01*
X182858833Y-108283666D01*
X182985833Y-108326000D01*
X183028166Y-108368333D01*
X183874833Y-109172666D02*
X183366833Y-109172666D01*
X183620833Y-109172666D02*
X183620833Y-108283666D01*
X183536166Y-108410666D01*
X183451500Y-108495333D01*
X183366833Y-108537666D01*
X184425166Y-108283666D02*
X184509833Y-108283666D01*
X184594500Y-108326000D01*
X184636833Y-108368333D01*
X184679166Y-108453000D01*
X184721500Y-108622333D01*
X184721500Y-108834000D01*
X184679166Y-109003333D01*
X184636833Y-109088000D01*
X184594500Y-109130333D01*
X184509833Y-109172666D01*
X184425166Y-109172666D01*
X184340500Y-109130333D01*
X184298166Y-109088000D01*
X184255833Y-109003333D01*
X184213500Y-108834000D01*
X184213500Y-108622333D01*
X184255833Y-108453000D01*
X184298166Y-108368333D01*
X184340500Y-108326000D01*
X184425166Y-108283666D01*
X185144833Y-109172666D02*
X185314166Y-109172666D01*
X185398833Y-109130333D01*
X185441166Y-109088000D01*
X185525833Y-108961000D01*
X185568166Y-108791666D01*
X185568166Y-108453000D01*
X185525833Y-108368333D01*
X185483500Y-108326000D01*
X185398833Y-108283666D01*
X185229500Y-108283666D01*
X185144833Y-108326000D01*
X185102500Y-108368333D01*
X185060166Y-108453000D01*
X185060166Y-108664666D01*
X185102500Y-108749333D01*
X185144833Y-108791666D01*
X185229500Y-108834000D01*
X185398833Y-108834000D01*
X185483500Y-108791666D01*
X185525833Y-108749333D01*
X185568166Y-108664666D01*
X181199366Y-107137200D02*
X181199366Y-107052533D01*
X181241700Y-106967866D01*
X181284033Y-106925533D01*
X181368700Y-106883200D01*
X181538033Y-106840866D01*
X181749700Y-106840866D01*
X181919033Y-106883200D01*
X182003700Y-106925533D01*
X182046033Y-106967866D01*
X182088366Y-107052533D01*
X182088366Y-107137200D01*
X182046033Y-107221866D01*
X182003700Y-107264200D01*
X181919033Y-107306533D01*
X181749700Y-107348866D01*
X181538033Y-107348866D01*
X181368700Y-107306533D01*
X181284033Y-107264200D01*
X181241700Y-107221866D01*
X181199366Y-107137200D01*
X182003700Y-106459866D02*
X182046033Y-106417533D01*
X182088366Y-106459866D01*
X182046033Y-106502200D01*
X182003700Y-106459866D01*
X182088366Y-106459866D01*
X182088366Y-105570866D02*
X182088366Y-106078866D01*
X182088366Y-105824866D02*
X181199366Y-105824866D01*
X181326366Y-105909533D01*
X181411033Y-105994200D01*
X181453366Y-106078866D01*
X181495700Y-105189866D02*
X182384700Y-105189866D01*
X181961366Y-104766533D02*
X182046033Y-104724200D01*
X182088366Y-104639533D01*
X181961366Y-105189866D02*
X182046033Y-105147533D01*
X182088366Y-105062866D01*
X182088366Y-104893533D01*
X182046033Y-104808866D01*
X181961366Y-104766533D01*
X181495700Y-104766533D01*
X181622700Y-103962200D02*
X181622700Y-104258533D01*
X182088366Y-104258533D02*
X181199366Y-104258533D01*
X181199366Y-103835200D01*
G04 #@! TO.C,C110*
X177948166Y-62679500D02*
X177905833Y-62721833D01*
X177778833Y-62764166D01*
X177694166Y-62764166D01*
X177567166Y-62721833D01*
X177482500Y-62637166D01*
X177440166Y-62552500D01*
X177397833Y-62383166D01*
X177397833Y-62256166D01*
X177440166Y-62086833D01*
X177482500Y-62002166D01*
X177567166Y-61917500D01*
X177694166Y-61875166D01*
X177778833Y-61875166D01*
X177905833Y-61917500D01*
X177948166Y-61959833D01*
X178794833Y-62764166D02*
X178286833Y-62764166D01*
X178540833Y-62764166D02*
X178540833Y-61875166D01*
X178456166Y-62002166D01*
X178371500Y-62086833D01*
X178286833Y-62129166D01*
X179641500Y-62764166D02*
X179133500Y-62764166D01*
X179387500Y-62764166D02*
X179387500Y-61875166D01*
X179302833Y-62002166D01*
X179218166Y-62086833D01*
X179133500Y-62129166D01*
X180191833Y-61875166D02*
X180276500Y-61875166D01*
X180361166Y-61917500D01*
X180403500Y-61959833D01*
X180445833Y-62044500D01*
X180488166Y-62213833D01*
X180488166Y-62425500D01*
X180445833Y-62594833D01*
X180403500Y-62679500D01*
X180361166Y-62721833D01*
X180276500Y-62764166D01*
X180191833Y-62764166D01*
X180107166Y-62721833D01*
X180064833Y-62679500D01*
X180022500Y-62594833D01*
X179980166Y-62425500D01*
X179980166Y-62213833D01*
X180022500Y-62044500D01*
X180064833Y-61959833D01*
X180107166Y-61917500D01*
X180191833Y-61875166D01*
X175992366Y-67377733D02*
X175992366Y-67293066D01*
X176034700Y-67208400D01*
X176077033Y-67166066D01*
X176161700Y-67123733D01*
X176331033Y-67081400D01*
X176542700Y-67081400D01*
X176712033Y-67123733D01*
X176796700Y-67166066D01*
X176839033Y-67208400D01*
X176881366Y-67293066D01*
X176881366Y-67377733D01*
X176839033Y-67462400D01*
X176796700Y-67504733D01*
X176712033Y-67547066D01*
X176542700Y-67589400D01*
X176331033Y-67589400D01*
X176161700Y-67547066D01*
X176077033Y-67504733D01*
X176034700Y-67462400D01*
X175992366Y-67377733D01*
X176796700Y-66700400D02*
X176839033Y-66658066D01*
X176881366Y-66700400D01*
X176839033Y-66742733D01*
X176796700Y-66700400D01*
X176881366Y-66700400D01*
X176288700Y-65896066D02*
X176881366Y-65896066D01*
X175950033Y-66107733D02*
X176585033Y-66319400D01*
X176585033Y-65769066D01*
X175992366Y-65515066D02*
X175992366Y-64922400D01*
X176881366Y-65303400D01*
X176288700Y-64583733D02*
X177177700Y-64583733D01*
X176754366Y-64160400D02*
X176839033Y-64118066D01*
X176881366Y-64033400D01*
X176754366Y-64583733D02*
X176839033Y-64541400D01*
X176881366Y-64456733D01*
X176881366Y-64287400D01*
X176839033Y-64202733D01*
X176754366Y-64160400D01*
X176288700Y-64160400D01*
X176415700Y-63356066D02*
X176415700Y-63652400D01*
X176881366Y-63652400D02*
X175992366Y-63652400D01*
X175992366Y-63229066D01*
G04 #@! TO.C,R101*
X149039166Y-100740166D02*
X148742833Y-100316833D01*
X148531166Y-100740166D02*
X148531166Y-99851166D01*
X148869833Y-99851166D01*
X148954500Y-99893500D01*
X148996833Y-99935833D01*
X149039166Y-100020500D01*
X149039166Y-100147500D01*
X148996833Y-100232166D01*
X148954500Y-100274500D01*
X148869833Y-100316833D01*
X148531166Y-100316833D01*
X149885833Y-100740166D02*
X149377833Y-100740166D01*
X149631833Y-100740166D02*
X149631833Y-99851166D01*
X149547166Y-99978166D01*
X149462500Y-100062833D01*
X149377833Y-100105166D01*
X150436166Y-99851166D02*
X150520833Y-99851166D01*
X150605500Y-99893500D01*
X150647833Y-99935833D01*
X150690166Y-100020500D01*
X150732500Y-100189833D01*
X150732500Y-100401500D01*
X150690166Y-100570833D01*
X150647833Y-100655500D01*
X150605500Y-100697833D01*
X150520833Y-100740166D01*
X150436166Y-100740166D01*
X150351500Y-100697833D01*
X150309166Y-100655500D01*
X150266833Y-100570833D01*
X150224500Y-100401500D01*
X150224500Y-100189833D01*
X150266833Y-100020500D01*
X150309166Y-99935833D01*
X150351500Y-99893500D01*
X150436166Y-99851166D01*
X151579166Y-100740166D02*
X151071166Y-100740166D01*
X151325166Y-100740166D02*
X151325166Y-99851166D01*
X151240500Y-99978166D01*
X151155833Y-100062833D01*
X151071166Y-100105166D01*
X149096833Y-101085833D02*
X149139166Y-101043500D01*
X149223833Y-101001166D01*
X149435500Y-101001166D01*
X149520166Y-101043500D01*
X149562500Y-101085833D01*
X149604833Y-101170500D01*
X149604833Y-101255166D01*
X149562500Y-101382166D01*
X149054500Y-101890166D01*
X149604833Y-101890166D01*
X150155166Y-101001166D02*
X150239833Y-101001166D01*
X150324500Y-101043500D01*
X150366833Y-101085833D01*
X150409166Y-101170500D01*
X150451500Y-101339833D01*
X150451500Y-101551500D01*
X150409166Y-101720833D01*
X150366833Y-101805500D01*
X150324500Y-101847833D01*
X150239833Y-101890166D01*
X150155166Y-101890166D01*
X150070500Y-101847833D01*
X150028166Y-101805500D01*
X149985833Y-101720833D01*
X149943500Y-101551500D01*
X149943500Y-101339833D01*
X149985833Y-101170500D01*
X150028166Y-101085833D01*
X150070500Y-101043500D01*
X150155166Y-101001166D01*
X150832500Y-101890166D02*
X150832500Y-101001166D01*
X150917166Y-101551500D02*
X151171166Y-101890166D01*
X151171166Y-101297500D02*
X150832500Y-101636166D01*
G04 #@! TO.C,R102*
X149039166Y-97311166D02*
X148742833Y-96887833D01*
X148531166Y-97311166D02*
X148531166Y-96422166D01*
X148869833Y-96422166D01*
X148954500Y-96464500D01*
X148996833Y-96506833D01*
X149039166Y-96591500D01*
X149039166Y-96718500D01*
X148996833Y-96803166D01*
X148954500Y-96845500D01*
X148869833Y-96887833D01*
X148531166Y-96887833D01*
X149885833Y-97311166D02*
X149377833Y-97311166D01*
X149631833Y-97311166D02*
X149631833Y-96422166D01*
X149547166Y-96549166D01*
X149462500Y-96633833D01*
X149377833Y-96676166D01*
X150436166Y-96422166D02*
X150520833Y-96422166D01*
X150605500Y-96464500D01*
X150647833Y-96506833D01*
X150690166Y-96591500D01*
X150732500Y-96760833D01*
X150732500Y-96972500D01*
X150690166Y-97141833D01*
X150647833Y-97226500D01*
X150605500Y-97268833D01*
X150520833Y-97311166D01*
X150436166Y-97311166D01*
X150351500Y-97268833D01*
X150309166Y-97226500D01*
X150266833Y-97141833D01*
X150224500Y-96972500D01*
X150224500Y-96760833D01*
X150266833Y-96591500D01*
X150309166Y-96506833D01*
X150351500Y-96464500D01*
X150436166Y-96422166D01*
X151071166Y-96506833D02*
X151113500Y-96464500D01*
X151198166Y-96422166D01*
X151409833Y-96422166D01*
X151494500Y-96464500D01*
X151536833Y-96506833D01*
X151579166Y-96591500D01*
X151579166Y-96676166D01*
X151536833Y-96803166D01*
X151028833Y-97311166D01*
X151579166Y-97311166D01*
X149096833Y-97656833D02*
X149139166Y-97614500D01*
X149223833Y-97572166D01*
X149435500Y-97572166D01*
X149520166Y-97614500D01*
X149562500Y-97656833D01*
X149604833Y-97741500D01*
X149604833Y-97826166D01*
X149562500Y-97953166D01*
X149054500Y-98461166D01*
X149604833Y-98461166D01*
X150155166Y-97572166D02*
X150239833Y-97572166D01*
X150324500Y-97614500D01*
X150366833Y-97656833D01*
X150409166Y-97741500D01*
X150451500Y-97910833D01*
X150451500Y-98122500D01*
X150409166Y-98291833D01*
X150366833Y-98376500D01*
X150324500Y-98418833D01*
X150239833Y-98461166D01*
X150155166Y-98461166D01*
X150070500Y-98418833D01*
X150028166Y-98376500D01*
X149985833Y-98291833D01*
X149943500Y-98122500D01*
X149943500Y-97910833D01*
X149985833Y-97741500D01*
X150028166Y-97656833D01*
X150070500Y-97614500D01*
X150155166Y-97572166D01*
X150832500Y-98461166D02*
X150832500Y-97572166D01*
X150917166Y-98122500D02*
X151171166Y-98461166D01*
X151171166Y-97868500D02*
X150832500Y-98207166D01*
G04 #@! TO.C,R103*
X149039166Y-104042166D02*
X148742833Y-103618833D01*
X148531166Y-104042166D02*
X148531166Y-103153166D01*
X148869833Y-103153166D01*
X148954500Y-103195500D01*
X148996833Y-103237833D01*
X149039166Y-103322500D01*
X149039166Y-103449500D01*
X148996833Y-103534166D01*
X148954500Y-103576500D01*
X148869833Y-103618833D01*
X148531166Y-103618833D01*
X149885833Y-104042166D02*
X149377833Y-104042166D01*
X149631833Y-104042166D02*
X149631833Y-103153166D01*
X149547166Y-103280166D01*
X149462500Y-103364833D01*
X149377833Y-103407166D01*
X150436166Y-103153166D02*
X150520833Y-103153166D01*
X150605500Y-103195500D01*
X150647833Y-103237833D01*
X150690166Y-103322500D01*
X150732500Y-103491833D01*
X150732500Y-103703500D01*
X150690166Y-103872833D01*
X150647833Y-103957500D01*
X150605500Y-103999833D01*
X150520833Y-104042166D01*
X150436166Y-104042166D01*
X150351500Y-103999833D01*
X150309166Y-103957500D01*
X150266833Y-103872833D01*
X150224500Y-103703500D01*
X150224500Y-103491833D01*
X150266833Y-103322500D01*
X150309166Y-103237833D01*
X150351500Y-103195500D01*
X150436166Y-103153166D01*
X151028833Y-103153166D02*
X151579166Y-103153166D01*
X151282833Y-103491833D01*
X151409833Y-103491833D01*
X151494500Y-103534166D01*
X151536833Y-103576500D01*
X151579166Y-103661166D01*
X151579166Y-103872833D01*
X151536833Y-103957500D01*
X151494500Y-103999833D01*
X151409833Y-104042166D01*
X151155833Y-104042166D01*
X151071166Y-103999833D01*
X151028833Y-103957500D01*
X149054500Y-105192166D02*
X148546500Y-105192166D01*
X148800500Y-105192166D02*
X148800500Y-104303166D01*
X148715833Y-104430166D01*
X148631166Y-104514833D01*
X148546500Y-104557166D01*
X149604833Y-104303166D02*
X149689500Y-104303166D01*
X149774166Y-104345500D01*
X149816500Y-104387833D01*
X149858833Y-104472500D01*
X149901166Y-104641833D01*
X149901166Y-104853500D01*
X149858833Y-105022833D01*
X149816500Y-105107500D01*
X149774166Y-105149833D01*
X149689500Y-105192166D01*
X149604833Y-105192166D01*
X149520166Y-105149833D01*
X149477833Y-105107500D01*
X149435500Y-105022833D01*
X149393166Y-104853500D01*
X149393166Y-104641833D01*
X149435500Y-104472500D01*
X149477833Y-104387833D01*
X149520166Y-104345500D01*
X149604833Y-104303166D01*
X150282166Y-105192166D02*
X150282166Y-104303166D01*
X150366833Y-104853500D02*
X150620833Y-105192166D01*
X150620833Y-104599500D02*
X150282166Y-104938166D01*
X151001833Y-104853500D02*
X151679166Y-104853500D01*
X151340500Y-105192166D02*
X151340500Y-104514833D01*
G04 #@! TO.C,R104*
X149039166Y-107471166D02*
X148742833Y-107047833D01*
X148531166Y-107471166D02*
X148531166Y-106582166D01*
X148869833Y-106582166D01*
X148954500Y-106624500D01*
X148996833Y-106666833D01*
X149039166Y-106751500D01*
X149039166Y-106878500D01*
X148996833Y-106963166D01*
X148954500Y-107005500D01*
X148869833Y-107047833D01*
X148531166Y-107047833D01*
X149885833Y-107471166D02*
X149377833Y-107471166D01*
X149631833Y-107471166D02*
X149631833Y-106582166D01*
X149547166Y-106709166D01*
X149462500Y-106793833D01*
X149377833Y-106836166D01*
X150436166Y-106582166D02*
X150520833Y-106582166D01*
X150605500Y-106624500D01*
X150647833Y-106666833D01*
X150690166Y-106751500D01*
X150732500Y-106920833D01*
X150732500Y-107132500D01*
X150690166Y-107301833D01*
X150647833Y-107386500D01*
X150605500Y-107428833D01*
X150520833Y-107471166D01*
X150436166Y-107471166D01*
X150351500Y-107428833D01*
X150309166Y-107386500D01*
X150266833Y-107301833D01*
X150224500Y-107132500D01*
X150224500Y-106920833D01*
X150266833Y-106751500D01*
X150309166Y-106666833D01*
X150351500Y-106624500D01*
X150436166Y-106582166D01*
X151494500Y-106878500D02*
X151494500Y-107471166D01*
X151282833Y-106539833D02*
X151071166Y-107174833D01*
X151621500Y-107174833D01*
X149096833Y-107816833D02*
X149139166Y-107774500D01*
X149223833Y-107732166D01*
X149435500Y-107732166D01*
X149520166Y-107774500D01*
X149562500Y-107816833D01*
X149604833Y-107901500D01*
X149604833Y-107986166D01*
X149562500Y-108113166D01*
X149054500Y-108621166D01*
X149604833Y-108621166D01*
X150155166Y-107732166D02*
X150239833Y-107732166D01*
X150324500Y-107774500D01*
X150366833Y-107816833D01*
X150409166Y-107901500D01*
X150451500Y-108070833D01*
X150451500Y-108282500D01*
X150409166Y-108451833D01*
X150366833Y-108536500D01*
X150324500Y-108578833D01*
X150239833Y-108621166D01*
X150155166Y-108621166D01*
X150070500Y-108578833D01*
X150028166Y-108536500D01*
X149985833Y-108451833D01*
X149943500Y-108282500D01*
X149943500Y-108070833D01*
X149985833Y-107901500D01*
X150028166Y-107816833D01*
X150070500Y-107774500D01*
X150155166Y-107732166D01*
X150832500Y-108621166D02*
X150832500Y-107732166D01*
X150917166Y-108282500D02*
X151171166Y-108621166D01*
X151171166Y-108028500D02*
X150832500Y-108367166D01*
G04 #@! TO.C,R105*
X149039166Y-110900166D02*
X148742833Y-110476833D01*
X148531166Y-110900166D02*
X148531166Y-110011166D01*
X148869833Y-110011166D01*
X148954500Y-110053500D01*
X148996833Y-110095833D01*
X149039166Y-110180500D01*
X149039166Y-110307500D01*
X148996833Y-110392166D01*
X148954500Y-110434500D01*
X148869833Y-110476833D01*
X148531166Y-110476833D01*
X149885833Y-110900166D02*
X149377833Y-110900166D01*
X149631833Y-110900166D02*
X149631833Y-110011166D01*
X149547166Y-110138166D01*
X149462500Y-110222833D01*
X149377833Y-110265166D01*
X150436166Y-110011166D02*
X150520833Y-110011166D01*
X150605500Y-110053500D01*
X150647833Y-110095833D01*
X150690166Y-110180500D01*
X150732500Y-110349833D01*
X150732500Y-110561500D01*
X150690166Y-110730833D01*
X150647833Y-110815500D01*
X150605500Y-110857833D01*
X150520833Y-110900166D01*
X150436166Y-110900166D01*
X150351500Y-110857833D01*
X150309166Y-110815500D01*
X150266833Y-110730833D01*
X150224500Y-110561500D01*
X150224500Y-110349833D01*
X150266833Y-110180500D01*
X150309166Y-110095833D01*
X150351500Y-110053500D01*
X150436166Y-110011166D01*
X151536833Y-110011166D02*
X151113500Y-110011166D01*
X151071166Y-110434500D01*
X151113500Y-110392166D01*
X151198166Y-110349833D01*
X151409833Y-110349833D01*
X151494500Y-110392166D01*
X151536833Y-110434500D01*
X151579166Y-110519166D01*
X151579166Y-110730833D01*
X151536833Y-110815500D01*
X151494500Y-110857833D01*
X151409833Y-110900166D01*
X151198166Y-110900166D01*
X151113500Y-110857833D01*
X151071166Y-110815500D01*
X149054500Y-112050166D02*
X148546500Y-112050166D01*
X148800500Y-112050166D02*
X148800500Y-111161166D01*
X148715833Y-111288166D01*
X148631166Y-111372833D01*
X148546500Y-111415166D01*
X149604833Y-111161166D02*
X149689500Y-111161166D01*
X149774166Y-111203500D01*
X149816500Y-111245833D01*
X149858833Y-111330500D01*
X149901166Y-111499833D01*
X149901166Y-111711500D01*
X149858833Y-111880833D01*
X149816500Y-111965500D01*
X149774166Y-112007833D01*
X149689500Y-112050166D01*
X149604833Y-112050166D01*
X149520166Y-112007833D01*
X149477833Y-111965500D01*
X149435500Y-111880833D01*
X149393166Y-111711500D01*
X149393166Y-111499833D01*
X149435500Y-111330500D01*
X149477833Y-111245833D01*
X149520166Y-111203500D01*
X149604833Y-111161166D01*
X150282166Y-112050166D02*
X150282166Y-111161166D01*
X150366833Y-111711500D02*
X150620833Y-112050166D01*
X150620833Y-111457500D02*
X150282166Y-111796166D01*
X151001833Y-111711500D02*
X151679166Y-111711500D01*
X151340500Y-112050166D02*
X151340500Y-111372833D01*
G04 #@! TO.C,R106*
X149039166Y-114329166D02*
X148742833Y-113905833D01*
X148531166Y-114329166D02*
X148531166Y-113440166D01*
X148869833Y-113440166D01*
X148954500Y-113482500D01*
X148996833Y-113524833D01*
X149039166Y-113609500D01*
X149039166Y-113736500D01*
X148996833Y-113821166D01*
X148954500Y-113863500D01*
X148869833Y-113905833D01*
X148531166Y-113905833D01*
X149885833Y-114329166D02*
X149377833Y-114329166D01*
X149631833Y-114329166D02*
X149631833Y-113440166D01*
X149547166Y-113567166D01*
X149462500Y-113651833D01*
X149377833Y-113694166D01*
X150436166Y-113440166D02*
X150520833Y-113440166D01*
X150605500Y-113482500D01*
X150647833Y-113524833D01*
X150690166Y-113609500D01*
X150732500Y-113778833D01*
X150732500Y-113990500D01*
X150690166Y-114159833D01*
X150647833Y-114244500D01*
X150605500Y-114286833D01*
X150520833Y-114329166D01*
X150436166Y-114329166D01*
X150351500Y-114286833D01*
X150309166Y-114244500D01*
X150266833Y-114159833D01*
X150224500Y-113990500D01*
X150224500Y-113778833D01*
X150266833Y-113609500D01*
X150309166Y-113524833D01*
X150351500Y-113482500D01*
X150436166Y-113440166D01*
X151494500Y-113440166D02*
X151325166Y-113440166D01*
X151240500Y-113482500D01*
X151198166Y-113524833D01*
X151113500Y-113651833D01*
X151071166Y-113821166D01*
X151071166Y-114159833D01*
X151113500Y-114244500D01*
X151155833Y-114286833D01*
X151240500Y-114329166D01*
X151409833Y-114329166D01*
X151494500Y-114286833D01*
X151536833Y-114244500D01*
X151579166Y-114159833D01*
X151579166Y-113948166D01*
X151536833Y-113863500D01*
X151494500Y-113821166D01*
X151409833Y-113778833D01*
X151240500Y-113778833D01*
X151155833Y-113821166D01*
X151113500Y-113863500D01*
X151071166Y-113948166D01*
X149096833Y-114674833D02*
X149139166Y-114632500D01*
X149223833Y-114590166D01*
X149435500Y-114590166D01*
X149520166Y-114632500D01*
X149562500Y-114674833D01*
X149604833Y-114759500D01*
X149604833Y-114844166D01*
X149562500Y-114971166D01*
X149054500Y-115479166D01*
X149604833Y-115479166D01*
X150155166Y-114590166D02*
X150239833Y-114590166D01*
X150324500Y-114632500D01*
X150366833Y-114674833D01*
X150409166Y-114759500D01*
X150451500Y-114928833D01*
X150451500Y-115140500D01*
X150409166Y-115309833D01*
X150366833Y-115394500D01*
X150324500Y-115436833D01*
X150239833Y-115479166D01*
X150155166Y-115479166D01*
X150070500Y-115436833D01*
X150028166Y-115394500D01*
X149985833Y-115309833D01*
X149943500Y-115140500D01*
X149943500Y-114928833D01*
X149985833Y-114759500D01*
X150028166Y-114674833D01*
X150070500Y-114632500D01*
X150155166Y-114590166D01*
X150832500Y-115479166D02*
X150832500Y-114590166D01*
X150917166Y-115140500D02*
X151171166Y-115479166D01*
X151171166Y-114886500D02*
X150832500Y-115225166D01*
G04 #@! TO.C,R107*
X149039166Y-117758166D02*
X148742833Y-117334833D01*
X148531166Y-117758166D02*
X148531166Y-116869166D01*
X148869833Y-116869166D01*
X148954500Y-116911500D01*
X148996833Y-116953833D01*
X149039166Y-117038500D01*
X149039166Y-117165500D01*
X148996833Y-117250166D01*
X148954500Y-117292500D01*
X148869833Y-117334833D01*
X148531166Y-117334833D01*
X149885833Y-117758166D02*
X149377833Y-117758166D01*
X149631833Y-117758166D02*
X149631833Y-116869166D01*
X149547166Y-116996166D01*
X149462500Y-117080833D01*
X149377833Y-117123166D01*
X150436166Y-116869166D02*
X150520833Y-116869166D01*
X150605500Y-116911500D01*
X150647833Y-116953833D01*
X150690166Y-117038500D01*
X150732500Y-117207833D01*
X150732500Y-117419500D01*
X150690166Y-117588833D01*
X150647833Y-117673500D01*
X150605500Y-117715833D01*
X150520833Y-117758166D01*
X150436166Y-117758166D01*
X150351500Y-117715833D01*
X150309166Y-117673500D01*
X150266833Y-117588833D01*
X150224500Y-117419500D01*
X150224500Y-117207833D01*
X150266833Y-117038500D01*
X150309166Y-116953833D01*
X150351500Y-116911500D01*
X150436166Y-116869166D01*
X151028833Y-116869166D02*
X151621500Y-116869166D01*
X151240500Y-117758166D01*
X149054500Y-118908166D02*
X148546500Y-118908166D01*
X148800500Y-118908166D02*
X148800500Y-118019166D01*
X148715833Y-118146166D01*
X148631166Y-118230833D01*
X148546500Y-118273166D01*
X149604833Y-118019166D02*
X149689500Y-118019166D01*
X149774166Y-118061500D01*
X149816500Y-118103833D01*
X149858833Y-118188500D01*
X149901166Y-118357833D01*
X149901166Y-118569500D01*
X149858833Y-118738833D01*
X149816500Y-118823500D01*
X149774166Y-118865833D01*
X149689500Y-118908166D01*
X149604833Y-118908166D01*
X149520166Y-118865833D01*
X149477833Y-118823500D01*
X149435500Y-118738833D01*
X149393166Y-118569500D01*
X149393166Y-118357833D01*
X149435500Y-118188500D01*
X149477833Y-118103833D01*
X149520166Y-118061500D01*
X149604833Y-118019166D01*
X150282166Y-118908166D02*
X150282166Y-118019166D01*
X150366833Y-118569500D02*
X150620833Y-118908166D01*
X150620833Y-118315500D02*
X150282166Y-118654166D01*
X151001833Y-118569500D02*
X151679166Y-118569500D01*
X151340500Y-118908166D02*
X151340500Y-118230833D01*
G04 #@! TO.C,R108*
X149039166Y-121187166D02*
X148742833Y-120763833D01*
X148531166Y-121187166D02*
X148531166Y-120298166D01*
X148869833Y-120298166D01*
X148954500Y-120340500D01*
X148996833Y-120382833D01*
X149039166Y-120467500D01*
X149039166Y-120594500D01*
X148996833Y-120679166D01*
X148954500Y-120721500D01*
X148869833Y-120763833D01*
X148531166Y-120763833D01*
X149885833Y-121187166D02*
X149377833Y-121187166D01*
X149631833Y-121187166D02*
X149631833Y-120298166D01*
X149547166Y-120425166D01*
X149462500Y-120509833D01*
X149377833Y-120552166D01*
X150436166Y-120298166D02*
X150520833Y-120298166D01*
X150605500Y-120340500D01*
X150647833Y-120382833D01*
X150690166Y-120467500D01*
X150732500Y-120636833D01*
X150732500Y-120848500D01*
X150690166Y-121017833D01*
X150647833Y-121102500D01*
X150605500Y-121144833D01*
X150520833Y-121187166D01*
X150436166Y-121187166D01*
X150351500Y-121144833D01*
X150309166Y-121102500D01*
X150266833Y-121017833D01*
X150224500Y-120848500D01*
X150224500Y-120636833D01*
X150266833Y-120467500D01*
X150309166Y-120382833D01*
X150351500Y-120340500D01*
X150436166Y-120298166D01*
X151240500Y-120679166D02*
X151155833Y-120636833D01*
X151113500Y-120594500D01*
X151071166Y-120509833D01*
X151071166Y-120467500D01*
X151113500Y-120382833D01*
X151155833Y-120340500D01*
X151240500Y-120298166D01*
X151409833Y-120298166D01*
X151494500Y-120340500D01*
X151536833Y-120382833D01*
X151579166Y-120467500D01*
X151579166Y-120509833D01*
X151536833Y-120594500D01*
X151494500Y-120636833D01*
X151409833Y-120679166D01*
X151240500Y-120679166D01*
X151155833Y-120721500D01*
X151113500Y-120763833D01*
X151071166Y-120848500D01*
X151071166Y-121017833D01*
X151113500Y-121102500D01*
X151155833Y-121144833D01*
X151240500Y-121187166D01*
X151409833Y-121187166D01*
X151494500Y-121144833D01*
X151536833Y-121102500D01*
X151579166Y-121017833D01*
X151579166Y-120848500D01*
X151536833Y-120763833D01*
X151494500Y-120721500D01*
X151409833Y-120679166D01*
X149096833Y-121532833D02*
X149139166Y-121490500D01*
X149223833Y-121448166D01*
X149435500Y-121448166D01*
X149520166Y-121490500D01*
X149562500Y-121532833D01*
X149604833Y-121617500D01*
X149604833Y-121702166D01*
X149562500Y-121829166D01*
X149054500Y-122337166D01*
X149604833Y-122337166D01*
X150155166Y-121448166D02*
X150239833Y-121448166D01*
X150324500Y-121490500D01*
X150366833Y-121532833D01*
X150409166Y-121617500D01*
X150451500Y-121786833D01*
X150451500Y-121998500D01*
X150409166Y-122167833D01*
X150366833Y-122252500D01*
X150324500Y-122294833D01*
X150239833Y-122337166D01*
X150155166Y-122337166D01*
X150070500Y-122294833D01*
X150028166Y-122252500D01*
X149985833Y-122167833D01*
X149943500Y-121998500D01*
X149943500Y-121786833D01*
X149985833Y-121617500D01*
X150028166Y-121532833D01*
X150070500Y-121490500D01*
X150155166Y-121448166D01*
X150832500Y-122337166D02*
X150832500Y-121448166D01*
X150917166Y-121998500D02*
X151171166Y-122337166D01*
X151171166Y-121744500D02*
X150832500Y-122083166D01*
G04 #@! TO.C,R109*
X172026166Y-121060166D02*
X171729833Y-120636833D01*
X171518166Y-121060166D02*
X171518166Y-120171166D01*
X171856833Y-120171166D01*
X171941500Y-120213500D01*
X171983833Y-120255833D01*
X172026166Y-120340500D01*
X172026166Y-120467500D01*
X171983833Y-120552166D01*
X171941500Y-120594500D01*
X171856833Y-120636833D01*
X171518166Y-120636833D01*
X172872833Y-121060166D02*
X172364833Y-121060166D01*
X172618833Y-121060166D02*
X172618833Y-120171166D01*
X172534166Y-120298166D01*
X172449500Y-120382833D01*
X172364833Y-120425166D01*
X173423166Y-120171166D02*
X173507833Y-120171166D01*
X173592500Y-120213500D01*
X173634833Y-120255833D01*
X173677166Y-120340500D01*
X173719500Y-120509833D01*
X173719500Y-120721500D01*
X173677166Y-120890833D01*
X173634833Y-120975500D01*
X173592500Y-121017833D01*
X173507833Y-121060166D01*
X173423166Y-121060166D01*
X173338500Y-121017833D01*
X173296166Y-120975500D01*
X173253833Y-120890833D01*
X173211500Y-120721500D01*
X173211500Y-120509833D01*
X173253833Y-120340500D01*
X173296166Y-120255833D01*
X173338500Y-120213500D01*
X173423166Y-120171166D01*
X174142833Y-121060166D02*
X174312166Y-121060166D01*
X174396833Y-121017833D01*
X174439166Y-120975500D01*
X174523833Y-120848500D01*
X174566166Y-120679166D01*
X174566166Y-120340500D01*
X174523833Y-120255833D01*
X174481500Y-120213500D01*
X174396833Y-120171166D01*
X174227500Y-120171166D01*
X174142833Y-120213500D01*
X174100500Y-120255833D01*
X174058166Y-120340500D01*
X174058166Y-120552166D01*
X174100500Y-120636833D01*
X174142833Y-120679166D01*
X174227500Y-120721500D01*
X174396833Y-120721500D01*
X174481500Y-120679166D01*
X174523833Y-120636833D01*
X174566166Y-120552166D01*
X172041500Y-122210166D02*
X171533500Y-122210166D01*
X171787500Y-122210166D02*
X171787500Y-121321166D01*
X171702833Y-121448166D01*
X171618166Y-121532833D01*
X171533500Y-121575166D01*
X172591833Y-121321166D02*
X172676500Y-121321166D01*
X172761166Y-121363500D01*
X172803500Y-121405833D01*
X172845833Y-121490500D01*
X172888166Y-121659833D01*
X172888166Y-121871500D01*
X172845833Y-122040833D01*
X172803500Y-122125500D01*
X172761166Y-122167833D01*
X172676500Y-122210166D01*
X172591833Y-122210166D01*
X172507166Y-122167833D01*
X172464833Y-122125500D01*
X172422500Y-122040833D01*
X172380166Y-121871500D01*
X172380166Y-121659833D01*
X172422500Y-121490500D01*
X172464833Y-121405833D01*
X172507166Y-121363500D01*
X172591833Y-121321166D01*
X173269166Y-122210166D02*
X173269166Y-121321166D01*
X173353833Y-121871500D02*
X173607833Y-122210166D01*
X173607833Y-121617500D02*
X173269166Y-121956166D01*
X173988833Y-121871500D02*
X174666166Y-121871500D01*
X174327500Y-122210166D02*
X174327500Y-121532833D01*
G04 #@! TO.C,R110*
X172186166Y-118758166D02*
X171889833Y-118334833D01*
X171678166Y-118758166D02*
X171678166Y-117869166D01*
X172016833Y-117869166D01*
X172101500Y-117911500D01*
X172143833Y-117953833D01*
X172186166Y-118038500D01*
X172186166Y-118165500D01*
X172143833Y-118250166D01*
X172101500Y-118292500D01*
X172016833Y-118334833D01*
X171678166Y-118334833D01*
X173032833Y-118758166D02*
X172524833Y-118758166D01*
X172778833Y-118758166D02*
X172778833Y-117869166D01*
X172694166Y-117996166D01*
X172609500Y-118080833D01*
X172524833Y-118123166D01*
X173879500Y-118758166D02*
X173371500Y-118758166D01*
X173625500Y-118758166D02*
X173625500Y-117869166D01*
X173540833Y-117996166D01*
X173456166Y-118080833D01*
X173371500Y-118123166D01*
X174429833Y-117869166D02*
X174514500Y-117869166D01*
X174599166Y-117911500D01*
X174641500Y-117953833D01*
X174683833Y-118038500D01*
X174726166Y-118207833D01*
X174726166Y-118419500D01*
X174683833Y-118588833D01*
X174641500Y-118673500D01*
X174599166Y-118715833D01*
X174514500Y-118758166D01*
X174429833Y-118758166D01*
X174345166Y-118715833D01*
X174302833Y-118673500D01*
X174260500Y-118588833D01*
X174218166Y-118419500D01*
X174218166Y-118207833D01*
X174260500Y-118038500D01*
X174302833Y-117953833D01*
X174345166Y-117911500D01*
X174429833Y-117869166D01*
X172043833Y-116803833D02*
X172086166Y-116761500D01*
X172170833Y-116719166D01*
X172382500Y-116719166D01*
X172467166Y-116761500D01*
X172509500Y-116803833D01*
X172551833Y-116888500D01*
X172551833Y-116973166D01*
X172509500Y-117100166D01*
X172001500Y-117608166D01*
X172551833Y-117608166D01*
X173102166Y-116719166D02*
X173186833Y-116719166D01*
X173271500Y-116761500D01*
X173313833Y-116803833D01*
X173356166Y-116888500D01*
X173398500Y-117057833D01*
X173398500Y-117269500D01*
X173356166Y-117438833D01*
X173313833Y-117523500D01*
X173271500Y-117565833D01*
X173186833Y-117608166D01*
X173102166Y-117608166D01*
X173017500Y-117565833D01*
X172975166Y-117523500D01*
X172932833Y-117438833D01*
X172890500Y-117269500D01*
X172890500Y-117057833D01*
X172932833Y-116888500D01*
X172975166Y-116803833D01*
X173017500Y-116761500D01*
X173102166Y-116719166D01*
X173779500Y-117608166D02*
X173779500Y-116719166D01*
X173864166Y-117269500D02*
X174118166Y-117608166D01*
X174118166Y-117015500D02*
X173779500Y-117354166D01*
G04 #@! TO.C,R111*
X172026166Y-114456166D02*
X171729833Y-114032833D01*
X171518166Y-114456166D02*
X171518166Y-113567166D01*
X171856833Y-113567166D01*
X171941500Y-113609500D01*
X171983833Y-113651833D01*
X172026166Y-113736500D01*
X172026166Y-113863500D01*
X171983833Y-113948166D01*
X171941500Y-113990500D01*
X171856833Y-114032833D01*
X171518166Y-114032833D01*
X172872833Y-114456166D02*
X172364833Y-114456166D01*
X172618833Y-114456166D02*
X172618833Y-113567166D01*
X172534166Y-113694166D01*
X172449500Y-113778833D01*
X172364833Y-113821166D01*
X173719500Y-114456166D02*
X173211500Y-114456166D01*
X173465500Y-114456166D02*
X173465500Y-113567166D01*
X173380833Y-113694166D01*
X173296166Y-113778833D01*
X173211500Y-113821166D01*
X174566166Y-114456166D02*
X174058166Y-114456166D01*
X174312166Y-114456166D02*
X174312166Y-113567166D01*
X174227500Y-113694166D01*
X174142833Y-113778833D01*
X174058166Y-113821166D01*
X172041500Y-115606166D02*
X171533500Y-115606166D01*
X171787500Y-115606166D02*
X171787500Y-114717166D01*
X171702833Y-114844166D01*
X171618166Y-114928833D01*
X171533500Y-114971166D01*
X172591833Y-114717166D02*
X172676500Y-114717166D01*
X172761166Y-114759500D01*
X172803500Y-114801833D01*
X172845833Y-114886500D01*
X172888166Y-115055833D01*
X172888166Y-115267500D01*
X172845833Y-115436833D01*
X172803500Y-115521500D01*
X172761166Y-115563833D01*
X172676500Y-115606166D01*
X172591833Y-115606166D01*
X172507166Y-115563833D01*
X172464833Y-115521500D01*
X172422500Y-115436833D01*
X172380166Y-115267500D01*
X172380166Y-115055833D01*
X172422500Y-114886500D01*
X172464833Y-114801833D01*
X172507166Y-114759500D01*
X172591833Y-114717166D01*
X173269166Y-115606166D02*
X173269166Y-114717166D01*
X173353833Y-115267500D02*
X173607833Y-115606166D01*
X173607833Y-115013500D02*
X173269166Y-115352166D01*
X173988833Y-115267500D02*
X174666166Y-115267500D01*
X174327500Y-115606166D02*
X174327500Y-114928833D01*
G04 #@! TO.C,R112*
X172186166Y-112154166D02*
X171889833Y-111730833D01*
X171678166Y-112154166D02*
X171678166Y-111265166D01*
X172016833Y-111265166D01*
X172101500Y-111307500D01*
X172143833Y-111349833D01*
X172186166Y-111434500D01*
X172186166Y-111561500D01*
X172143833Y-111646166D01*
X172101500Y-111688500D01*
X172016833Y-111730833D01*
X171678166Y-111730833D01*
X173032833Y-112154166D02*
X172524833Y-112154166D01*
X172778833Y-112154166D02*
X172778833Y-111265166D01*
X172694166Y-111392166D01*
X172609500Y-111476833D01*
X172524833Y-111519166D01*
X173879500Y-112154166D02*
X173371500Y-112154166D01*
X173625500Y-112154166D02*
X173625500Y-111265166D01*
X173540833Y-111392166D01*
X173456166Y-111476833D01*
X173371500Y-111519166D01*
X174218166Y-111349833D02*
X174260500Y-111307500D01*
X174345166Y-111265166D01*
X174556833Y-111265166D01*
X174641500Y-111307500D01*
X174683833Y-111349833D01*
X174726166Y-111434500D01*
X174726166Y-111519166D01*
X174683833Y-111646166D01*
X174175833Y-112154166D01*
X174726166Y-112154166D01*
X172043833Y-110199833D02*
X172086166Y-110157500D01*
X172170833Y-110115166D01*
X172382500Y-110115166D01*
X172467166Y-110157500D01*
X172509500Y-110199833D01*
X172551833Y-110284500D01*
X172551833Y-110369166D01*
X172509500Y-110496166D01*
X172001500Y-111004166D01*
X172551833Y-111004166D01*
X173102166Y-110115166D02*
X173186833Y-110115166D01*
X173271500Y-110157500D01*
X173313833Y-110199833D01*
X173356166Y-110284500D01*
X173398500Y-110453833D01*
X173398500Y-110665500D01*
X173356166Y-110834833D01*
X173313833Y-110919500D01*
X173271500Y-110961833D01*
X173186833Y-111004166D01*
X173102166Y-111004166D01*
X173017500Y-110961833D01*
X172975166Y-110919500D01*
X172932833Y-110834833D01*
X172890500Y-110665500D01*
X172890500Y-110453833D01*
X172932833Y-110284500D01*
X172975166Y-110199833D01*
X173017500Y-110157500D01*
X173102166Y-110115166D01*
X173779500Y-111004166D02*
X173779500Y-110115166D01*
X173864166Y-110665500D02*
X174118166Y-111004166D01*
X174118166Y-110411500D02*
X173779500Y-110750166D01*
G04 #@! TO.C,R113*
X172026166Y-107852166D02*
X171729833Y-107428833D01*
X171518166Y-107852166D02*
X171518166Y-106963166D01*
X171856833Y-106963166D01*
X171941500Y-107005500D01*
X171983833Y-107047833D01*
X172026166Y-107132500D01*
X172026166Y-107259500D01*
X171983833Y-107344166D01*
X171941500Y-107386500D01*
X171856833Y-107428833D01*
X171518166Y-107428833D01*
X172872833Y-107852166D02*
X172364833Y-107852166D01*
X172618833Y-107852166D02*
X172618833Y-106963166D01*
X172534166Y-107090166D01*
X172449500Y-107174833D01*
X172364833Y-107217166D01*
X173719500Y-107852166D02*
X173211500Y-107852166D01*
X173465500Y-107852166D02*
X173465500Y-106963166D01*
X173380833Y-107090166D01*
X173296166Y-107174833D01*
X173211500Y-107217166D01*
X174015833Y-106963166D02*
X174566166Y-106963166D01*
X174269833Y-107301833D01*
X174396833Y-107301833D01*
X174481500Y-107344166D01*
X174523833Y-107386500D01*
X174566166Y-107471166D01*
X174566166Y-107682833D01*
X174523833Y-107767500D01*
X174481500Y-107809833D01*
X174396833Y-107852166D01*
X174142833Y-107852166D01*
X174058166Y-107809833D01*
X174015833Y-107767500D01*
X172041500Y-109002166D02*
X171533500Y-109002166D01*
X171787500Y-109002166D02*
X171787500Y-108113166D01*
X171702833Y-108240166D01*
X171618166Y-108324833D01*
X171533500Y-108367166D01*
X172591833Y-108113166D02*
X172676500Y-108113166D01*
X172761166Y-108155500D01*
X172803500Y-108197833D01*
X172845833Y-108282500D01*
X172888166Y-108451833D01*
X172888166Y-108663500D01*
X172845833Y-108832833D01*
X172803500Y-108917500D01*
X172761166Y-108959833D01*
X172676500Y-109002166D01*
X172591833Y-109002166D01*
X172507166Y-108959833D01*
X172464833Y-108917500D01*
X172422500Y-108832833D01*
X172380166Y-108663500D01*
X172380166Y-108451833D01*
X172422500Y-108282500D01*
X172464833Y-108197833D01*
X172507166Y-108155500D01*
X172591833Y-108113166D01*
X173269166Y-109002166D02*
X173269166Y-108113166D01*
X173353833Y-108663500D02*
X173607833Y-109002166D01*
X173607833Y-108409500D02*
X173269166Y-108748166D01*
X173988833Y-108663500D02*
X174666166Y-108663500D01*
X174327500Y-109002166D02*
X174327500Y-108324833D01*
G04 #@! TO.C,R114*
X172186166Y-105550166D02*
X171889833Y-105126833D01*
X171678166Y-105550166D02*
X171678166Y-104661166D01*
X172016833Y-104661166D01*
X172101500Y-104703500D01*
X172143833Y-104745833D01*
X172186166Y-104830500D01*
X172186166Y-104957500D01*
X172143833Y-105042166D01*
X172101500Y-105084500D01*
X172016833Y-105126833D01*
X171678166Y-105126833D01*
X173032833Y-105550166D02*
X172524833Y-105550166D01*
X172778833Y-105550166D02*
X172778833Y-104661166D01*
X172694166Y-104788166D01*
X172609500Y-104872833D01*
X172524833Y-104915166D01*
X173879500Y-105550166D02*
X173371500Y-105550166D01*
X173625500Y-105550166D02*
X173625500Y-104661166D01*
X173540833Y-104788166D01*
X173456166Y-104872833D01*
X173371500Y-104915166D01*
X174641500Y-104957500D02*
X174641500Y-105550166D01*
X174429833Y-104618833D02*
X174218166Y-105253833D01*
X174768500Y-105253833D01*
X172043833Y-103595833D02*
X172086166Y-103553500D01*
X172170833Y-103511166D01*
X172382500Y-103511166D01*
X172467166Y-103553500D01*
X172509500Y-103595833D01*
X172551833Y-103680500D01*
X172551833Y-103765166D01*
X172509500Y-103892166D01*
X172001500Y-104400166D01*
X172551833Y-104400166D01*
X173102166Y-103511166D02*
X173186833Y-103511166D01*
X173271500Y-103553500D01*
X173313833Y-103595833D01*
X173356166Y-103680500D01*
X173398500Y-103849833D01*
X173398500Y-104061500D01*
X173356166Y-104230833D01*
X173313833Y-104315500D01*
X173271500Y-104357833D01*
X173186833Y-104400166D01*
X173102166Y-104400166D01*
X173017500Y-104357833D01*
X172975166Y-104315500D01*
X172932833Y-104230833D01*
X172890500Y-104061500D01*
X172890500Y-103849833D01*
X172932833Y-103680500D01*
X172975166Y-103595833D01*
X173017500Y-103553500D01*
X173102166Y-103511166D01*
X173779500Y-104400166D02*
X173779500Y-103511166D01*
X173864166Y-104061500D02*
X174118166Y-104400166D01*
X174118166Y-103807500D02*
X173779500Y-104146166D01*
G04 #@! TO.C,R115*
X172026166Y-101248166D02*
X171729833Y-100824833D01*
X171518166Y-101248166D02*
X171518166Y-100359166D01*
X171856833Y-100359166D01*
X171941500Y-100401500D01*
X171983833Y-100443833D01*
X172026166Y-100528500D01*
X172026166Y-100655500D01*
X171983833Y-100740166D01*
X171941500Y-100782500D01*
X171856833Y-100824833D01*
X171518166Y-100824833D01*
X172872833Y-101248166D02*
X172364833Y-101248166D01*
X172618833Y-101248166D02*
X172618833Y-100359166D01*
X172534166Y-100486166D01*
X172449500Y-100570833D01*
X172364833Y-100613166D01*
X173719500Y-101248166D02*
X173211500Y-101248166D01*
X173465500Y-101248166D02*
X173465500Y-100359166D01*
X173380833Y-100486166D01*
X173296166Y-100570833D01*
X173211500Y-100613166D01*
X174523833Y-100359166D02*
X174100500Y-100359166D01*
X174058166Y-100782500D01*
X174100500Y-100740166D01*
X174185166Y-100697833D01*
X174396833Y-100697833D01*
X174481500Y-100740166D01*
X174523833Y-100782500D01*
X174566166Y-100867166D01*
X174566166Y-101078833D01*
X174523833Y-101163500D01*
X174481500Y-101205833D01*
X174396833Y-101248166D01*
X174185166Y-101248166D01*
X174100500Y-101205833D01*
X174058166Y-101163500D01*
X172041500Y-102398166D02*
X171533500Y-102398166D01*
X171787500Y-102398166D02*
X171787500Y-101509166D01*
X171702833Y-101636166D01*
X171618166Y-101720833D01*
X171533500Y-101763166D01*
X172591833Y-101509166D02*
X172676500Y-101509166D01*
X172761166Y-101551500D01*
X172803500Y-101593833D01*
X172845833Y-101678500D01*
X172888166Y-101847833D01*
X172888166Y-102059500D01*
X172845833Y-102228833D01*
X172803500Y-102313500D01*
X172761166Y-102355833D01*
X172676500Y-102398166D01*
X172591833Y-102398166D01*
X172507166Y-102355833D01*
X172464833Y-102313500D01*
X172422500Y-102228833D01*
X172380166Y-102059500D01*
X172380166Y-101847833D01*
X172422500Y-101678500D01*
X172464833Y-101593833D01*
X172507166Y-101551500D01*
X172591833Y-101509166D01*
X173269166Y-102398166D02*
X173269166Y-101509166D01*
X173353833Y-102059500D02*
X173607833Y-102398166D01*
X173607833Y-101805500D02*
X173269166Y-102144166D01*
X173988833Y-102059500D02*
X174666166Y-102059500D01*
X174327500Y-102398166D02*
X174327500Y-101720833D01*
G04 #@! TO.C,R116*
X149249966Y-81267766D02*
X148953633Y-80844433D01*
X148741966Y-81267766D02*
X148741966Y-80378766D01*
X149080633Y-80378766D01*
X149165300Y-80421100D01*
X149207633Y-80463433D01*
X149249966Y-80548100D01*
X149249966Y-80675100D01*
X149207633Y-80759766D01*
X149165300Y-80802100D01*
X149080633Y-80844433D01*
X148741966Y-80844433D01*
X150096633Y-81267766D02*
X149588633Y-81267766D01*
X149842633Y-81267766D02*
X149842633Y-80378766D01*
X149757966Y-80505766D01*
X149673300Y-80590433D01*
X149588633Y-80632766D01*
X150943300Y-81267766D02*
X150435300Y-81267766D01*
X150689300Y-81267766D02*
X150689300Y-80378766D01*
X150604633Y-80505766D01*
X150519966Y-80590433D01*
X150435300Y-80632766D01*
X151705300Y-80378766D02*
X151535966Y-80378766D01*
X151451300Y-80421100D01*
X151408966Y-80463433D01*
X151324300Y-80590433D01*
X151281966Y-80759766D01*
X151281966Y-81098433D01*
X151324300Y-81183100D01*
X151366633Y-81225433D01*
X151451300Y-81267766D01*
X151620633Y-81267766D01*
X151705300Y-81225433D01*
X151747633Y-81183100D01*
X151789966Y-81098433D01*
X151789966Y-80886766D01*
X151747633Y-80802100D01*
X151705300Y-80759766D01*
X151620633Y-80717433D01*
X151451300Y-80717433D01*
X151366633Y-80759766D01*
X151324300Y-80802100D01*
X151281966Y-80886766D01*
X149615633Y-80117766D02*
X149107633Y-80117766D01*
X149361633Y-80117766D02*
X149361633Y-79228766D01*
X149276966Y-79355766D01*
X149192300Y-79440433D01*
X149107633Y-79482766D01*
X150165966Y-79228766D02*
X150250633Y-79228766D01*
X150335300Y-79271100D01*
X150377633Y-79313433D01*
X150419966Y-79398100D01*
X150462300Y-79567433D01*
X150462300Y-79779100D01*
X150419966Y-79948433D01*
X150377633Y-80033100D01*
X150335300Y-80075433D01*
X150250633Y-80117766D01*
X150165966Y-80117766D01*
X150081300Y-80075433D01*
X150038966Y-80033100D01*
X149996633Y-79948433D01*
X149954300Y-79779100D01*
X149954300Y-79567433D01*
X149996633Y-79398100D01*
X150038966Y-79313433D01*
X150081300Y-79271100D01*
X150165966Y-79228766D01*
X150843300Y-80117766D02*
X150843300Y-79228766D01*
X150927966Y-79779100D02*
X151181966Y-80117766D01*
X151181966Y-79525100D02*
X150843300Y-79863766D01*
G04 #@! TO.C,R117*
X172186166Y-98946166D02*
X171889833Y-98522833D01*
X171678166Y-98946166D02*
X171678166Y-98057166D01*
X172016833Y-98057166D01*
X172101500Y-98099500D01*
X172143833Y-98141833D01*
X172186166Y-98226500D01*
X172186166Y-98353500D01*
X172143833Y-98438166D01*
X172101500Y-98480500D01*
X172016833Y-98522833D01*
X171678166Y-98522833D01*
X173032833Y-98946166D02*
X172524833Y-98946166D01*
X172778833Y-98946166D02*
X172778833Y-98057166D01*
X172694166Y-98184166D01*
X172609500Y-98268833D01*
X172524833Y-98311166D01*
X173879500Y-98946166D02*
X173371500Y-98946166D01*
X173625500Y-98946166D02*
X173625500Y-98057166D01*
X173540833Y-98184166D01*
X173456166Y-98268833D01*
X173371500Y-98311166D01*
X174175833Y-98057166D02*
X174768500Y-98057166D01*
X174387500Y-98946166D01*
X172043833Y-96991833D02*
X172086166Y-96949500D01*
X172170833Y-96907166D01*
X172382500Y-96907166D01*
X172467166Y-96949500D01*
X172509500Y-96991833D01*
X172551833Y-97076500D01*
X172551833Y-97161166D01*
X172509500Y-97288166D01*
X172001500Y-97796166D01*
X172551833Y-97796166D01*
X173102166Y-96907166D02*
X173186833Y-96907166D01*
X173271500Y-96949500D01*
X173313833Y-96991833D01*
X173356166Y-97076500D01*
X173398500Y-97245833D01*
X173398500Y-97457500D01*
X173356166Y-97626833D01*
X173313833Y-97711500D01*
X173271500Y-97753833D01*
X173186833Y-97796166D01*
X173102166Y-97796166D01*
X173017500Y-97753833D01*
X172975166Y-97711500D01*
X172932833Y-97626833D01*
X172890500Y-97457500D01*
X172890500Y-97245833D01*
X172932833Y-97076500D01*
X172975166Y-96991833D01*
X173017500Y-96949500D01*
X173102166Y-96907166D01*
X173779500Y-97796166D02*
X173779500Y-96907166D01*
X173864166Y-97457500D02*
X174118166Y-97796166D01*
X174118166Y-97203500D02*
X173779500Y-97542166D01*
G04 #@! TO.C,R118*
X149039166Y-83874566D02*
X148742833Y-83451233D01*
X148531166Y-83874566D02*
X148531166Y-82985566D01*
X148869833Y-82985566D01*
X148954500Y-83027900D01*
X148996833Y-83070233D01*
X149039166Y-83154900D01*
X149039166Y-83281900D01*
X148996833Y-83366566D01*
X148954500Y-83408900D01*
X148869833Y-83451233D01*
X148531166Y-83451233D01*
X149885833Y-83874566D02*
X149377833Y-83874566D01*
X149631833Y-83874566D02*
X149631833Y-82985566D01*
X149547166Y-83112566D01*
X149462500Y-83197233D01*
X149377833Y-83239566D01*
X150732500Y-83874566D02*
X150224500Y-83874566D01*
X150478500Y-83874566D02*
X150478500Y-82985566D01*
X150393833Y-83112566D01*
X150309166Y-83197233D01*
X150224500Y-83239566D01*
X151240500Y-83366566D02*
X151155833Y-83324233D01*
X151113500Y-83281900D01*
X151071166Y-83197233D01*
X151071166Y-83154900D01*
X151113500Y-83070233D01*
X151155833Y-83027900D01*
X151240500Y-82985566D01*
X151409833Y-82985566D01*
X151494500Y-83027900D01*
X151536833Y-83070233D01*
X151579166Y-83154900D01*
X151579166Y-83197233D01*
X151536833Y-83281900D01*
X151494500Y-83324233D01*
X151409833Y-83366566D01*
X151240500Y-83366566D01*
X151155833Y-83408900D01*
X151113500Y-83451233D01*
X151071166Y-83535900D01*
X151071166Y-83705233D01*
X151113500Y-83789900D01*
X151155833Y-83832233D01*
X151240500Y-83874566D01*
X151409833Y-83874566D01*
X151494500Y-83832233D01*
X151536833Y-83789900D01*
X151579166Y-83705233D01*
X151579166Y-83535900D01*
X151536833Y-83451233D01*
X151494500Y-83408900D01*
X151409833Y-83366566D01*
X149604833Y-85024566D02*
X149096833Y-85024566D01*
X149350833Y-85024566D02*
X149350833Y-84135566D01*
X149266166Y-84262566D01*
X149181500Y-84347233D01*
X149096833Y-84389566D01*
X150155166Y-84135566D02*
X150239833Y-84135566D01*
X150324500Y-84177900D01*
X150366833Y-84220233D01*
X150409166Y-84304900D01*
X150451500Y-84474233D01*
X150451500Y-84685900D01*
X150409166Y-84855233D01*
X150366833Y-84939900D01*
X150324500Y-84982233D01*
X150239833Y-85024566D01*
X150155166Y-85024566D01*
X150070500Y-84982233D01*
X150028166Y-84939900D01*
X149985833Y-84855233D01*
X149943500Y-84685900D01*
X149943500Y-84474233D01*
X149985833Y-84304900D01*
X150028166Y-84220233D01*
X150070500Y-84177900D01*
X150155166Y-84135566D01*
X150832500Y-85024566D02*
X150832500Y-84135566D01*
X150917166Y-84685900D02*
X151171166Y-85024566D01*
X151171166Y-84431900D02*
X150832500Y-84770566D01*
G04 #@! TO.C,R119*
X149199166Y-75578166D02*
X148902833Y-75154833D01*
X148691166Y-75578166D02*
X148691166Y-74689166D01*
X149029833Y-74689166D01*
X149114500Y-74731500D01*
X149156833Y-74773833D01*
X149199166Y-74858500D01*
X149199166Y-74985500D01*
X149156833Y-75070166D01*
X149114500Y-75112500D01*
X149029833Y-75154833D01*
X148691166Y-75154833D01*
X150045833Y-75578166D02*
X149537833Y-75578166D01*
X149791833Y-75578166D02*
X149791833Y-74689166D01*
X149707166Y-74816166D01*
X149622500Y-74900833D01*
X149537833Y-74943166D01*
X150892500Y-75578166D02*
X150384500Y-75578166D01*
X150638500Y-75578166D02*
X150638500Y-74689166D01*
X150553833Y-74816166D01*
X150469166Y-74900833D01*
X150384500Y-74943166D01*
X151315833Y-75578166D02*
X151485166Y-75578166D01*
X151569833Y-75535833D01*
X151612166Y-75493500D01*
X151696833Y-75366500D01*
X151739166Y-75197166D01*
X151739166Y-74858500D01*
X151696833Y-74773833D01*
X151654500Y-74731500D01*
X151569833Y-74689166D01*
X151400500Y-74689166D01*
X151315833Y-74731500D01*
X151273500Y-74773833D01*
X151231166Y-74858500D01*
X151231166Y-75070166D01*
X151273500Y-75154833D01*
X151315833Y-75197166D01*
X151400500Y-75239500D01*
X151569833Y-75239500D01*
X151654500Y-75197166D01*
X151696833Y-75154833D01*
X151739166Y-75070166D01*
X149416666Y-73835500D02*
X149416666Y-74428166D01*
X149205000Y-73496833D02*
X148993333Y-74131833D01*
X149543666Y-74131833D01*
X149797666Y-73539166D02*
X150390333Y-73539166D01*
X150009333Y-74428166D01*
X150898333Y-73539166D02*
X150983000Y-73539166D01*
X151067666Y-73581500D01*
X151110000Y-73623833D01*
X151152333Y-73708500D01*
X151194666Y-73877833D01*
X151194666Y-74089500D01*
X151152333Y-74258833D01*
X151110000Y-74343500D01*
X151067666Y-74385833D01*
X150983000Y-74428166D01*
X150898333Y-74428166D01*
X150813666Y-74385833D01*
X150771333Y-74343500D01*
X150729000Y-74258833D01*
X150686666Y-74089500D01*
X150686666Y-73877833D01*
X150729000Y-73708500D01*
X150771333Y-73623833D01*
X150813666Y-73581500D01*
X150898333Y-73539166D01*
G04 #@! TO.C,R120*
X206769166Y-121056833D02*
X206345833Y-121353166D01*
X206769166Y-121564833D02*
X205880166Y-121564833D01*
X205880166Y-121226166D01*
X205922500Y-121141500D01*
X205964833Y-121099166D01*
X206049500Y-121056833D01*
X206176500Y-121056833D01*
X206261166Y-121099166D01*
X206303500Y-121141500D01*
X206345833Y-121226166D01*
X206345833Y-121564833D01*
X206769166Y-120210166D02*
X206769166Y-120718166D01*
X206769166Y-120464166D02*
X205880166Y-120464166D01*
X206007166Y-120548833D01*
X206091833Y-120633500D01*
X206134166Y-120718166D01*
X205964833Y-119871500D02*
X205922500Y-119829166D01*
X205880166Y-119744500D01*
X205880166Y-119532833D01*
X205922500Y-119448166D01*
X205964833Y-119405833D01*
X206049500Y-119363500D01*
X206134166Y-119363500D01*
X206261166Y-119405833D01*
X206769166Y-119913833D01*
X206769166Y-119363500D01*
X205880166Y-118813166D02*
X205880166Y-118728500D01*
X205922500Y-118643833D01*
X205964833Y-118601500D01*
X206049500Y-118559166D01*
X206218833Y-118516833D01*
X206430500Y-118516833D01*
X206599833Y-118559166D01*
X206684500Y-118601500D01*
X206726833Y-118643833D01*
X206769166Y-118728500D01*
X206769166Y-118813166D01*
X206726833Y-118897833D01*
X206684500Y-118940166D01*
X206599833Y-118982500D01*
X206430500Y-119024833D01*
X206218833Y-119024833D01*
X206049500Y-118982500D01*
X205964833Y-118940166D01*
X205922500Y-118897833D01*
X205880166Y-118813166D01*
X205026500Y-120775833D02*
X205619166Y-120775833D01*
X204687833Y-120987500D02*
X205322833Y-121199166D01*
X205322833Y-120648833D01*
X205619166Y-120310166D02*
X204730166Y-120310166D01*
X205280500Y-120225500D02*
X205619166Y-119971500D01*
X205026500Y-119971500D02*
X205365166Y-120310166D01*
X204730166Y-119675166D02*
X204730166Y-119082500D01*
X205619166Y-119463500D01*
G04 #@! TO.C,R121*
X203340166Y-121056833D02*
X202916833Y-121353166D01*
X203340166Y-121564833D02*
X202451166Y-121564833D01*
X202451166Y-121226166D01*
X202493500Y-121141500D01*
X202535833Y-121099166D01*
X202620500Y-121056833D01*
X202747500Y-121056833D01*
X202832166Y-121099166D01*
X202874500Y-121141500D01*
X202916833Y-121226166D01*
X202916833Y-121564833D01*
X203340166Y-120210166D02*
X203340166Y-120718166D01*
X203340166Y-120464166D02*
X202451166Y-120464166D01*
X202578166Y-120548833D01*
X202662833Y-120633500D01*
X202705166Y-120718166D01*
X202535833Y-119871500D02*
X202493500Y-119829166D01*
X202451166Y-119744500D01*
X202451166Y-119532833D01*
X202493500Y-119448166D01*
X202535833Y-119405833D01*
X202620500Y-119363500D01*
X202705166Y-119363500D01*
X202832166Y-119405833D01*
X203340166Y-119913833D01*
X203340166Y-119363500D01*
X203340166Y-118516833D02*
X203340166Y-119024833D01*
X203340166Y-118770833D02*
X202451166Y-118770833D01*
X202578166Y-118855500D01*
X202662833Y-118940166D01*
X202705166Y-119024833D01*
X201597500Y-120775833D02*
X202190166Y-120775833D01*
X201258833Y-120987500D02*
X201893833Y-121199166D01*
X201893833Y-120648833D01*
X202190166Y-120310166D02*
X201301166Y-120310166D01*
X201851500Y-120225500D02*
X202190166Y-119971500D01*
X201597500Y-119971500D02*
X201936166Y-120310166D01*
X201301166Y-119675166D02*
X201301166Y-119082500D01*
X202190166Y-119463500D01*
G04 #@! TO.C,R122*
X149148366Y-91681766D02*
X148852033Y-91258433D01*
X148640366Y-91681766D02*
X148640366Y-90792766D01*
X148979033Y-90792766D01*
X149063700Y-90835100D01*
X149106033Y-90877433D01*
X149148366Y-90962100D01*
X149148366Y-91089100D01*
X149106033Y-91173766D01*
X149063700Y-91216100D01*
X148979033Y-91258433D01*
X148640366Y-91258433D01*
X149995033Y-91681766D02*
X149487033Y-91681766D01*
X149741033Y-91681766D02*
X149741033Y-90792766D01*
X149656366Y-90919766D01*
X149571700Y-91004433D01*
X149487033Y-91046766D01*
X150333700Y-90877433D02*
X150376033Y-90835100D01*
X150460700Y-90792766D01*
X150672366Y-90792766D01*
X150757033Y-90835100D01*
X150799366Y-90877433D01*
X150841700Y-90962100D01*
X150841700Y-91046766D01*
X150799366Y-91173766D01*
X150291366Y-91681766D01*
X150841700Y-91681766D01*
X151180366Y-90877433D02*
X151222700Y-90835100D01*
X151307366Y-90792766D01*
X151519033Y-90792766D01*
X151603700Y-90835100D01*
X151646033Y-90877433D01*
X151688366Y-90962100D01*
X151688366Y-91046766D01*
X151646033Y-91173766D01*
X151138033Y-91681766D01*
X151688366Y-91681766D01*
X149175366Y-90023766D02*
X149090700Y-89981433D01*
X149048366Y-89939100D01*
X149006033Y-89854433D01*
X149006033Y-89812100D01*
X149048366Y-89727433D01*
X149090700Y-89685100D01*
X149175366Y-89642766D01*
X149344700Y-89642766D01*
X149429366Y-89685100D01*
X149471700Y-89727433D01*
X149514033Y-89812100D01*
X149514033Y-89854433D01*
X149471700Y-89939100D01*
X149429366Y-89981433D01*
X149344700Y-90023766D01*
X149175366Y-90023766D01*
X149090700Y-90066100D01*
X149048366Y-90108433D01*
X149006033Y-90193100D01*
X149006033Y-90362433D01*
X149048366Y-90447100D01*
X149090700Y-90489433D01*
X149175366Y-90531766D01*
X149344700Y-90531766D01*
X149429366Y-90489433D01*
X149471700Y-90447100D01*
X149514033Y-90362433D01*
X149514033Y-90193100D01*
X149471700Y-90108433D01*
X149429366Y-90066100D01*
X149344700Y-90023766D01*
X149895033Y-90531766D02*
X149895033Y-89642766D01*
X149979700Y-90193100D02*
X150233700Y-90531766D01*
X150233700Y-89939100D02*
X149895033Y-90277766D01*
X150572366Y-89727433D02*
X150614700Y-89685100D01*
X150699366Y-89642766D01*
X150911033Y-89642766D01*
X150995700Y-89685100D01*
X151038033Y-89727433D01*
X151080366Y-89812100D01*
X151080366Y-89896766D01*
X151038033Y-90023766D01*
X150530033Y-90531766D01*
X151080366Y-90531766D01*
G04 #@! TO.C,R123*
X183274166Y-70256833D02*
X182850833Y-70553166D01*
X183274166Y-70764833D02*
X182385166Y-70764833D01*
X182385166Y-70426166D01*
X182427500Y-70341500D01*
X182469833Y-70299166D01*
X182554500Y-70256833D01*
X182681500Y-70256833D01*
X182766166Y-70299166D01*
X182808500Y-70341500D01*
X182850833Y-70426166D01*
X182850833Y-70764833D01*
X183274166Y-69410166D02*
X183274166Y-69918166D01*
X183274166Y-69664166D02*
X182385166Y-69664166D01*
X182512166Y-69748833D01*
X182596833Y-69833500D01*
X182639166Y-69918166D01*
X182469833Y-69071500D02*
X182427500Y-69029166D01*
X182385166Y-68944500D01*
X182385166Y-68732833D01*
X182427500Y-68648166D01*
X182469833Y-68605833D01*
X182554500Y-68563500D01*
X182639166Y-68563500D01*
X182766166Y-68605833D01*
X183274166Y-69113833D01*
X183274166Y-68563500D01*
X182385166Y-68267166D02*
X182385166Y-67716833D01*
X182723833Y-68013166D01*
X182723833Y-67886166D01*
X182766166Y-67801500D01*
X182808500Y-67759166D01*
X182893166Y-67716833D01*
X183104833Y-67716833D01*
X183189500Y-67759166D01*
X183231833Y-67801500D01*
X183274166Y-67886166D01*
X183274166Y-68140166D01*
X183231833Y-68224833D01*
X183189500Y-68267166D01*
X182124166Y-69616000D02*
X182124166Y-70124000D01*
X182124166Y-69870000D02*
X181235166Y-69870000D01*
X181362166Y-69954666D01*
X181446833Y-70039333D01*
X181489166Y-70124000D01*
X182124166Y-69235000D02*
X181235166Y-69235000D01*
X181870166Y-68938666D01*
X181235166Y-68642333D01*
X182124166Y-68642333D01*
G04 #@! TO.C,R124*
X148988366Y-87328966D02*
X148692033Y-86905633D01*
X148480366Y-87328966D02*
X148480366Y-86439966D01*
X148819033Y-86439966D01*
X148903700Y-86482300D01*
X148946033Y-86524633D01*
X148988366Y-86609300D01*
X148988366Y-86736300D01*
X148946033Y-86820966D01*
X148903700Y-86863300D01*
X148819033Y-86905633D01*
X148480366Y-86905633D01*
X149835033Y-87328966D02*
X149327033Y-87328966D01*
X149581033Y-87328966D02*
X149581033Y-86439966D01*
X149496366Y-86566966D01*
X149411700Y-86651633D01*
X149327033Y-86693966D01*
X150173700Y-86524633D02*
X150216033Y-86482300D01*
X150300700Y-86439966D01*
X150512366Y-86439966D01*
X150597033Y-86482300D01*
X150639366Y-86524633D01*
X150681700Y-86609300D01*
X150681700Y-86693966D01*
X150639366Y-86820966D01*
X150131366Y-87328966D01*
X150681700Y-87328966D01*
X151443700Y-86736300D02*
X151443700Y-87328966D01*
X151232033Y-86397633D02*
X151020366Y-87032633D01*
X151570700Y-87032633D01*
X149554033Y-88478966D02*
X149046033Y-88478966D01*
X149300033Y-88478966D02*
X149300033Y-87589966D01*
X149215366Y-87716966D01*
X149130700Y-87801633D01*
X149046033Y-87843966D01*
X150104366Y-87589966D02*
X150189033Y-87589966D01*
X150273700Y-87632300D01*
X150316033Y-87674633D01*
X150358366Y-87759300D01*
X150400700Y-87928633D01*
X150400700Y-88140300D01*
X150358366Y-88309633D01*
X150316033Y-88394300D01*
X150273700Y-88436633D01*
X150189033Y-88478966D01*
X150104366Y-88478966D01*
X150019700Y-88436633D01*
X149977366Y-88394300D01*
X149935033Y-88309633D01*
X149892700Y-88140300D01*
X149892700Y-87928633D01*
X149935033Y-87759300D01*
X149977366Y-87674633D01*
X150019700Y-87632300D01*
X150104366Y-87589966D01*
X150781700Y-88478966D02*
X150781700Y-87589966D01*
X150866366Y-88140300D02*
X151120366Y-88478966D01*
X151120366Y-87886300D02*
X150781700Y-88224966D01*
G04 #@! TO.C,R125*
X174180966Y-90424433D02*
X173757633Y-90720766D01*
X174180966Y-90932433D02*
X173291966Y-90932433D01*
X173291966Y-90593766D01*
X173334300Y-90509100D01*
X173376633Y-90466766D01*
X173461300Y-90424433D01*
X173588300Y-90424433D01*
X173672966Y-90466766D01*
X173715300Y-90509100D01*
X173757633Y-90593766D01*
X173757633Y-90932433D01*
X174180966Y-89577766D02*
X174180966Y-90085766D01*
X174180966Y-89831766D02*
X173291966Y-89831766D01*
X173418966Y-89916433D01*
X173503633Y-90001100D01*
X173545966Y-90085766D01*
X173376633Y-89239100D02*
X173334300Y-89196766D01*
X173291966Y-89112100D01*
X173291966Y-88900433D01*
X173334300Y-88815766D01*
X173376633Y-88773433D01*
X173461300Y-88731100D01*
X173545966Y-88731100D01*
X173672966Y-88773433D01*
X174180966Y-89281433D01*
X174180966Y-88731100D01*
X173291966Y-87926766D02*
X173291966Y-88350100D01*
X173715300Y-88392433D01*
X173672966Y-88350100D01*
X173630633Y-88265433D01*
X173630633Y-88053766D01*
X173672966Y-87969100D01*
X173715300Y-87926766D01*
X173799966Y-87884433D01*
X174011633Y-87884433D01*
X174096300Y-87926766D01*
X174138633Y-87969100D01*
X174180966Y-88053766D01*
X174180966Y-88265433D01*
X174138633Y-88350100D01*
X174096300Y-88392433D01*
X172438300Y-90143433D02*
X173030966Y-90143433D01*
X172099633Y-90355100D02*
X172734633Y-90566766D01*
X172734633Y-90016433D01*
X173030966Y-89677766D02*
X172141966Y-89677766D01*
X172692300Y-89593100D02*
X173030966Y-89339100D01*
X172438300Y-89339100D02*
X172776966Y-89677766D01*
X172141966Y-89042766D02*
X172141966Y-88450100D01*
X173030966Y-88831100D01*
G04 #@! TO.C,R128*
X183337666Y-82956833D02*
X182914333Y-83253166D01*
X183337666Y-83464833D02*
X182448666Y-83464833D01*
X182448666Y-83126166D01*
X182491000Y-83041500D01*
X182533333Y-82999166D01*
X182618000Y-82956833D01*
X182745000Y-82956833D01*
X182829666Y-82999166D01*
X182872000Y-83041500D01*
X182914333Y-83126166D01*
X182914333Y-83464833D01*
X183337666Y-82110166D02*
X183337666Y-82618166D01*
X183337666Y-82364166D02*
X182448666Y-82364166D01*
X182575666Y-82448833D01*
X182660333Y-82533500D01*
X182702666Y-82618166D01*
X182533333Y-81771500D02*
X182491000Y-81729166D01*
X182448666Y-81644500D01*
X182448666Y-81432833D01*
X182491000Y-81348166D01*
X182533333Y-81305833D01*
X182618000Y-81263500D01*
X182702666Y-81263500D01*
X182829666Y-81305833D01*
X183337666Y-81813833D01*
X183337666Y-81263500D01*
X182829666Y-80755500D02*
X182787333Y-80840166D01*
X182745000Y-80882500D01*
X182660333Y-80924833D01*
X182618000Y-80924833D01*
X182533333Y-80882500D01*
X182491000Y-80840166D01*
X182448666Y-80755500D01*
X182448666Y-80586166D01*
X182491000Y-80501500D01*
X182533333Y-80459166D01*
X182618000Y-80416833D01*
X182660333Y-80416833D01*
X182745000Y-80459166D01*
X182787333Y-80501500D01*
X182829666Y-80586166D01*
X182829666Y-80755500D01*
X182872000Y-80840166D01*
X182914333Y-80882500D01*
X182999000Y-80924833D01*
X183168333Y-80924833D01*
X183253000Y-80882500D01*
X183295333Y-80840166D01*
X183337666Y-80755500D01*
X183337666Y-80586166D01*
X183295333Y-80501500D01*
X183253000Y-80459166D01*
X183168333Y-80416833D01*
X182999000Y-80416833D01*
X182914333Y-80459166D01*
X182872000Y-80501500D01*
X182829666Y-80586166D01*
X181298666Y-82104333D02*
X181298666Y-82019666D01*
X181341000Y-81935000D01*
X181383333Y-81892666D01*
X181468000Y-81850333D01*
X181637333Y-81808000D01*
X181849000Y-81808000D01*
X182018333Y-81850333D01*
X182103000Y-81892666D01*
X182145333Y-81935000D01*
X182187666Y-82019666D01*
X182187666Y-82104333D01*
X182145333Y-82189000D01*
X182103000Y-82231333D01*
X182018333Y-82273666D01*
X181849000Y-82316000D01*
X181637333Y-82316000D01*
X181468000Y-82273666D01*
X181383333Y-82231333D01*
X181341000Y-82189000D01*
X181298666Y-82104333D01*
G04 #@! TO.C,U101*
X164084000Y-83155366D02*
X164084000Y-83875033D01*
X164126333Y-83959700D01*
X164168666Y-84002033D01*
X164253333Y-84044366D01*
X164422666Y-84044366D01*
X164507333Y-84002033D01*
X164549666Y-83959700D01*
X164592000Y-83875033D01*
X164592000Y-83155366D01*
X165481000Y-84044366D02*
X164973000Y-84044366D01*
X165227000Y-84044366D02*
X165227000Y-83155366D01*
X165142333Y-83282366D01*
X165057666Y-83367033D01*
X164973000Y-83409366D01*
X166031333Y-83155366D02*
X166116000Y-83155366D01*
X166200666Y-83197700D01*
X166243000Y-83240033D01*
X166285333Y-83324700D01*
X166327666Y-83494033D01*
X166327666Y-83705700D01*
X166285333Y-83875033D01*
X166243000Y-83959700D01*
X166200666Y-84002033D01*
X166116000Y-84044366D01*
X166031333Y-84044366D01*
X165946666Y-84002033D01*
X165904333Y-83959700D01*
X165862000Y-83875033D01*
X165819666Y-83705700D01*
X165819666Y-83494033D01*
X165862000Y-83324700D01*
X165904333Y-83240033D01*
X165946666Y-83197700D01*
X166031333Y-83155366D01*
X167174333Y-84044366D02*
X166666333Y-84044366D01*
X166920333Y-84044366D02*
X166920333Y-83155366D01*
X166835666Y-83282366D01*
X166751000Y-83367033D01*
X166666333Y-83409366D01*
X161872666Y-91845666D02*
X161872666Y-91422333D01*
X162126666Y-91930333D02*
X161237666Y-91634000D01*
X162126666Y-91337666D01*
X162126666Y-91041333D02*
X161237666Y-91041333D01*
X161237666Y-90829666D01*
X161280000Y-90702666D01*
X161364666Y-90618000D01*
X161449333Y-90575666D01*
X161618666Y-90533333D01*
X161745666Y-90533333D01*
X161915000Y-90575666D01*
X161999666Y-90618000D01*
X162084333Y-90702666D01*
X162126666Y-90829666D01*
X162126666Y-91041333D01*
X161237666Y-89729000D02*
X161237666Y-90152333D01*
X161661000Y-90194666D01*
X161618666Y-90152333D01*
X161576333Y-90067666D01*
X161576333Y-89856000D01*
X161618666Y-89771333D01*
X161661000Y-89729000D01*
X161745666Y-89686666D01*
X161957333Y-89686666D01*
X162042000Y-89729000D01*
X162084333Y-89771333D01*
X162126666Y-89856000D01*
X162126666Y-90067666D01*
X162084333Y-90152333D01*
X162042000Y-90194666D01*
X161618666Y-89178666D02*
X161576333Y-89263333D01*
X161534000Y-89305666D01*
X161449333Y-89348000D01*
X161407000Y-89348000D01*
X161322333Y-89305666D01*
X161280000Y-89263333D01*
X161237666Y-89178666D01*
X161237666Y-89009333D01*
X161280000Y-88924666D01*
X161322333Y-88882333D01*
X161407000Y-88840000D01*
X161449333Y-88840000D01*
X161534000Y-88882333D01*
X161576333Y-88924666D01*
X161618666Y-89009333D01*
X161618666Y-89178666D01*
X161661000Y-89263333D01*
X161703333Y-89305666D01*
X161788000Y-89348000D01*
X161957333Y-89348000D01*
X162042000Y-89305666D01*
X162084333Y-89263333D01*
X162126666Y-89178666D01*
X162126666Y-89009333D01*
X162084333Y-88924666D01*
X162042000Y-88882333D01*
X161957333Y-88840000D01*
X161788000Y-88840000D01*
X161703333Y-88882333D01*
X161661000Y-88924666D01*
X161618666Y-89009333D01*
X161534000Y-88078000D02*
X162126666Y-88078000D01*
X161195333Y-88289666D02*
X161830333Y-88501333D01*
X161830333Y-87951000D01*
G04 #@! TO.C,U102*
X207990166Y-71447500D02*
X208709833Y-71447500D01*
X208794500Y-71405166D01*
X208836833Y-71362833D01*
X208879166Y-71278166D01*
X208879166Y-71108833D01*
X208836833Y-71024166D01*
X208794500Y-70981833D01*
X208709833Y-70939500D01*
X207990166Y-70939500D01*
X208879166Y-70050500D02*
X208879166Y-70558500D01*
X208879166Y-70304500D02*
X207990166Y-70304500D01*
X208117166Y-70389166D01*
X208201833Y-70473833D01*
X208244166Y-70558500D01*
X207990166Y-69500166D02*
X207990166Y-69415500D01*
X208032500Y-69330833D01*
X208074833Y-69288500D01*
X208159500Y-69246166D01*
X208328833Y-69203833D01*
X208540500Y-69203833D01*
X208709833Y-69246166D01*
X208794500Y-69288500D01*
X208836833Y-69330833D01*
X208879166Y-69415500D01*
X208879166Y-69500166D01*
X208836833Y-69584833D01*
X208794500Y-69627166D01*
X208709833Y-69669500D01*
X208540500Y-69711833D01*
X208328833Y-69711833D01*
X208159500Y-69669500D01*
X208074833Y-69627166D01*
X208032500Y-69584833D01*
X207990166Y-69500166D01*
X208074833Y-68865166D02*
X208032500Y-68822833D01*
X207990166Y-68738166D01*
X207990166Y-68526500D01*
X208032500Y-68441833D01*
X208074833Y-68399500D01*
X208159500Y-68357166D01*
X208244166Y-68357166D01*
X208371166Y-68399500D01*
X208879166Y-68907500D01*
X208879166Y-68357166D01*
X195361833Y-69536666D02*
X195954500Y-69536666D01*
X195573500Y-70425666D01*
X196674166Y-69833000D02*
X196674166Y-70425666D01*
X196462500Y-69494333D02*
X196250833Y-70129333D01*
X196801166Y-70129333D01*
X197139833Y-70425666D02*
X197139833Y-69536666D01*
X197139833Y-69960000D02*
X197647833Y-69960000D01*
X197647833Y-70425666D02*
X197647833Y-69536666D01*
X198579166Y-70341000D02*
X198536833Y-70383333D01*
X198409833Y-70425666D01*
X198325166Y-70425666D01*
X198198166Y-70383333D01*
X198113500Y-70298666D01*
X198071166Y-70214000D01*
X198028833Y-70044666D01*
X198028833Y-69917666D01*
X198071166Y-69748333D01*
X198113500Y-69663666D01*
X198198166Y-69579000D01*
X198325166Y-69536666D01*
X198409833Y-69536666D01*
X198536833Y-69579000D01*
X198579166Y-69621333D01*
X198833166Y-69536666D02*
X199341166Y-69536666D01*
X199087166Y-70425666D02*
X199087166Y-69536666D01*
X200103166Y-70425666D02*
X199595166Y-70425666D01*
X199849166Y-70425666D02*
X199849166Y-69536666D01*
X199764500Y-69663666D01*
X199679833Y-69748333D01*
X199595166Y-69790666D01*
X200865166Y-69833000D02*
X200865166Y-70425666D01*
X200653500Y-69494333D02*
X200441833Y-70129333D01*
X200992166Y-70129333D01*
G04 #@! TO.C,U103*
X176555400Y-79751766D02*
X176555400Y-80471433D01*
X176597733Y-80556100D01*
X176640066Y-80598433D01*
X176724733Y-80640766D01*
X176894066Y-80640766D01*
X176978733Y-80598433D01*
X177021066Y-80556100D01*
X177063400Y-80471433D01*
X177063400Y-79751766D01*
X177952400Y-80640766D02*
X177444400Y-80640766D01*
X177698400Y-80640766D02*
X177698400Y-79751766D01*
X177613733Y-79878766D01*
X177529066Y-79963433D01*
X177444400Y-80005766D01*
X178502733Y-79751766D02*
X178587400Y-79751766D01*
X178672066Y-79794100D01*
X178714400Y-79836433D01*
X178756733Y-79921100D01*
X178799066Y-80090433D01*
X178799066Y-80302100D01*
X178756733Y-80471433D01*
X178714400Y-80556100D01*
X178672066Y-80598433D01*
X178587400Y-80640766D01*
X178502733Y-80640766D01*
X178418066Y-80598433D01*
X178375733Y-80556100D01*
X178333400Y-80471433D01*
X178291066Y-80302100D01*
X178291066Y-80090433D01*
X178333400Y-79921100D01*
X178375733Y-79836433D01*
X178418066Y-79794100D01*
X178502733Y-79751766D01*
X179095400Y-79751766D02*
X179645733Y-79751766D01*
X179349400Y-80090433D01*
X179476400Y-80090433D01*
X179561066Y-80132766D01*
X179603400Y-80175100D01*
X179645733Y-80259766D01*
X179645733Y-80471433D01*
X179603400Y-80556100D01*
X179561066Y-80598433D01*
X179476400Y-80640766D01*
X179222400Y-80640766D01*
X179137733Y-80598433D01*
X179095400Y-80556100D01*
X167739333Y-73537166D02*
X168332000Y-73537166D01*
X167951000Y-74426166D01*
X169051666Y-73833500D02*
X169051666Y-74426166D01*
X168840000Y-73494833D02*
X168628333Y-74129833D01*
X169178666Y-74129833D01*
X169517333Y-74426166D02*
X169517333Y-73537166D01*
X169517333Y-73960500D02*
X170025333Y-73960500D01*
X170025333Y-74426166D02*
X170025333Y-73537166D01*
X170956666Y-74341500D02*
X170914333Y-74383833D01*
X170787333Y-74426166D01*
X170702666Y-74426166D01*
X170575666Y-74383833D01*
X170491000Y-74299166D01*
X170448666Y-74214500D01*
X170406333Y-74045166D01*
X170406333Y-73918166D01*
X170448666Y-73748833D01*
X170491000Y-73664166D01*
X170575666Y-73579500D01*
X170702666Y-73537166D01*
X170787333Y-73537166D01*
X170914333Y-73579500D01*
X170956666Y-73621833D01*
X171210666Y-73537166D02*
X171718666Y-73537166D01*
X171464666Y-74426166D02*
X171464666Y-73537166D01*
X171930333Y-73537166D02*
X172523000Y-73537166D01*
X172142000Y-74426166D01*
X173242666Y-73833500D02*
X173242666Y-74426166D01*
X173031000Y-73494833D02*
X172819333Y-74129833D01*
X173369666Y-74129833D01*
G04 #@! TO.C,U104*
X208053666Y-97228500D02*
X208773333Y-97228500D01*
X208858000Y-97186166D01*
X208900333Y-97143833D01*
X208942666Y-97059166D01*
X208942666Y-96889833D01*
X208900333Y-96805166D01*
X208858000Y-96762833D01*
X208773333Y-96720500D01*
X208053666Y-96720500D01*
X208942666Y-95831500D02*
X208942666Y-96339500D01*
X208942666Y-96085500D02*
X208053666Y-96085500D01*
X208180666Y-96170166D01*
X208265333Y-96254833D01*
X208307666Y-96339500D01*
X208053666Y-95281166D02*
X208053666Y-95196500D01*
X208096000Y-95111833D01*
X208138333Y-95069500D01*
X208223000Y-95027166D01*
X208392333Y-94984833D01*
X208604000Y-94984833D01*
X208773333Y-95027166D01*
X208858000Y-95069500D01*
X208900333Y-95111833D01*
X208942666Y-95196500D01*
X208942666Y-95281166D01*
X208900333Y-95365833D01*
X208858000Y-95408166D01*
X208773333Y-95450500D01*
X208604000Y-95492833D01*
X208392333Y-95492833D01*
X208223000Y-95450500D01*
X208138333Y-95408166D01*
X208096000Y-95365833D01*
X208053666Y-95281166D01*
X208350000Y-94222833D02*
X208942666Y-94222833D01*
X208011333Y-94434500D02*
X208646333Y-94646166D01*
X208646333Y-94095833D01*
X195425333Y-95317666D02*
X196018000Y-95317666D01*
X195637000Y-96206666D01*
X196737666Y-95614000D02*
X196737666Y-96206666D01*
X196526000Y-95275333D02*
X196314333Y-95910333D01*
X196864666Y-95910333D01*
X197203333Y-96206666D02*
X197203333Y-95317666D01*
X197203333Y-95741000D02*
X197711333Y-95741000D01*
X197711333Y-96206666D02*
X197711333Y-95317666D01*
X198642666Y-96122000D02*
X198600333Y-96164333D01*
X198473333Y-96206666D01*
X198388666Y-96206666D01*
X198261666Y-96164333D01*
X198177000Y-96079666D01*
X198134666Y-95995000D01*
X198092333Y-95825666D01*
X198092333Y-95698666D01*
X198134666Y-95529333D01*
X198177000Y-95444666D01*
X198261666Y-95360000D01*
X198388666Y-95317666D01*
X198473333Y-95317666D01*
X198600333Y-95360000D01*
X198642666Y-95402333D01*
X198896666Y-95317666D02*
X199404666Y-95317666D01*
X199150666Y-96206666D02*
X199150666Y-95317666D01*
X199870333Y-95317666D02*
X199955000Y-95317666D01*
X200039666Y-95360000D01*
X200082000Y-95402333D01*
X200124333Y-95487000D01*
X200166666Y-95656333D01*
X200166666Y-95868000D01*
X200124333Y-96037333D01*
X200082000Y-96122000D01*
X200039666Y-96164333D01*
X199955000Y-96206666D01*
X199870333Y-96206666D01*
X199785666Y-96164333D01*
X199743333Y-96122000D01*
X199701000Y-96037333D01*
X199658666Y-95868000D01*
X199658666Y-95656333D01*
X199701000Y-95487000D01*
X199743333Y-95402333D01*
X199785666Y-95360000D01*
X199870333Y-95317666D01*
X200717000Y-95317666D02*
X200801666Y-95317666D01*
X200886333Y-95360000D01*
X200928666Y-95402333D01*
X200971000Y-95487000D01*
X201013333Y-95656333D01*
X201013333Y-95868000D01*
X200971000Y-96037333D01*
X200928666Y-96122000D01*
X200886333Y-96164333D01*
X200801666Y-96206666D01*
X200717000Y-96206666D01*
X200632333Y-96164333D01*
X200590000Y-96122000D01*
X200547666Y-96037333D01*
X200505333Y-95868000D01*
X200505333Y-95656333D01*
X200547666Y-95487000D01*
X200590000Y-95402333D01*
X200632333Y-95360000D01*
X200717000Y-95317666D01*
G04 #@! TO.C,U105*
X207990166Y-84338000D02*
X208709833Y-84338000D01*
X208794500Y-84295666D01*
X208836833Y-84253333D01*
X208879166Y-84168666D01*
X208879166Y-83999333D01*
X208836833Y-83914666D01*
X208794500Y-83872333D01*
X208709833Y-83830000D01*
X207990166Y-83830000D01*
X208879166Y-82941000D02*
X208879166Y-83449000D01*
X208879166Y-83195000D02*
X207990166Y-83195000D01*
X208117166Y-83279666D01*
X208201833Y-83364333D01*
X208244166Y-83449000D01*
X207990166Y-82390666D02*
X207990166Y-82306000D01*
X208032500Y-82221333D01*
X208074833Y-82179000D01*
X208159500Y-82136666D01*
X208328833Y-82094333D01*
X208540500Y-82094333D01*
X208709833Y-82136666D01*
X208794500Y-82179000D01*
X208836833Y-82221333D01*
X208879166Y-82306000D01*
X208879166Y-82390666D01*
X208836833Y-82475333D01*
X208794500Y-82517666D01*
X208709833Y-82560000D01*
X208540500Y-82602333D01*
X208328833Y-82602333D01*
X208159500Y-82560000D01*
X208074833Y-82517666D01*
X208032500Y-82475333D01*
X207990166Y-82390666D01*
X207990166Y-81290000D02*
X207990166Y-81713333D01*
X208413500Y-81755666D01*
X208371166Y-81713333D01*
X208328833Y-81628666D01*
X208328833Y-81417000D01*
X208371166Y-81332333D01*
X208413500Y-81290000D01*
X208498166Y-81247666D01*
X208709833Y-81247666D01*
X208794500Y-81290000D01*
X208836833Y-81332333D01*
X208879166Y-81417000D01*
X208879166Y-81628666D01*
X208836833Y-81713333D01*
X208794500Y-81755666D01*
X195361833Y-82427166D02*
X195954500Y-82427166D01*
X195573500Y-83316166D01*
X196674166Y-82723500D02*
X196674166Y-83316166D01*
X196462500Y-82384833D02*
X196250833Y-83019833D01*
X196801166Y-83019833D01*
X197139833Y-83316166D02*
X197139833Y-82427166D01*
X197139833Y-82850500D02*
X197647833Y-82850500D01*
X197647833Y-83316166D02*
X197647833Y-82427166D01*
X198579166Y-83231500D02*
X198536833Y-83273833D01*
X198409833Y-83316166D01*
X198325166Y-83316166D01*
X198198166Y-83273833D01*
X198113500Y-83189166D01*
X198071166Y-83104500D01*
X198028833Y-82935166D01*
X198028833Y-82808166D01*
X198071166Y-82638833D01*
X198113500Y-82554166D01*
X198198166Y-82469500D01*
X198325166Y-82427166D01*
X198409833Y-82427166D01*
X198536833Y-82469500D01*
X198579166Y-82511833D01*
X198833166Y-82427166D02*
X199341166Y-82427166D01*
X199087166Y-83316166D02*
X199087166Y-82427166D01*
X199806833Y-82427166D02*
X199891500Y-82427166D01*
X199976166Y-82469500D01*
X200018500Y-82511833D01*
X200060833Y-82596500D01*
X200103166Y-82765833D01*
X200103166Y-82977500D01*
X200060833Y-83146833D01*
X200018500Y-83231500D01*
X199976166Y-83273833D01*
X199891500Y-83316166D01*
X199806833Y-83316166D01*
X199722166Y-83273833D01*
X199679833Y-83231500D01*
X199637500Y-83146833D01*
X199595166Y-82977500D01*
X199595166Y-82765833D01*
X199637500Y-82596500D01*
X199679833Y-82511833D01*
X199722166Y-82469500D01*
X199806833Y-82427166D01*
X200653500Y-82427166D02*
X200738166Y-82427166D01*
X200822833Y-82469500D01*
X200865166Y-82511833D01*
X200907500Y-82596500D01*
X200949833Y-82765833D01*
X200949833Y-82977500D01*
X200907500Y-83146833D01*
X200865166Y-83231500D01*
X200822833Y-83273833D01*
X200738166Y-83316166D01*
X200653500Y-83316166D01*
X200568833Y-83273833D01*
X200526500Y-83231500D01*
X200484166Y-83146833D01*
X200441833Y-82977500D01*
X200441833Y-82765833D01*
X200484166Y-82596500D01*
X200526500Y-82511833D01*
X200568833Y-82469500D01*
X200653500Y-82427166D01*
G04 #@! TD*
M02*
